<mxfile host="app.diagrams.net" agent="Mozilla/5.0 (Windows NT 10.0; Win64; x64) AppleWebKit/537.36 (KHTML, like Gecko) Chrome/130.0.0.0 Safari/537.36" version="24.8.3">
  <diagram name="第 1 页" id="8OPYOXaFa9MDlBFKLj1p">
    <mxGraphModel dx="2049" dy="1054" grid="1" gridSize="10" guides="1" tooltips="1" connect="1" arrows="1" fold="1" page="1" pageScale="1" pageWidth="827" pageHeight="1169" math="0" shadow="0">
      <root>
        <mxCell id="0" />
        <mxCell id="1" parent="0" />
        <mxCell id="CQCiocndccs1FhWH08fA-1" value="" style="shape=image;verticalLabelPosition=bottom;labelBackgroundColor=default;verticalAlign=top;aspect=fixed;imageAspect=0;image=data:image/png,iVBORw0KGgoAAAANSUhEUgAABOcAAAGNCAIAAADVV4J9AAAgAElEQVR4Aey9B3QUR7r+/T/33v286+tr1mDy4oDBSJNHOU2SRnkEyjlP1igQTJJEzjknEQysyRlJGAeMzWKTjcFkwxKFJMCYqDjT+ranRTOWhBCKo9HTp45UU11d9daveqbr6be6+v9VYQMBEAABEDB7AgRBVFVV6fX669evL1y40NbWtlOnTs7OzvPnz7969WplRYVBb9Dr9QaDgTBuVINM4/U0kSq8ngy1d1ElUwcSBFFRUXHnzp0NGzb4+fn17t3b2tp67Nix586dKy0tpU1qoDG160IKCIAACIAACIBAByfw/zp4+9F8EAABEGgvBMrLy3/55ZchQ4b07du3d+/ecXFx33333eNHj/R6PWEw6Csr9ZX6RujPRjefFq50pKKi4uTJkyNHjmQwGD179oyOjv76668fPnxoKlwbXR0OBAEQAAEQAAEQ6LAEoFo7bNej4SAAAu2AgKkgPHbsmK+vb5cuXaytradPn15QUFBZWVlVVUVK1hde1lZrEu1lNRgMVKUEQRiMlhQUFKxfv97Nza1Tp04ikWjr1q1Pnz6l87SahagIBEAABEAABEDAYghAtVpMV6IhIAACFkugrKzs6NGj3t7e//d//+fg4LBhwwZaB1ZVVRkMhsrKytb0spqCpsRqjdrLy8sPHDjg7+//97//3cHBYffu3Y8fPzYYN9NjEQcBEAABEAABEACBhhCAam0IJeQBARAAgTYgQE2sLS8v/+qrr4KCgnr06OHn57dv377nz5+TLlbjk65UhI63gZUvqqzx2CpBECdOnEhMTOzTp4+Njc3q1avv379PO2ZfHIT/IAACIAACIAACIPB6AlCtr2eEHCAAAiDQJgQMBkN5efmhQ4cEAkHv3r3j4+NPnTpVXl5uPkq1fiyVlZXnzp3LyMh4//33BwwYsGbNmkePHtV/CPaCAAiAAAiAAAiAQG0CUK21mSAFBEAABJpKoOnOT4Ig9Hr90aNHPTw83n333ejo6LNnz7Y7X6XBYLh27Vpqaio9VbikpKTdtaKpZwOOBwEQAAEQAAEQaBoBqNam8cPRIAACIFAXgaar1oqKip9//jkoKOjtt98OCAj48ccf2/Dh1bqa2NA0giDu3r2bkpLSo0cPgUDw1Vdf6fX6hh6MfCAAAiAAAiAAAiBQVQXVirMABEAABMyOgF6vv/rbVZVS2blzZw8Pjx9++IGeGGx2ttZrEK3er127plAounTp4u3tffHiRVq40hnqLQY7QQAEQAAEQAAEOjQBqNYO3f1oPAiAgHkS+OOPP6ZNm/bBBx+4ubl99dVXZWVl5mlnw63S6/UnT54MDQ3t1q1bSkrK9evXMU+44fSQEwRAAARAAAQ6OAGo1g5+AqD5IAACzUagudyGBEHk5uYymUwrK6v169dTkpV+cWuzmdvqBVGvw3F1de3WrdukSZMePHjQ6iagQhAAARAAARAAgXZJAKq1XXYbjAYBEDA3AtRbaiirmiJf9Xr9pUuXeDweJe0ePnxIrRhMvey0xttlmg6BFsNNsbl+M0xLrqyszMnJ6d69+yeffLJ582YL8CHX33bsBQEQAAEQAAEQaBYCUK3NghGFgAAIdHQCBEHQU15NddobcaEWLtJoNJ06dYqIiDh//nxlZSVdQuMk62uNqS6WoOtpzkhtVVxcXDxs2LDOnTuHhoZeuHDhteY1pzUoCwRAAARAAARAoH0SgGptn/0Gq0EABMyGAK276EijTSstLd24ceNHH33Ur1+/Xbt2NcUVWduYOlNqS9bGaeM3avKlS5c8PDx69eq1aNGikpISyrBWqPeNjERmEAABEAABEAAB8yEA1Wo+fQFLQAAE2jeBJuoug8Fw5cqV4ODgd955JyMj4/79+7V1ZnMBokzV6/UVxq2srKzk2fOS5yUVFRVNbMVrLSQIorKycvPmzR999BGXyz127Jjp5OrXHo4MIAACIAACIAACHZAAVGsH7HQ0GQRAoEUI1NZ7byQ7y8vLly1d1r1HDycnpytXrtDzjZvd1oqKij/++OP69etHjx7dt2/ftm3b1q1bt379+m3btuXm5h46dOjSpUu///57aWnpG9nfQDupMgsKCuLi4t566624uLiCgoKWa2wDrUI2EAABEAABEAABcyYA1WrOvQPbQAAE2gEBU2lnGn9T069cviQQCHr16rVq1aqKigq9Xt+U0mrUThBEeXn5gwcPzpw5s3bt2oyMDC8vLzab/fHHH3/44Yd9+vT5oM8HH3zwwYcffshgMDw9PVUq1aJFi44fP15cVFz6vKQljNm5c+eAAQO6d++em5vbCj7eGkDwEQRAAARAAARAoB0RgGptR50FU0EABMyRQHNNcJ07d/Z7770nk8ma0dFKuX8rKyuLioq++uqrzMxMHx+fvn379uzZs1+/fi4uLgEBAREREQkJCfHx8REREQMHDhQKhQwGo1evXh9//LFAIBicMXjr5i1Xf/uttLS0uVpKrYp8586dxMTEt956S6vVFhYWUoskm2MHwyYQAAEQAAEQAIG2JgDV2tY9gPpBAATaOYFm0XKXr19ydXXu1q3b3Llznz9/3lxeVoIgnj9/fvjw4eHDh7PZ7Pfff3/AgAFhYWEzZ87cvHnzTz/9dOXKlZs3b94xbjdv3rx69eqJEyd27dq1ePFiuVzOZrN79ezJsLaWK5V79ux59OhRcxlWVVVVUVGRl5fXo0cPFot14MCBpq+W3M7PI5gPAiAAAiAAAiDwSgJQra9Egx0gAAIg8FoC1AtvmqLlKHfo/KXz3377r87OzqdOnaqsrKz9iGxDLKHNoCIEQdy7d2/z5s18Pv9vf/tb3759IyIi8vPz//jjDzrnq4olCEKv11+4cCEuNs6q/6fvvPNO7969Fy1adOvWLVN5+arDX5tOlf/s2bPY2Nh333136NChppK4Ec1/bY3IAAIgAAIgAAIg0H4JQLW2376D5SAAAm1PoIH6qh6VaDAYioqKgkKCO3X6vwnjxz9+/JhqVT2H1G52DfFMPcX6n9e9ZmVl9e/f/+OPP46Kitq8efOjR4/edN2jkpKSA99+q1FrrK2tu3btmpiY+OOPP5aVldHCuLYxDUyhhOvBgwd79erl7Ox84sQJ2rYazWlggcgGAiAAAiAAAiBgqQSgWi21Z9EuEAABsyBQp6w1VaQGg2Hfvn2ffNKvf79+R48epZXbm1pvWmZlZeWpU6fUanW3bt24XO7cuXMvXrxYWlr6pmVS+SsqKm7cuLFp0yaxWNy9e3d/f/9Dhw41ujRTG/R6fXFxsZ+fX69evZYvX94sXlzT8hEHARAAARAAARCwDAJQrZbRj2gFCICAORKgJGvtB19NpezTp09Hjhz57rvvxsfFP3z4sHbm1zaMKo1SrdSaRhcvXkxKSurWrZudnd3GjRsfPnxoqmlfW2DtDJTz9uDBgzKZrEuXLm5ubgcPHqSEq16vb4rSLi0tnTJlSufOnePi4hoydbm2bUgBARAAARAAARCweAJQrRbfxWggCIBAmxGoR7XSSu/KlSseHh7vvPPO1q1bKcnaRIV57dq1lJSUv//9766urvn5+Xq9vuntp6zV6/XHjx8PCgr661//KpPJTpw40XTvKEEQ3333nbW1NZfLPX36NI2l6TajBBAAARAAARAAAYshANVqMV2JhoAACJgjgTof0aS9owaDIS8vr1+/fhwO59y5c9RrURun3CjF++DBgwkTJnTr1o3P52/atKm8vLyJGph6Sw1dSEVFxaFDhxwcHDp16pSamnr37l1Tv3HjOuDGjRvBwcGdOnX64osvmi6DG2cDjgIBEAABEAABEDBnAlCt5tw7sA0EQMASCNCSj24MnVJaWjp37tz3338/MjLy4cOHlGql99L5XxuhpGNlZeW+ffs4HE6fPn3mzZt3//791x7YiAx6vT4vL8/GxqZv376rV69+/vw5pWwbURR1yOPHj8eMGfO///u/aWlp1Ft/GkGg0bXjQBAAARAAARAAAfMnANVq/n0EC0EABNo3gXo02IMHDzQazbvvvjt16tTS0lJKtTaitZSj9datW4mJiX/72990Ot3NmzebZW5wncZUVFQsXbq0T58+AoHg7NmzjXMO0yXr9fqNGzf27t3bxsamhZQ2XRciIAACIAACIAAC7ZEAVGt77DXYDAIg0O4JUErv6tWrnp6e/1k2KS8vr7y8vHGqlZqEXF5evmHDhj59+tjY2Fy4cKHlJCuF/s6dO5GRke+99964ceOePn1ajzJ/bVcRBHH69Gkej/f2228fP368pS1/rT3IAAIgAAIgAAIgYG4EoFrNrUdgDwiAgOUToJ8FPX78OIfDsbGxOX/+fOMkKw3rxo0boaGh77333ty5c8vKyuj0FoqUl5evW7fuww8/5HA4v/76a1NqIQji999/Dw8P/+///u+1a9fSL4NtSpk4FgRAAARAAARAwJIIQLVaUm+iLSAAAu2DAOWZJAhi//79ffr0iYyMLC4ubsQ7b0xbm5eX179/f0dHx59//rkpnk/TMuuP37hxY+DAgW+//fby5csrKirqz1z/3pKSkuHDh7/11ltDhw4tLS1tHfvrNwl7QQAEQAAEQAAEzIcAVKv59AUsAQEQaGcEaPFpandDFBflazUYDGvXrn3vvfeys7OpVYhMy3mjuF6vnzBhwvvvvz906NAnT5680bGNy0wQREVFxaJFizp16hQYGPj77783rhzqKL1ev3Dhwv/MEPbz83v06FFDGDalOhwLAiAAAiAAAiDQvghAtbav/oK1IAACZkSgiaq1qqpqxsyZ73XpvGzZMuqNL/TM4Tdt5IMHD3x9ffv06bNt27Ymuj0bWDVl6s8//9y/f/++ffsePny4KWsyEQSxZcuWzl272drZFRQUNNAGZAMBEAABEAABEOggBKBaO0hHo5kgAAItRaCGY7DGx1fVSmXTaDQ9e/fesnVLU5YgMhgMly5d6tevn4ODw/Hjx8vKypoiIF9lcJ3pv//+u7e3d5cuXebNW9Doh2kpFAcPHuzd+x9W1la//PILbX+jZXyd1iIRBEAABEAABECgnRKAam2nHQezQQAEzJRAA1UrZX1gYGDf/v1y83L1BkOj20MQxJdfftm5c+fw8PA7d+4YjNsbmdHoqktKSoYOHfrOO+9kZAx++vRpI8qhdClBEMeOHevbt2+/T/v/8MMPlGql1kamFWwjCschIAACIAACIAAClkEAqtUy+hGtAAEQaJcEhELhAGvrL/fvb4pqJWcaz5jRqVOnwYNJ6dhyetW0ZEpS6vX6ZUuX/b1Tp4jwiHvF9xrdBwRBnDlzxsrKqm+/T77++mtatdK+VtOqG10LDgQBEAABEAABEGinBKBa22nHwWwQAAFLIMC3sbFmMvPy8wsKCu42dissLJTL5Z06dZo4cWKjp+m+lmZxcXFhYWGRcTONrP18bdeuXQMCAgruvPHzqLQWJQji/PnzTCbzH//4x4YNGwoKCoqKiopfbFT8yZMndP7XWosMIAACIAACIAAClkQAqtWSehNtAQEQaGcEun3cr2uP7uHh4TqdTtvYTaPRMBiMzp07L168uLy8nJoh3LwgiouLFy1apNPpUlJSqL9arVZn3AICAv72t79JpdJr1641ulKCIK5cueLk5PTuu+/6+flptVq1Wk3xoGpJTU1dsGDB7du3IVwbDRkHggAIgAAIgED7JQDV2n77DpaDAAi0ewJsRr9e/+hNhZ69ejZls7a23rhxY1NWdaqH5tOnT1euXNm3b9+//OUv//M//9OtW7cePXr07NmzVy/S6F69egUHB//73/+up4T6dxEEcfPmTZlM1rNnzx49evTq1at79+49evTo3LnzX/7yl//6r//q1avX3LlzHz58WEO11vhYfy3YCwIgAAIgAAIg0E4JQLW2046D2SAAApZAYMuWLeubadu+ffutW7daYu0i6uHShw8fZmVlde3a9d13301PT1+5cuVa47Zu3bq1a9fu37+/Ke+JJQji2bNnubm569atW79+/caNG9etW7dmzRq1WtWtW9d33/2/1NTUW7duQaNawkmPNoAACIAACIDAmxOAan1zZjgCBEAABJqJQGXzbS3kZa2qqqKXRLp27Zpape7yXmdvT6+TJ0+WGbfy8vKKigq9Xt90SVlRUVFZWVlh3MrKyk7//HNkRMj7778XExlx7dq1ppffTJ2GYkAABEAABEAABFqbAFRraxNHfSAAAiDQ7ghQkpggiNOnT3t5ef31r39VKpU3b95sobfsGAyVjx7cHzVqRNeuXSQS0bFjx2jl3O7QwWAQAAEQAAEQAIGmE4BqbTpDlAACIAAClk+AcnWWlJRs376dxWT27NFj+vTpxcXFze4CNRgMjx8/Xrp48Sd9+/K4nM2bN5eUlDR7LZbfYWghCIAACIAACFgQAahWC+pMNAUEQAAEWoAApRgpbydBEI8fP/7888/79u3L4XDWrVv3/Pnz5q3zyZMnmzZt/PTT/n379l24cOHvv/8Oydq8hFEaCIAACIAACLQ7AlCt7a7LYDAIgAAItCoBSq+arvNUUlIyderUXr162draHj58uKyszHRvU4yrqKg4cOCAi4vz22+9NXr06Lt371IlY4ZwU6jiWBAAARAAARBo7wSgWtt7D8J+EAABEGglAgRBGAwGSkDevn1bLpd37tzZz8/v3LlzzbIWFEEQly9fTkxM7NKlS/DAQZcuXaKqa6XmoRoQAAEQAAEQAAFzJQDVaq49A7tAAARAwIwJ6PX648eP+/r6vvPOO2q1+saNG/Qywg30i1LZ6MwGg+HBgwfDhg3r2bOnr6/voUOHSkpKzBgATAMBEAABEAABEGg9AlCtrccaNYEACICAJRGoqKjIz8/n8/ldu3YdM2ZMQUEB7RqlvbKm7aUS6RRar1Ip9+/fnzdv3j/+8Q97e4fdu/dAstKgEAEBEAABEAABEIBqxTkAAiAAAiDQGAIEQZSUlKxdu/ZT47ZmzZrHjx9T73el5etry6W067Nnz9atW/cRuX28cOHiP/549NoDkQEEQAAEQAAEQKDjEIBq7Th9jZaCAAiAQPMT+M8awuPGjevUqZOtre1PP/1kuixTDW9qnXXr9fqKiooffvjB0dHxrbfeGjx4MBYNrhMUEkEABEAABECgIxOAau3IvY+2gwAIgECTCFDvpCkuLpbL5V27dg0JCTl16lR5eXltvVojhX6ZjcFgOHPmTHh4eJcuXYKCgm7dutVwP22TTMfBIAACIAACIAAC7YcAVGv76StYCgIgAAJmScBgMJw6dSokJKRLly7JycmvWlK4hnCl5hLfuXMnJSWle/fufn5+x44dg2Q1yx6GUSAAAiAAAiDQxgSgWtu4A1A9CIAACFgAgfLy8tzcXB6P161bt+zs7OLiYtqbWrt1lHw1GAxPnjyZM2dO9+7d+Xz+nj17Kioq6jmqdjlIAQEQAAEQAAEQ6CAEoFo7SEejmSAAAiDQsgQqKytXr179wQcf9O3bd82aNU+ePKmsrKxHhZaUlGzevLlHjx4ffPDB8uXLqZWcWtZElA4CIAACIAACINA+CUC1ts9+g9UgAAIgYGYECIJ48uTJ5MmTe/fubWdnl5eX95+FmkxtpBQs9f6b0tLS/Px8Ozu7Ll26ZGZm3rlzp86X5ZgejjgIgAAIgAAIgECHJQDV2mG7Hg0HARAAgeYkQM37vX37tk6n69mzp6+v74kTJyorK6k6TCUrQRCnT58ODQ3t3LlzdHT05cuX6WzNaRDKAgEQAAEQAAEQsBQCUK2W0pNoBwiAAAiYAQG9Xn/ixImgoKAuXbrExsZeuHChoqKCtosgiMrKyoKCgtTU1N69e/v7+58+fZqaSFzPXGL6cERAAARAAARAAAQ6JgGo1o7Z72h1gwhgGN0gTMgEAi8IUF8ZvV5/4MABW1vb9957b9iwYXfv3qW/SgRBPHr0aOzY8Z07v+/g4HjgwAHq/a708sJ0zhdF4j8IgAAIgAAIgAAIVNWlWomqKjoAEQh0YAL0SLoDM0DTQaAxBCoqKtasWdO/f/8PP/xw2dJlfzx8SH6bDMTzZ8/XrVvXt2+/vn375eSsfPbsWWNKxzEgAAIgAAIgAAIdjEBdqrWDIUBzOxSB13pyXpuhQ+FCY0Gg0QQePXo0Y8aM3r1729vb5+7eU1JWWlJSumvPbgcHh67vdxs7ZmxBQQG+bo3GiwNBAARAAARAoEMRgGrtUN2NxoIACIBA6xEoLCoaPnJk9x49HJ2cTpw6eeTIEW9fn87vdVYky2/euEnNDW49a1ATCIAACIAACIBAuyUA1dpuuw6GgwAIgIB5EyAI4tz582HBQe/87W1vX5/AoMC/d+rk4e5x7do1eFnNu+tgHQiAAAiAAAiYF4FaqlVfVmUaKkurEECg5QkQLV9FI89kfWmVHt8CEDATAiXkaWz6E00uQmB+m0FPlJUZSksNpaXlT57s272by7L+3//vrf/929s2fP7+vNyKZ08NpaVEWRkdDGVk5jcKRNmfSqCLQqT9EjCUlupLSswwGEpLGk7VUNp6TTCUlpCB/C4ggAAIgMAbEXh5CSZ/30xW+ze/UUW1RX9WrQY9cWUvcW7zn8L5zQQCCLQkAcO5TYaWLL8pJ3DVhS3EhS1NKQHHgkCzEDCQv8wbiF83/un3+WmBcfU887rEGIqLnn+Z+3T7lmc7tpbs2Fb0xbqF4QEfd3n3065/nxsTfXf950+3bXm6vTo827GVDNu30ilvFtmx9cn2LQiWQmDzk21mGDY92b75TQi3bhNI2xBAAARA4M0IPN2x9WXYvaP8yiXCoDevwUQta2qo1grih3GGPLVJ0BjytQgg0KIE9HkaQ54Zn2nmbBu+nh2LgPGbYvITXVVwjCDM7jJTeeXKw4lj76drH6SnPBysu5+uva5VjBE5TxO7nEuOu5emeZCecj9dey9Ncy9Ncz9Nez/dGNK099OqE6ld9f8lDzQeey9di2AhBIynRP393vp7i9M0xZRhDTzTWr8VDTQM2UAABECAJmDyS3V/WEbJ0cOEvrKWTjSvhNeqVlMFizgIdDgC+lyVyU2cDtd8tN3MCZinai2/fOnBuMz7aZp7qWoqFKdrbqeobqeoikwS6b2IgIA5EyhKUZqzebANBEAABJpI4P7QtJIj/4JqxSgfBEAABECgpQi0F9XaxAsqDgeBtiVgegumbS1B7SAAAiDQ7ASgWltqlGbmrg+YBwIgAAKtRsB8Vev4LAz0m31ggQJBAARAAARAoNkJQLVCtYIACIAACLQsAajWZr94o0AQAAEQAAEQ6FAEoFpbdqzWaq4MVNQKBIh8DZGvaYWKUAUIWBgBM1at2fC1dqhBDxoLAiAAAiDQTglAtUK1goCFEICotjClZ0nNgWptp0MEmA0CIAACIAACZkKgfapWfc033xAmr1iwpKEe2mImBCgXq36vkraHyNfoc1X6XBUVodNrR0xX96VdtXQiHalxIF0+VQudjfpYIzM+goCZE4BqNZNLPsywJALF1NrXOuMK2Gma4lT1/VT1ffItTSbLYutU93Sq4hRVMZlNc0+nuk+vmK1TVdMwJpIHGksoNqY/SFUXpVWvrW1J0NAWEACB9kugXapWQl9O/DCeHqUReSoiD6/9sBCHId2tbR6hXJeUzjRqSHXRxkRaNOpzVRV7FJVGHUtHqvZp9bnqx9uSnu6QV+5VVu5V6nNV5bvJeMUeBa1yiXwNmbJXdXdDwp1/JlTuJdWvIU9N1rhPa8hTU8WW75ZTJdPlU2VSxdbgQ+vhGun4CALmQACqtf2OEmC52RIo0qkKtIoirfJequa2TnnXKFmLU9XFOlWxTnU/TVOUoixKURbr1NeViafjou6kqqi993Xq4hTVPZ26QKe6l6a9qyXzFKWqi1JURSmqwhQllXI7VVktjF8IXbNFAcNAAAQ6AgGoVog9EHglAVq4Vu3TPt0WP0dud/PzqJIdyccXRHw/LeC7Kf4HJvsdnCr713RZ8YZ4fa66dGdSyW7l11NkP84LLdut+NesoIPTAg5M9vtuqv93U/wPzRh055/xlXuVZbuSK/cqn29PXJYq2DDCq3SnvGxXcvlueenOJKO4Vd/ZkPyvad6Hp/scmuL5/RTPbyf5fjvJ9/tpAQem+H8zxf/QzEElO5NrSBHaGVsjHR9BwBwIQLV2hPEE2tjKBG5q5aeiwq8qEm5pld9GR5yMj7mfnnKPFJ/KolT13VRSlJIhRXkwOiTBtv9P8RHF6doCnapIqyxK1RSnak4kxWwNkm0N9N8eErAlyH9bsGzbIP+NgX6bB/ltDvTLjwi+m6qGcG3lbkV1IAACryIA1fpKxWIOQz3Y0IYE9LkqyudJ+kv3KP/YEj86nPPdFN/CTcnhbh/JnD9O9Oif4P6J3OtTd17PHVmeJTvl30wJuLAiasNIryU60fmc6FHhvERvlt0nfxdze8d6MtMD+QdnBl9eGfP1tOAvJw3clukd5PiP2cn230zx+2ay77dTfL+Z7Ht2aVjZbuX2TC8/m95xUkaCJyNOykjyHKD0+lTtY6Xw+jRK8JGz1fu310bWIANfaw0g+GhWBKBaX3UNRjoINI5AQar624jQND77X9ER11XJcyTO04UOF5UJRcYZwne0iu8jQveFBe4LDfwqPHhnkMzPuk+Wk/2+kMBvwoK+DQv+V2TobbV8rZ+7Y+8eUVZWsSxGHJsZZfVpjNWAGIZVLNM6pF8/115dfkmKhWptXAfhKBAAgWYnANUK1QoC9RGgZvOeWhiyaYRkQgx/eoL9qUXhCZ7W308LOLYg9NDMQU+3JWRH8XeN8Xm+I3mRyvHrSX6rhkgGh9isGya9sS7+1LyAJOkni9XOp5ZEXVsV+WxH8qkFIYu1LnMUDqFuH/nZ9pqWaDtX4ThP5TRX6Thf7fz1JL+SnfKd2d5zku2Pzgt+ui3xzLKoM0vCH25OKNmZfLTR/o4AACAASURBVHVV9NdTBgnZPW99XlO1mpVEgTEgUIMAVGuzX7xRYIclUGx0op5Jjp3k4ThJ6HxRmXhXp9wfHijnDlgv876lVRTpVLfUyYP57GFODnOl7vM9PbKdnTOdbKcKXeZL3Re4S6aLBKPsbE7ERqzxlWS5uR2MDLmmSv4hKuxAeOg1RdJNjeJIXNSu4IHC3l1PQ7VidjQIgIDZEIBqrU+x1Bh44WNHI0CvhHTj8+jDswdtHC7W+Fl/O00W72H146xBX03yXTdE9GxH0tQ4/s4x3g82JUyJt8sd570iTbRQKzyxIDR3jKfSx8rPrk+idEBqoM3oUPaVVdHXP4/9dXHQoRkB8e6fZEbaHlsQ+vPi8FOLwk4vifhlaeSFnJiHW5N3ZHnPSrLPirA5tShslsJ16yjPI3OCCv4Z/8Uw8fphIhGn1511UR2tL9Dedk0AqrXDSiw0vHkJUJL1oiJhiZd7NLd/fnjwba3irk51UyNf7uWuZlttDAy4rE6+qZFrGQPW+nv/mhz3U3R4uh1nx0DvXxKjzyniLibH/Ss6JMvB/mhM+Dpf9xFOTtn2Noeiw6a6Oq3x9f4mPOisMnGhp8cSD5Fbr/ehWpu3+1AaCIBAUwhAtUK1gsArCdDTbqn1kNYP85gjd7yYEx3nMeDInKDdY7xyUgWUat091uf0wpBhwcyJcXYjQ1hjIvmfD5Es1LrNVbvlTZB9Od7nyylBUcKP9k30W5AiGB/D1/pbOzO6q3ytJsbbT4i1nRhvNynefkKc7bQkhyOzA7aNli5QuaxKd8mOtkny5fw0O2CWwmXbaM9JcXZ7J/iJub0xQ7hdS7gOaDxUa1Ou0zgWBGgCxWmaS8rEVT7eMYxP1/n5XFUrTsRG/pIQezdFdUWZNNtdFMb+dGWA74/xUdv9vfaHBR6KDpstdQ2w+kduoP8PkSE/xoYfig77Kip4o8z3dELUBl/pTLHrZKEgnc+Lt7beHxE82cVlpbfnaHv7DX5S0QfdoVpp8oiAAAi0OQGo1lcqlg44skSTaxOgnm4t3SX/z0Onwc59VmcIrn0eT/lat4+WLk9xe7ItYXIsb3uW9OqKkK8m+u4a4zVH6boqQ7Bvot+KDPf1I7zWDffMGeL568q4WHHf4/MCD88K+mZ6kErGTg1g7Z/od3CyDxW+m+R9cLLP4Rn+N9dG78z2Xqx1u7Q0SCHtOzne8fHW+C2jvIKc+ixQu55dHOzG7H57bU1fK1Zjqt13SDEfAlCtbX6xhwHtmgD1Npp7qeriNM2xhKh46745Hu7X1UlHE6JDGP22BgbdTlEU6dQ3lEmzpWIFjzFP6p7l6JDO50VZ97fv3cnrk15pfK7OjhfB7O894IMkDmMIn7dD5rvcy2uuyOlf0WHB/T8ZK3C8oU5a5u3h+8lHk10d98eGiT7oAdXark8bGA8CFkYAqhWqFQTqJkC/jaZij+LYvOBo0ce8/t1S/AbsyPSIFvX7cVbg6nS3YcHc4o1x0+Jtdo0ln2v9erLvyQXB//zMfddYvx/nBK9Oc1s7XJqTLlyoFZxeFh0n+eTqysiKPco/tiaNDOGMDuN98Zl4y0j3TcPFG4Z7rM4Qrh/mXvTPmIo9ql1jfBZr3c4tj9D6MabH83/fknx87iBPfu81gyWXV0bV+VwrVKv5KDRYUpsAVKuFDR3QnNYnQL2ItThN86sifo8s4IYq6ZoqaY6HJMq6/+nEmH+rkq6rkwtT1be0imMxEcfjo36MCd8aNFBny5FzrfcEDfw2Kjg3JGCII09uw8gNkX0bEXI+KXatn3SO0OlIXKScw5jk6nhRlZQ/SCbq02uBp/jbqFCo1tbvZdQIAiBQDwGo1roVS+1RF1I6LIGKPYrvp8vyx3rIPfsv17ltGuU5MoTzw3TZ8FCuv/0/LuRErUpzy58UcHNN1OAgzg/T/VekCcdE22aGseYonVcPlcySO69KF13MiYwV9/1tZWT5bsWT7fIVaaLJcXaLVU7LNU5LVI6ZEbZe3N7JntaXV8ZSawgv0riuH+GVGc5W+1p/M23g0lRhiow1Ppp/cLrMjdn95pqIGt1BqtZcnMwgYKYEoFrruQxjFwg0hAClWu+lach3rqZp7qQov48MG8Ln7QoedCdF+a/IsI3+vtdUSQU6VaGOfOdqUar6QnL8cHv+KHvb/JBBZ+QJ+yPDhjnY7goOKNKqitLUhanqz/3cJwlc50rd03lsOdN6e+igqUK3RA5rpKPdtmCZGL5Ws1mEpiFnCPKAgMUTgGo100FeDU2Cj21FgPJhluxRle2Sjwpln5gX9HBL8rkV0XnjfCLE/WPd+1/MibyyPHTPONkXIzwnx9r8tjp2gcpJ5vjx7iz3TcMlOamuSp8BCzSCX5aEp/gzrq2K0ueqn+9UbhwhnaN0/mFmYNE/Y67mhM1Nthkdwj40J/TpDkXlXtXObJ/MSL7aZ8CRmb5bs/xmacSjIuwOzw6ameywJsPVldGt9hrC9CO4bQUK9YJAPQSgWi1+MIEGtigBaoZwtXBNVRelac4lxY1zcZ4jdL0kTyjUqg5Ghct5rNW+Pre1ikKdqlinKtQqbmoV30WETHJ1imR+ouExQ1n9stwczsjjH6Rqi9PUhTrV537ug+3sVCzm3pCA1X7SKe7iwXZ2u8ODJzg7LXB3w2pMLdqnKBwEQOBNCUC1QrWCQN0ETHWgPldVsjMpK5x9elFoyS7l+WXhOhljYqzNyHDbM4tD7v4zZlay41Kty9FZ/qcXhc2ROy3Vuv6+Ke743EGTYm3DXD/U+n66eaRkwzDRvY0JhjxN2W7Vt1Nlcm9rtfenS3Qe42JdMgayr+ZEVOxWEXkp+jzN9tGeabIBW0e6l+9RVuaqv50iOzA14Nn2pJ8XhW8b7enG7HYbb77Jq7vX6hFO2NWGBKBa3/TajPwgYEqg2ChE76Wq76dpClPV11VJyz1FXh/0Xuvn8310+MHo8K8igwfbcf37fnAwKrQgRVmgVdzSKq6rk3+RJ3wVFTbc0d6hZyevj3uOdbLbETzwrDLulk5ZmKpZJ5PGM1lLfLxuapJv65Sb/H12BsuuK5O+Cw9c6iV2xRrC8LWCAAiYEwGoVox9QeCVBOiHRSv2KMr3KLIiON9NH7gj2zcz2m6eWnhhecRshfOKVNdVQ9zHxzl8O33QllGek2Jtl2hdL+dEHZoVtEzrPD6alzved//kgOmJdjPlzhdWRFbuJaur3Kt8sDlh33i/CdH8EKePskLZv+VEEfk6fa6G8rUu1Qmf70iq3Kus3Kus2KOo2KP4bWXEtkyvBSrnELePizbE1VAgRL7GVGbX2IuPINC2BMxYtWbdT9OYygPEQcBsCVDnamGq+vuYsHDrjyOtPs1ycp7iLJguEs6SiCcK3KKYn451drqpSirQKvYGBSzwEGQ7O35mbzvOyfFzf7+twbJxQud0HneUo+PByOBbWsUXftJ5YtebGkWxTl2YprmtU97VKo/ERKz1kU5ydQq2/uSiMrHYnMasZts1MAwEQKAVCLQz1UpQm76c+GE8PUYn8lREnqptx2So3YIJUGda+R7FmnT3Q7ND5qvd9k3wu/tFQsUe5aUVEd9ND/h2muzYvKCTi8JXaBwOTAu4vympbJc8J8P9i+GS80tDn++UV+xV3V4XvX+S36WcaH2ehhbD5XuUhRsTf5wd+M+hbueWR+rz1MY3xKqPLQj7amog6WjdqzRQiXnq31ZG7c722viZ+6EZAc93Kal3yVowdjTNcgjka4mC41WEvsrMtvLLlx6Mz7oH1QpZ0h4I0LdXitM055UJB0JDv4kI+y468seo6JOJUaeTYs7I476Litzo512gVRSmKBdKPce5uG4J8D0YHnIhOeGORl6QorymSj4YEf5FgPfByOA7GvmBiOC9wbJCrbJYpypKVRUZPbqHY8LX+HotkbrvjwguSlVBtbbCWBxVgAAINISApajWXKjWVzoMLWfs29aTQn/fnPR0p/L+psSKPaSYrBFKdikfbo6v2Ft9Kt7blPhsp8I0T/leVfmeOk5Ufa762Y7k0t0vMz/fpXi64+VHqpDKvcqyXYqyXdXplGql/5pWhDgImBeB/BTD3RPmqFovGVVre1AsDbmcI0/HIUAuyFR30NzWKigOlxVJVxXJRTpVbSyFKco7xmx3tIpbGnmNDHeNibXTa2TDRxAAARBoZQLtWLW+HJblKg25daiIlxlqCQzsAgEQAAEQaCUCZqtaKV8rVCsIgIAJAfrdsK08HkV1IAACIFA/AajWmh6zVhrGQUiDAAiAQAchANVqIgnqvyRjLwiAAAiAAAiAQJ0EoFqhWkEABEAABFqSgFmr1ux7aeo6r45IBAEQAAEQAAEQMB8CUK0tOVbrII4UNBMEQAAE6iEA1QpfKwiAAAiAAAiAQNMIQLVCtYIACIAACLQkAajWpl2nzec+NywBARAAARAAgbYiANXakmO1epwP2AUCIAACHYaAGb+vFTOEMUEaBEAABEAABNoBAahWqFYQAAEQAIGWJQDV2lZ3plEvCIAACIAACFgGAajWlh2rYUViEAABEAABqFbLGDGgFSAAAiAAAiDQVgSgWqFaQQAEQAAEWpYAVGtbXeNRLwiAAAiAAAhYBgGo1pYdq8HHAgIgAAIgANVqGSMGtAIEQAAEQAAE2ooAVCtUKwiAAAiAQMsSgGptq2s86gUBEAABEAAByyAA1dqyYzX4WEAABEAABKBaLWPEgFaAAAiAAAiAQFsRgGqFagUBEAABEGhZAlCtbXWNR70gAAIgAAIgYBkEoFpbdqwGHwsIgAAIgABUq2WMGNAKEAABEAABEGgrAlCtUK0gAAIgAAItSwCqta2u8agXBEAABEAABCyDAFRry47V4GMBARAAARCAarWMEQNaAQIgAAIgAAJtRQCqFaoVBEAABECgZQlAtbbVNR71ggAIgAAIgIBlEIBqbdmxGnwsIAACIAACUK2WMWJAK0AABEAABECgrQhAtUK1ggAIgAAItCwBqNa2usajXhAAARAAARCwDAJQrS07VoOPBQRAAARAAKrVMkYMaAUIgAAIgAAItBUBqFaoVhAAARAAgZYlANXaVtd41AsCIAACIAAClkEAqrVlx2rwsYAACIAACEC1WsaIAa0AARAAARAAgbYiYBmqVWXIVWJcCAIgAAIgYJ4EoFrb6hqPekEABEAABEDAMghAtcLXCgIgAAIg0LIEoFotY8SAVoAACIAACIBAWxFox6qVyNcQ+RqjY0FF5KrM08MAq0AABEAABKBa2+oaj3pBAARAAARAwDIIWIJqJfKgWlvWT4IxNwiAAAg0hQBUq2WMGNAKEAABEAABEGgrAlCt0HsgAAIgAAItSwCqta2u8agXBEAABEAABCyDAFRry47VmuKdwLEgAAIgYBkEoFotY8SAVoAACIAACIBAWxGAaoVqBQEQAAEQaFkCUK1tdY1HvSAAAiAAAiBgGQSgWlt2rGYZfhK0AgRAAASaQgCq1TJGDGgFCIAACIAACLQVAahWqFYQAAEQAIGWJQDV2lbXeNQLAiAAAiAAApZBAKq1ZcdqTfFO4FgQAAEQsAwCUK2WMWJAK0AABEAABECgrQhAtUK1ggAIgAAItCwBqNa2usajXhAAARAAARCwDAJQrS07VrMMPwlaAQIgAAJNIQDVahkjBrQCBEAABEAABNqKAFQrVCsIgAAIgEDLEoBqbatrPOoFARAAARAAAcsgANXasmO1pngncCwIgAAIWAYBqFbLGDGgFSAAAiAAAiDQVgSgWqFaQQAEQAAEWpYAVGtbXeNRLwiAAAiAAAhYBgGo1pYdq1mGnwStAAEQAIGmEIBqtYwRA1oBAiAAAiAAAm1FAKoVqhUEQAAEQKBlCUC1ttU1HvWCAAiAAAiAgGUQgGpt2bFaU7wTOBYEQAAELIMAVKtljBjQChAAARAAARBoKwJQrVCtIAACIAACLUsAqrWtrvGoFwRAAARAAAQsgwBUa8uO1SzDT4JWgAAIgEBTCEC1WsaIAa0AARAAARAAgbYiANUK1QoCIAACINCyBKBa2+oaj3pBwHwIFOtUVDAfk2AJCIBAOyIA1dqyY7WmeCdwLAiAAAhYBgGo1nY0LICpINByBCjVej9Ncz9N03K1oGQQAAGLJADVCtUKAiAAAiDQsgSgWi1yANFhG1Wcqu6wbW98w9M099I0hTpVUaqqKE1dnKa5l665l65tfIHoBRAAgQ5GAKq1ZcdqluEnQStAAARAoCkEoFoxNLckAsWpagjXN+vQNPU9UqZqi9M1RWlqKhSna4oztKR8TVUX61RvVmAHG6wDDgiAwL1UNVRr86vWyr3qCtOQ++ePprvqjVfubX7bmjLuxLEgAAIg0DgCUK0YcFgMgeJUdYFOeTtFgfAmBOS3UuS3UxR3dUrS12qU/ffTtffSSBGLWwAW8+1AQ0CgRQlAtTanMqzYq/5ju+r8quQzKxV0OLtK8UuOvIHh5JL4o4tijy6KPbY47pcVyc93qRo3RsRRIAACIGA+BKBaW/RCjsJbh8BdnfKaKum8PD43PHBzkP/mID8zDJsC/cwzbAz02RLos22Qz65A733hAUfiIy+pkm4Z5WsxOWEYk65BAARA4DUEoFqbU7Xe3qD4YlLiaF30CG1sI8JwbYwy0j82yDM2yDMuyFMe7rtnSsSznRCuzdlH5jOOhyUg0K4J6HNV+tyXv061P9KtI/I1VXePE4S+qqqKIIiqF5tp/EVaq/6vuHzpwYRsrArTOpKvHdVS51pBd3XKr6JCZ7u7pHlJ4ny8E2SyRLMMCTJ/swyy+ABZfIBfksxHJfNKlXmne0nGiUW5cZH/1srvpZJzhovTNffTsUrTa0bt7eh7BFNBoNkJ3B+aVnrkX4ShslXHCm9e2f+jDiGoTV9O/DCeyNcQ+RpDnprIUxEmgyd6qNTKkee7VHtmJmnl0bGxNUNcXIxOlZA5enh2XVtWVmZCQlxsbPSgQQFisVhksvl5Sb5fmGw6NGzlRqE6EDBDAi+/+y9+BCjJRKeTPwvGHwfK+Kp92qovU6r2aakMpn8b3jrTAk0rMi2BLtmQp9bnqkyz0btMyzE9tt3Fa/wuUV1QI5FqFKlaC08QROVrZSqdgfqlf/MrxZsdUXH50u9QrXg+sBYBWrXSD1v+pkrMDQ8KteMFuDnMmTf7/JWzd+/eKixAaDCBu7fuFNy+euP69du3Cu8VX7h4fuXKnKSY2CiRYHN46L9TlPd0SlK1ZmBxJqhWEACBVxIgfa1HDxOE4c0u9q2e+6VqJas2VFQdMjvV+nCbct6o+IS4qBiTLTY2Nj4+PiE+fs6s2SePn7hZ13bs2LHMzFGREWH+fj6mqlUsFkvEwnEKr+c75IZcUp9TQ+F2N7qFwSDQXAT0uarKXJU+T00FQ76Gipgm0nsrX2Q25GuIfVo6M51Bb/xONcQ2fZ6WDoY8rSE/xZCfojdGTNLV+ly1Ibf6e0rqN2O8RvkWo1prtKuuj5QnVkvs01UVnTLoDbQWpdSpiduV/F1/kfjSGUsl0lKWzNSsG6lax2fREoW6KwzXa7PfHTefAmu8LJQWpaYWUo9ZFqeqC9PURamqglTVdVXyigCPaC/R7Kmz7t4p0BN6A6FvudOyiec4QRD6ZtoMhpYdGhIGw8IFC+Jl/ktl3ldUieSSwliWqdY9FNOTE3EQ6OAESF/r0Z8MUK11DbnebGLqq1RrgnHLys7asHHT1m3ba4d/frFh8NDBYeGhvv5+Ig93N4nETSIRSCRCd4lELMqUBzzdodTnaikL63RlNN14lAAC7YJADdVK609T1UqpU9MUOhsdofc2tNW5GvLOkTEQ+VoiP4XI0xJ52qr8FCoQeVpDrka/lwyGXK0hV0tHqI9EXkr13rzq73JDq26wtDa3Aol8NZGvJl3c+7RE0UmDvpK6P1o9ZcbkX53DdJP9f9KxdWZuXGK5UbU+SNeaKlXTeAcfH1he82mZSkXoj3RL6eVti9LUhamqwlTVXZ1qmZ8kIcBj8xcb/vj9oenNl8addTjKlMCzZ8+2b9+e4Oe7xN+rIEVRlKKk+wIREAABEKhBgFKt8LW+mUCtc3RIqdb4uOjEjGGJw0ZRIemz0UkjspJGZCePGqvKnqgaM6nOkDx6bFT6cH9FijRB5RGv8ohXesTKRf4BEolktDzgCVRrux2413mqILHRBOiHJ03dpJQWpWYFv0ynHh94MYWYrpGeyEofRe9qSIS+bURPADadBmws3OhxzdMYHa0aIk9jyNOQPljqb13e14bU2+7yGEGpDHnGadL7tEThCb2+giCq3a2mirQNfVaUaqUfpTPVMNCuNcYKFvaxHtVabHwvC+lo1akKdaqf46PduVbL5i9+8uQJed4aCIOBPI1NpRfijSZAEMTTp09X5qz0c3I8Gh1WhPffwNcKAiDwagJQrc2gV6kBZbWvVZGszdk2eN+ZjP1nM/afHbz/18/yz742DMs/K999PG77TzFbf4zZ+mP01kPRm74fNHqS2MN9lFwG1druhuwwuEUJ0MqTqoVWkvTkWypiqidpe6jMpn/pXfVHqDLpqk0j1IFEvoZOpIuiTaJ30dbSeSwyQjWTckcT+3RE4Sl9Jflca42t0YPdZjmQXI3pxQxhSqbSf6FaLUym1tkc0/sUVAba11qYpr6XorqrVQ525QwK8L914yahN1QZtSp1DjfLGYhCqPnM9+/fT4iLnyIVFWgVdfYUEkEABECAel9r6dGf4GttBu1arVqV8pQ1u4ceuDLk4NWGh4zvfkv48lJ0/sWovIuRuRci9v4aufvMoLHza6hWauBrkWNcNAoEGk6gWgGaeOBJcWh0q9Iq8VUPgTfxS1TjcFr90gr5VaK02mYzWDeu4ZybktPYEUoin/S1GvK1ROFJg4FcQ5h+VLUh3ioqT0NyNm70b/pcK/V0K1RrhxoY1aNaSQ5a5YnYcG8GY/uunfrKyiq9oYp8ntUAN2vjvm61j6L1v8Fg2LRpk7et7amE6Nqd0qHOSTQWBECgHgLwtTaDXqXGdk1RrdpvLsd+eTEyvzpE5J2L2HN24PgFUK1NGTfjWEsiQCtVfZ6aWmaJejaVXnKJfmbVNFKZq6IXYTIYlS318WWiifStFxf5UKs+l1pvqXrGr+HF7F99rprIq17SnCqE1q60WKVT6q2l2X6O2rwWes3kqvwU0td692eDvg7VaqpIaY1awx9rmqf2wLcpKeQMYZM1hOllmehIPddO7LIAAjUEUrFORT7Omq4uTlXf16mLU5Tbor287Lh37twh77aQgXK2/ukFTk05Azv4saaq9fLlyzKBYF/IwBqdYgGnGZoAAiDQXASgWpttmNgU1Rq372LUvvpUa+Vecg3hGn6eNh+YwgAQaAUCRpmq1udpyJCrqSQD+bEy15hCpb/4SyX+OY+WOtaQrzUJKYZ8Y7rxpaOm2rLOeJ2rK1Xl616usWRcL40SzKZLPdVIIT82sMaGyulm+wVr3q4k33ZjXLOKXIwqX0cU/kK8eBrQVJTSSwe38vCdsqHs0sUH47PupZErl9YOmCRcm4kFpNQjisgVhtM1Rema4jRSuBbqlGtkHoqI0KePnxBVVQajcG3lE7UjVEd9GZ89exbs67vcxwOPtlrAtwxNAIEWIkCq1iM/YoZwM4z8Gq1aB3/3G6la8y9E5l+MyLtgDDV9rZRqfdWkx+YdbjaiNHKESr0S88sU8sWYlhr2kcvGUkvCNoISDmkcgWe7lNfXRl9dHfXbqsgrqyIvroy8kBN1ISfq4koyUHH6rzExmt5FRS6ujKYPeRGJvrgy+uLKmHM5rw/nc2Iuroy5lEOGyytj6fDb6vjfVsdfMQYyvjLut5zYyytiLi+PJv+uiLmSE3vF+Pfy8ujqyIqYiw2o8VxOzPl2Hi6sjL2UE3E5J/xyTsSV1dEnjvxw1rj9+uuvZ8+e/fXXX8+fP3/hFdvFFt6uXLlSUVFhMBjKLl24Py6TepTxXpqmhkyt8bGFrsEotpUJ0KqVjtAGUKqVFK7GBZnu6pQ53h7pCjm1DlNHEJBt1UaCIMrLy8MHBiz2lBSmqOgeQQQEQKCDE6AvxNXvLRuSWvLTYaKFX8rV9F/C9vO+1jd/rjX5y4ukas07H0GGP6lWkbtkVLLs8XaFOatW8mWMB0YYfpxCHJnRXKHqx+lmGWZUnVhCHFtS9dUQ8qWd7dwb1l7sPzY/bJCPQCh0EwrdRCI3icjRXejgIXaUCB3chQ7uIjJIhA4Sgb1YYC8R2hsTHY2JxhSBvbvIQSp2koqdPIzHSl5k8xDbewptGhQEdlI3B6mbg4ervTFi/yLi4OFGpZB7xQIHsdBRLHSSCJ0kImeJ0ImKi4WOIoGjyLjXQ2hbo0Yvka2PxMFLVDO9RjZz+mjnKXxN8BLZS0ROYomLWOImFgs9PDy8vLylxs3T08vT09PLy8vbuPn4+FAR+q9XC2/e3t6//PKLUbVevD8uqzhdU5yuuZf+J9VKXyk7+IjB8ppfp1ilm0mvxlSUpr6rU63w8siQQ7U2fQj3mhLItZkNhhB/v4VS8V28/KauqR/0KYoICHQoAqZLTlCrMZUc+ZF4sUzGa35Z2m63JavWpP2kao2sV7WS7340aiRzfDru688Ml/IMv18jHt2w+FD16Abx4FLVyeVV+1Lai+pr73Yemx/u7srjctkcDovDYbI5DCbTmslkMBjWTKY1g2HFZDKMgYwbA7n3RYq1MRuDxWKy2Sw2m/ViF5nCYjGYb7KxmCw2iwwsJovJYLKYTBaLxeXzbO3t2FwOi8ViG+sw7mBW/zXmMWZnWFtbM0jDam5CiSQ2WeUqELJI81p843J5Nra2NrZ2fBsbNpvd6PrYbDZZAodTZwkkJBMQbDbHzs7B3t7R3t7B1taew+Gw2Ry2cWMZNxLdi40qkGGykZy5XM4r6jI1gOoF05Q64izmyVMnKdX6G5wDsAAAIABJREFUYEL2vQwtGUze2ornWi14VPRGqjXH22OwQgFfayuM/Yyq1X+Bh+iuFq9sreOBBQv+SqJpIFAPgZqX46FpJUcOQ7W22Qxh3bdXEoy+Vkq1hudS7tbqGcIid8nIJP/H2xW0ajVHBfLNcOLmv6oMla1wYTOLKvSlVadWVO3TmWNfWKL79+g8U9XKYnNY1kbJyGAyGEymFcOawWKSgckgFSrD2vplCplI6lcWk0nJTTabFJCU3GST2rOhG8OaqoHJsP5TYDKcBK5xyUluQgGDxSR1sVELU39JUWzNMA21ZTKbw07U6Oav2hQek8Dh1q0AG2pkA/JxOBz/QcHxqpRETVpMksrJxdUoLxtwZK0srkJRnELrIhDUWQIlRVlMDkmFybG1sQ8LjVQqNSqlNiYm3t7eicXiUHcAKK1qWnztFHtHp9CoOLGHtM666GN5PL6Hp7ezqxudUneExTx58qVqLc7Qku7WWjOE67mOYlf7JQDVahaX0VpGQLW23+8ULAeB1iMA1dpc2qNxz7Wqvr4Ut6/a1xqee95UtQaMm29UrX7tQLXeOtxxVCuhL4Nqba5vTUPK+ZNq5bI4PA4pQV9slAOTEq7WpAOW3CitQolVJpvFYDAoFxzbuLE4bGMgy6lb1dROZVixmNZMhhUdWExrFlmwlX+AbMGSJbKISCaL1KosJpvBZDNZXFIov1CtlNStlq9/LpzFYvkHBidr0iRSLybpn2zZjcvjDQwOU2cMH5Y9cdLcZR7evvXrwHqs8fL1n5uzISAotM4SjP3DYZGgeSwWx97eMTFRPnJEZmbWuHHT5rm4CKysjDcYrKs3KysrKkZ1H92JVD9LPH3GTJ8XEh5RZ120kc7OzuNmLEhUp9bvlWWxWKdOnSIfpTOuIUzNEC5OU1OzgjE3uPXGH20xE5JSrdWPSBkNMNWxf54hrFwBX2stedlCCVCtlv29Q+tAoAkEqOd3NPdSNfeHppf89KPBuLgj0TJbs/zEtfsZwoO/+612SPn2clz++dj8C7H5FyKrvawvn2uVjZ0ncpeMSPJ/slNpyG0Gb3BDFEJj8nwznIBqtUQnZ2NOhhbgcGSu0dfK5zg4O0qkUpFE4uTibJzdyuTwODb2NnYO9i5uApHY3dHZmcMjJxKzWAy+rY2LwE3iLhWKxXYOtmwOmc7nc51dnNylHu5SL1c3kZ29I62C+Hwbkdjd21/mLvWyt3eg0ylFZM1gMV4Ea1Ics1lcO4nUXyz1iYhOWrZyvX9MAtM4iZlna2/vJHISSGwdBRy+DaWcebZ2XBsbFofDYDE5PK6zq5u9owOTyeTzbQRCsVAkEYokNra2tPpisVi29jZiqdTD28fR1YGex8tisWzsbURSd3dvHweTdPrAGhEWi2VnZy+Werl7+9g7viyHzWb7DwrOnjpP6uNn2lI2m+3o7CyReok9PB2cHOl62Wy2k4uLp6+/2ENq70ils7x8ZYvWbguJjPXw9iXtdHZmsarnG3M4HAcnJw+pt6urgM+3JbUrm5TxTCZ36LCRE2YtdnZ2s7auvsVA32igby5wjBuPx+fb2Nk7ONk7OnvJAifMXhwWEUWJWL6tjZtA5O7t4yoQ8m1sqEQHJydPX/+ZS9dmjBonEIoFQrGdnT0FhMfjCSXuHt6+bgIRj8djczmvUq01JyO1haxqwqUdEwtfT6DI+Nhkw1VrhhIzhJtlFPeaQtpWtRanqm+oky/I484lx74q/CqPPyNP/kXR0iHpF0WSsRY60tI1ovzWI3BGKT+rSDLDcEaeaIbhrCLpnDzxXHL8peSEi8kJF5PiL6oVN77Mu3X7zs1bNbebN8m0m8at5j6Tz7dv375jshUYt8LCwtLSUr1eTwnh1/xaNWB3e1WtQ7+/NuTg1SEHr9aWrBnf/ab55kpM/rmI3HNRuecjq9dholTrhYjdZ2Rj5wndpSOT/J/tVJiJfqjbjGrVWtaAfrSELPC11n0atIBepSo6PD/CS+wYFBIyNDNr5JgJI8dMzRieKfX05nDYdg72KYOHpwwenjZkVObYGZ9ljg8YFMzjczkcdlBI5NBRY0ePnTxs5Bh16lBXgYDNZtnY8KNjE0dkTxg9dvLoMdPSh2W6kx5ODs/GLjZJPXrMuOxxEzLHjk8bOkLsLmWyOGQgtZbRfcpkM4walMFgO7kIVbqhWVNmD8nMTh85Zvk/dwwKiWSxuQ6OLvHJ6hFjpwwfP3nIqHHBYdFcvj2Pb5uk1ETFJtrY2jOYbGc3YUrGsIBBwUw2SyASKTUpqUM/Gzl2so+/P4vDYrCsmWyGk5ubOm3wqDGTMsdP+Wzk2EHBEVy+nTWX6yKSyLUZQ7PGjhw3QTd0pM/AIBaPR05JpuZIG/+S06eNG4vFEnlItUNGDR8/beiYCYMzs3wCAlkcLpPF5HDZPrLArCmzPXz9WBwmm0tO12VzeZ4+PoNHZo0YO3HU2KmDR2R5+/ozWRw2hzcwNGLo6PGjxk8bnj1enpLuJhAzmVxfWeDStduGjMgeOjIre/L01M9GObsK2CRLh/CouM8yx47IHDcqa7xaN8TZVcBgcq0ZLBbXRqHRjZ2+0MVNyGSzq00lHzCu3pjGx4CNz7hy7B2dY+XKEeMnZYzKVg8ZMWX+8rDIGDab6+jkHJ+sGDJ81OhxE4eNyopNlNs7OnG5/IiY2IwRmUvXbZ80e4kybUiSOkXiKWVxmHYODvEKzZDR44ePmTQsa1JUotzeyfHUz9W+1gcTsqk1Y02XfIB2tWDl/KaqdTBUa6tct9tQtRanqu+laY4kRI/1lqrEQpVEpBQL1e4inZc0zcdL7S5WigRKkUAlFlKRGn8VIkF1ELopRAK58a9SLKwuSiQg45LqYuVCN6Uxj1IsVIqFCqEb+ddYvlosVAtd1EInjdBZK3bRipw1IheV0E0pFChFwuogFKqEgmQ3N5VIqHGXaDwkCqFALRGrxaKXeYyZ1SKhVuimFbqaBDc1XY5JRCUyHisUpnl7aT3cVWIRGYyJ1btEQoVAoDCaoZaIq/cKhUqxoNmCkQCFkUJnLJlEZKQnUklEaomI6gISmjG/0kg+zceT7DKRoDrdSL46Q5MtVImFGnex2nhKVHeu0E0lESrFbkqRq8ZdOMTfO8VTbPwoIC2UiBQvThXSWjF5bhgjxrZQZtdvFdko8kQynockYbW7mDxDjEW92FUN3/jRTSFyo3BRFtJnoPEQsijqBGuGzjLaRpUvF7olC1zoLpML3eRCN7W7yAiH/KZQXUb2IBknvw4KoZvxhDeeNiY9TvExtrGaUnVHG9EZjxVp3CVqiZg8ySVibWJcWsbQjFpbampqenp6amqqTqdLT0/PyMig/6abbLWOIxOysrKuXLlCqdZm+cFrl6p16PfXhv3wb0q41lCtGQd+S/32avL+y1H55yOMXtbI/JfvayVfgbPnLKlaPYyqdZeylXXCm1UH1dpigu3NOsJCzTg8PyJE5jl19sJR46cEhoYHhkZOnrU4Qa6ytbNzcXWZNGvJxBkLQiKiBgaHT5+3YuSYyc4uzi6uLtPnrRg8MttvYGBUXMLiVZsSlDouj+fs4jxt7pKMEVk+soFBYVHaIcOlvr5MFstVIJyxeI0ufYhMFhASFp4yeLinrx8poJhsJoPFJmcSkyswMayZLHKuMWdgSOTkucsSlKl+AUHaISNzNu0NDAlnstiDQiLGz1gUnaSR+g9SpY+cNHuJyMOTw+Mna9IyJ8xwFYqZbPbAkLBp85Z6ywYyWExbe3sf/4A4uWrVxr3hUdFsLpvJZlgxrcNi4ibMWhgWk+ThG5A6eMTQEVkuQskALluZMnjStIVhMYleAYM+Gz1hyIhsWycn44RkUqqSD/SSi029VK2xcvWQrAmBYZGefoNGTZ4xNGsS386WwSKP8JINzJ42193b16hamWwu297ZZeL0BeNmzA+KiB0UGpU1abpCl8bh27i4CabOzxkxZop/UERIdPykeUuTNelsrq1fQPCy9Ts+Gz1WFhQSGZ80c+mayNgEDt9O6uM/dcHyYaPH+sgCI+PkUxesjIxJYHFtyPWvOPxkVcqYaQtc3cSU2GYyWQyjaGUa19eiJwaz2VxZYMj4mfOT1KlSv0GqtGFzl68Li45lMlkST8+hIzNjEpM9fWXJ2rQpc5f4yAZxuTyxu0dIeNTspeuGj5ssCw6V+vraOzkw2QyxVJoxMjsqUeETEJgyeOT0Rau8/PxP/nyqqqqq/PKlB+OrVasF6zQ0zZTAG88QVmIN4WYZxb2mkDZUrUXk63k1edHh3g521JJ4LDbLzsEhLlkVHhXF5XLpZzde3F7706Mc9EMNdIS6+0ZlpuL0nUQ6Qs1koSaY0Pmpn0Emk0nPc6Hy1/rLZrO5Lq7CwJBwN6GYzeKaTpmplblBCWKxJEGpcXRyql5W8MXjKlTJVNPoXU2v7lU21SjZ9NEeUyY0ajabHRgRIfX15fJ45AqN1tavKrlx6XSTmUwm9QyLlZXVi55lSSTuCXKlUCSmUqg1BWlWdFtMLacT67OHTc1PIh9iItfL4FZHqI/0o0/kwKSBob7K3nCf8S45i8NmGB+aogygLeTwuOTKlBzyIS7yHOVyqba/IPayLooSdcJTTOjvAp2JSqHZmizZWP2QGJtNzqyjNyoDVSbbuFFFUXEqG/1do4+iIgKB4OjRo3q9/jW/Uw3ebVGqNePAlfRvf0v55rf4Ly8ZF2Ei39RaI0C1NvjcaO2M8LW2spY+PD8iOjRg4aqNwVHRPD6XyWYKxBKxhwebw3Fydpkyd1nK0FHkNFEOOzI6fsTYSS6uru4e7ovXbPIPGMTmcHg2/JmLV48YO8XewcHJ2Wny7IUZo8b4BQa5e3qKpR5sGxsGk+Hk7Dxt/vKMYSMCBg70lHpIpFKurXHeqVELso1PrFJ/ScXHYsckKifMWujiKmSzOAODwpau3RIUHMbhcRPk2inzckKjEn0CguJUqYtWbwoIDmay2b6DQrKnz/cJGMS3tVGlZowaP9nBxYVykDLZLKmPb87GPWFRUSxyoSkrK8aAjBGjhmRNsHN2YXJ5Di4CT98AW0cnJo89btqscVPnDgqP8Q4MThuePXn2QrGHlHQFMxhWxo18yte4UT/NbiKRp6+/UOIukEgVGcPHTV9ACTkmm+HpL8ueNsfd28foUWawuSyBRLL4821KXQaHb8vkcoXuUomXD5vH8/GXLf58a2RsEpPDZ/NsB2dOGj52Kpdv6zdw0NL1W0Miorl8W56tw4TZizWpGRwbu6Cw8Hk56738AjhcG76d0+jJs9OGfMbm8ZlsljWbnazUjpk+31UgMi6LZW18Bpm8AlFXF3rSMJvDi4hNzJo6VyCSMplcLx/Z5DlLQiJjuFwuz95e5OkpknoKJNKI+OTpC1cODAk3PsjKdnZxnTxnmTJjCMeGz2AxrRhWTDaDb2sr8vQSeXgKJe6R0YnzcjbIAkNOnf75hWol33xTlPb6maWmygfx9kugtmo1bUsdz7W2W9VKGLfWvkA2tr62Va13tcq8qDBvB3I1eHI8zWJ5entPn58TGRvL4rCtyfXqX27U75XprxYdpzOZ5qHi9C+zqaqh4/SAmyqBHqDTBf45wmZz+SHRsXOXr45LUnI5Nn/eW/MTNS6vmWrymcXipI0alzlltqurm6lOo28mMhhMgUjq4x/sKwv1lYU4u4lqN9mkvPqiXB7Px8/X1t6udgmUnTQuFovF4/G9/AIGBQUHBQUNHDjQ1u7lczRUHc4uLtMWrR4xfpqTiyt1+atdbH3WNGAfeaPa+NwRVT7110iGlSBXTZg5Wyh2p/uLfDzJuI5GjbsVtEhrQIXkDCc2l0NLQUoZUmKVXsKDfFDJuMwkLWXpj3T+lykvbrPY2tr6+fkFGTeZTObs6kLWUu/GYrEcnZzcXiy7SBlAqVYGizSVHBK90NU2drZ+A4N8AwK9/Qd6+w/0kQ0SiMTUiwbofqGv8lS11tbWpj1ewxbTU5fFYgmFIonEg+oOvo2tr2wQj1/9iBCbzRGJJA6OjtRJS5XDYDD4fL6QTHcyXe2CPtPoiJub25EjR6BaX/paTScJZxy4kvbtb6qvr8Tsu0i9oLWGZIWvtbEXvtY4Dqq19VVrbNighas2BISEcsh7ygwul0sNLBydXKbNX6HQDaUeZuXb2ojEEp4N38vbd/n6Hd7evmw2m83hTJm7bPT4Gc7OLnwbm+DIuHHTF0ybnzNm2vy0zzJFHlIGi8nl8SOiYqfNnDdv6aoJU2epdRliqSeHyyVXVWJzjAsCk2/JqRauTFa8MjV72gI7BycWg+UXELho9cag4DAuj5eoTF+1Ye/i1V/MX7F23vK1C1aQAonD5zm6CUZOmJ6o1Nk7CUZmT4pXpTC5XBPV6pOzITc8OpbF4RiXR+YMHTV2cOZEnr2TFduWwbFh8WytOFwGjzNx1oKVG3YvWbNx6ecbFq7amDVppkDkzmRwTZ+5pUQs+QSsrU14bFLaiDFpw7OHZk+cMGvJuBkL7Bzs2VwWl8+R+vlnTpkl9ZUxWNbWTCsWmyn28Fi5aW+8XMVkc61ZLGs2j8nls7hcH3//xZ9vDQyJtGZxrVnctBHjRo2fQatWX3LWMXlvIHvaXF3GUK4tqVoXrt4glnqTk6vZvGFjp2YMG8Hm88mKWKxklXbsjAVuQjGLdGOTY0HjK4TISwx96SLvzrI4EXFJmVPmOjgJ2Cy+1Mt30uyFoVGkahV6SNVpaUOGjxw2MjNrwtR5K9aHkDOH2UyWlZOz84SZi1SDh7D4bGqutRXb2t3bR5UxbOjo8UNHT8icOGv+yo3+gcG0ar0/LhOq1VS2WXzcVLXWeLq1WKeyGNWq1+v/+OOPZhyEtfTFtW1Va2GKKi8qzNPe1pp8mxqDzeXEKbSzlqxxcXUzHXPTY1xTZWIaNx1kM5lManhNS1M6QoscWsxQaocqijTA6KeiXVWmQ3mjquRyuba+fgN1KRlBQSFsNpdBLpf/cpYNbScV4XA4VFG0cqhRoKtQuHzjHtXgkXYO1YN+yhJKwRpbwQ4Oj/hs7JTsGQtnLV8fFBnL4/FNC2l43E0knjh76cCQcFMPJHU4VR0Fh/Ka2trZyVMzhmVNnJuzYV7OBqE7uYw83VImk+no5BSv0YbExNjY2tKO1jqb2XALa+RkvfAZUnqV9ujy+TYTZ875LHMMj8enxSpVNf2XitAtNRVONWox/cjisLl8cv0FWhxSQpRaSJJyclKq1VTKvtSoRgcsLS9JSfnivrBQIp26IGfivOVZU+aMm71k5IQZEqk3qTzp7YW+/f/ZexPotqo037equm/3eu/e1e/1vbe7X3ffddd793Y1xDqj5nmeZ3mQNdiW5UGSZVnyKNmabNmW5XmM4ykzSSBQDJmAqhRQEKqoQEEgsZNUqEBVQkJMqqCABMjg5PU+xxYiCUMVIVDgs/aSt/bZZ59Bx+fs3/6+/f/IAvI2qKmPhNt76EwGOE1iIlL2wLLUSpK2UqMZnNmaGlzbFO+qb+toiHbYSlw4Dm6V3B8l+wtCEHRLal2uTBxM9n8KgiB3VXWqb5zL5RLaHAVz9z6iy88nKzDZ7NTgpNNdjWFY9v6nUCh8gSAzNlvkKCOD5+X+NNlqEAStUusJcjpr489O5k5tJdk19MRvan/6m/JHjzkePWbbByayrlLrV/1GvI3tr1LrnadWR4F+fP12i7UYwcDrV6bSqnVGBMOYHG7P6EyFvwE8Q4kINyCaKgIrNdrxDTtVehPwUKHSBic3tyR6mGwOEVuVKZQq5Hqjo8K3bvP9taEGCMNRKpXD48pkMp3BVOquWrt5Z4WnBkFxwtuIjJODLA9sAtMkWlJZ094/weDwKTBmKCie2LTTVFhMgRBXVaB3bEO+vVStM5ksRfmFNgaHC6PgpVdaHUj2jhsL7cmeIRVgRcB05FClSqvbcN++YmcZguHgtQSjDZF4Y7ybzuXdBeEMjkBvLqBzeHko3JkZTHYPGgqKlXqjzmxVag0YlUYga3b4EnRcyDeNRK4cWb/D39SmM+erzfnN7b0d/RMsLoeYq5un1BnimVG51gghKKGwjAklspltj7i9ARgDsCpTa7WmAhjD5CrV5OYHSsurAezi9OZkJgxsrQydKX/tpvu1RgsFQWCMGk0P1QYBtZoKCsfmtkkUagTBUSqztWuAsMFS11DuXgNB1TWB9v5xoViKojgEJJqAh3B2cJR8mYEhdpxmK61I9o0LxQoKBZMp1F2DEwV2J06lVtQEIu3dhnyLWm9wuKv6126wWO3gFQutYXM46ZHpyrp6CAODAjAK56GUmoZwSzKtNZmVWm1pdc3Y+nsN+YUvHnqJ0BA+dr49SoLKt57WVk/wrYA3KxdM8upnU+sZP6Eh/Jdma71GLGfPnt22bdsf//jHa9eu3cbX31fX1NdLrWdrqvfYC5VMOrBc5eUx2eyWWGddYzMwvRJPVAzH2RyuVKGQK1VsotMMwzCGYQwGGX0ahmGYyWIBsTcCcphMJp3OEIglMqUKp9HIuft5eXkYjoskUplSyReKgIsQEacahmE6nc5gMAQCgUwm43A4GIahKMpisajUZTsqDMM0OhNBMQhIEOBMFo/J4bM5AgynQ8BDGIAHMVhJE8vkMo1WKJXgNBpJgDQajcvlyuRyjUHP5nBRDMtCCkBrFKuqrZu850GpXJGlLwaDIRSJZEolh8tFUDBajKAogmN8sSw1sNZsdcDwxzY6GEEYTKZEIZfIZGzOMucDP2cEZrF5cpVSIpOzOVyS4UlqtRQ7xFLg1sTm8hAi2jkEQThxkRVajVgmoxLuTuRJIQhS0xAZmd0ukspJAiT5FlwyNofFF9FYHBgGPkfkFWCy2AKxmMXhcHg8gViMU2kkn+BUGuF/pBVIJDT6srGX2C9VIBZL5XIWm8NgssjrQ7yGqAKRWG808nh8jECv7IsWgmCd3tQ/vtZkzkfBjwJuGxqdJpMrdEYjny/IshOCICwWWyyTSWQyDpcHwBW88SAag8FgsXhCoVyp5AkEy+UQBUYQJocjVap0RhNPKERwjHQSZrBY4AclrJowhlIZDAhBiC4Ng8XliqQyBosllEg5fAGMoQTfInQWS6pUiWUyBpPUYoRIai12uugMhlKtC7f3+OoayZ8SQREmi03Ul9MZy9qNCAqEJJoT3fGeYYFYzGRxgGzkigMzg8PW6HRcoZDBZpO+wUqNJjU4YbDk0+h0nEal0mlkPD8gDMlg0uh0oUQqV6mZLDaMAKcGEIkdwwQikVKt5vIF2budyWKzuTyJQs7mckQyqVgioxKyi+5qT0fvGJcL7iW9pXD9fbv0BYUIgjJZHLFMOTy33Rts5vFFLDYPx6kYhrPYXLlKMzq3vdJfzxOI2Bw++btQaXQGg8Xm8iUyFZcvwjBcIBCs2lqBCFMutZIc2/DUb0JPvFqz/9WSR4/ZAbXeOq16CH91b8cv2fIqtd55as3Xy3uHx+vDUYlSKVdpkpkhb7CJRrj8pvrHK/31YMCPdFaBoDV5eWCe6ticN9Qs1+oLbCVjs9sqvHUYFUzRDNS3WKx2iVKjsxSOzW4jnFepQqnUG6q3ORxKjSbf5hia2erxByEUW0OB7s5bczclDyYFi0CIUWRNHmQqsqcGJ60Ol0iurqxtmNnxiN5cmEeB863Ojr4xS7FTKlcX2Epq65tZPC6EUPLgPL2lYGR6a0t7TzjZzRMK11DWUGAKk8MWSCTWktL19+311DUodDo2j4dSqS6PL9k7Yii08WUqt6e2uS0BxpgRtK4h3J4e1loKxUp1ictbXullMtjAi3lNHvBiXiZA4pUIQQqNbnzT/d5gk0KtlWp0jYmezoGPqVWkUMQyQ44qr0yrFSkVNBaHyeX3js9FUr2Eb4+hras71JJAqTSBWJIZm2lJdii1BoO5sHt00hNohDGazpQ/vvFeo6UIRnGSWv11DRCKKbW6zPhsVaBBozcVFDu7htY6ysqJV+9dEIpYHSXp0SlLYbFMoRQIxUR/aDmWLtHxAlrNFAoEI5ipwNY5OGkrqxAp1LYy98C69QV2J5XO8Dc0h5NdSp1OptKUVHoHJjeYi2wwCDN0N5PFau8da050yXU6sVyOM6gQDjfFUi2JbrXeIFUoyr21ExvuM+QXvvTyoevXr18+8es/EGpMi6sewt8NteRcWM3mSZ4nv+baWklqDVVVvPfee18v+4ERlkuXLl68+N57712+fPnatWsffvjhhQsXLl68eOXKx5HSL1269O67737wwQdLS0unTp3KZDJvv/32xYsXL1++TL71rly5QupkLi0tXbx48f333ydb+5LvxNuy+ddLrWd8VXtsgFrBuCcEKdS6FJBLcIB5DXl5EAzZSssjiXQ42Z3oHgw0tQlFYhiGFSptXVMr6bLIZLJqgo0GYlqKUqNvCMc9gcaGaEe0a6C6toHOBNLrNBrNXupuaU+3dfa1JLpL3NUYFbi8CsWyYFObr64x1BSJJjpq65sFEgWCMyt8da5KHyHDDjFZ7Ep/SKk1UmBEKJFU+2tDkWiiK6M1WGAIoDIEQQw2xxNqbu3qb+0eCLUliysqGVweimFSqcwfCLZFEy2JVLg9bSy0kgxGsiuLzUn0jka7enEanSzh8wXBlmhLoqsl2RXp6NGZTCS4UigUNoef7B0zWe2kCZpCoaAoqtTpAs2tLR09zfHuplhaqVGjGIagqM5gaIr1tMRTzfHO+tZ2iVwBwzBJrXUt8VA4Hk50N0RTMpUahmEqlWoutDbGOuuj7c3xTl+wicPjkSwKw7A31DI6t0NMtEAiK4PJtJVV+BtbmxPdpRVeHAcGTwRBbC53oCXelOwKt/dU1zW2tKfzi52A76i0IqerOdnd2jUQTmUq/SEWhwsol0orq/SGkz2RZDrQHA21JjUGCwwjGIY7XBVNsc5oqqcp2lFoK6ES9EsOraIoHmwOp3oyAoGIDDzKzi90AAAgAElEQVTOYDDLPf5YZ19bR6atPVNgc5D69jwev7ahNdKRaW3PhNt7jOZ84uJgvvpIY6wr0BILJ7ujqV5zQQGK4xAMy+SK5kQ6nOqNpIAURUGxjYIgVAbDE2y2uSpRHIdRRGcu8AZbUCpNpTN4Ag3e+nBb50CFLxhuzwTDCZzBRKm4Sm8KtbY3J3uaEt21DWEJYabOUisMwziV6gu1BMMJDKeRIfHqWmItiXRLssffGBEQk3U1BnOgKdo/uXF84866lnhNQ6vebEFxDMVxY4E12JpoiXc2t6c9wSaeSAijCEmtSq2O/D/K2ldpdHpNfdhT19TQliIOMi6RKyAYxnDc6XI3x7ta27tbO/tK3dUMBrDohiJJf2NrU6Ir0NxWF4kn0wNGSyGKohXVnvTQlFyuYDCYZquDpFYuX+itCTS2tM7s2NU9Mk0cZ0QqVwnF0ip/fbi9Z8P9e7tHpwPNsdqmNoFQCEFQibvaF2yubYq2tGeak0AIQygUrlLrLaiVsLuerPvpb6oeP+7Yd9T+6C2srCTHrlLrbXkRfhWNrFLrnadWhYhZZLMmegYbo+1tqZ5U36jelA9jGEqjRlN9dnflyuAimGIBnGwROL/QnkgPhBNdbR29geY2sVwBITCNxQw0RZLp/miqN9bVl+qfUGi0MIrS2SxvqLG9ZyCW6k31j7ZnhiQKVR6C0JgMDo/L5vI4fDFPIOELpXkwdlcexOYLQ9FUa2dPYzzZ2tk7NH2PQqNbQ6FwBMJQOBFNZcKJjlhnr6eunspkENrDeVyBMNo12DW41uGqxOl0IqQrAnyuovFoZ8/4+vvi6YFIe6fVUYLTqGKZMpxMx9PDbZ398fQQ2IQYrRfLFJH2TKx7sK2rP5Eetpe5MZwGYziLK+AJJVyBmCMQc4VirkBIpdHoTGZtS1tqYCLcnmmMd8Z7RhraOhhsNqFUTKGy2NV1zdF0f6SzpyEWVxlMKI1pLrIn+8ZaU+lIKt3eP64zF0IojuH0/GJHPDPcmkpHu3pa4kmN1oigmFimSPaNqHUmGMUgFAuE45VeP4wgVDqjwOZM9A7Geobae0caWxMMDg8GNmTgd0dlslpiyY7MULyrt8pXi+F0jEplc7hcnoDHE3C5fC6Xz2ZzYQTn8ER1LbHOwYlmIBzd2dbeqTdbMCquMZjiXZlEuj/akW6MxNoSHTqTGfhuUe6m0qhlnpqOvvG2zt5AY5gvEVIwyOosa8+MRpLd4URXXUtbvGdIrtGQHsIfU2vQt2qK/C5cgSypZo2uN5/1Yp2XZNdvDrW+++67P/nJT/bv379ly5bjx4+fP3/+2Wef3bBhwwMPPHDixIlLly5dvXr1zJkzjz/++Ozs7K5du86ePXv69OmxsbEzZ87s37//+PHjS8Ty2muvPfPMMxcuXDh16tSDDz40O7v+qaeefvfdd69fv/71Yvn169e/Xmol57Wq2UxiwghWXRNMpgf4QhEwvVLyGExme+9YONZhsdrMhcX+YINao4Nh2FRoG57eqjeYEATh8fip3jGXuxJGkXybc2xuR01TxFhgrfDV9Y7NqXQGBEM1BnPn0DpXXYvJ6nB56lIDa6VKVR5EURnMIzPbgq1xg6WwxF3VPTBRYHdRMFplfWtqcFIq16AIeCkk0n0ao2UNDDFYTJ3J5KrxT217sKjMBREzZygUit5SkB6fdvmCKmN+UWlFdaBRIFGgVJqnNpAeniwpK9fnFzXGOlo7B7m8ZQEhCIL1RnPP2LS5sGjZxRhGisrKoj3D1pIKfX5Ron880TvCZHNIOSIWm58aWGspdqIoMNhCEMRks+pbk+194wU2e6GjLNk7GgzH6UwGk82KdPS0900Y8q1Wh7NvYn1LMo3iGFcg7BqeiveMWIqdhXZn7/hcdaCeSqcJxKLWVG+oLaE1mOwud3p0xlFZhSAI6ffrCTYT1Kok+ZwwEaNimdxSZO2b2NgU62SyQLw6BEFqw23R9JDLF1i39aGKQCjc0Rvp6KXSGGyuINASq/CHlHpDhT/UO7kxv9gJI4hAJM2Mz3kCjTqTxRuoH9t4n62sAqC4Sts9PFXhC2iM+d5gU0dmUKnWwgiYnQRBsFSuTPcP1dQGcBwYwyEIttmd/WtnXTUNarPd35Jo7xkQiSUwgnjrmvonN5dU+Uz5xW2d/V2Dk1Q6HcWpXUPTo3P3OkrLTQVF0a7BzNgslc6AEbSmPjyx6QFriVtrLnDXBt3+WgjD2Fxu19C6xlgnQqXCGFbmqe0ZncUZzEKnq2toqtjpivcMN8e7q/z1o3M7mFweRyCMdPRG2jOmAmu+1ZZID7prAhCMiCSKntEZm9NFWMKRqkBDMJyg0sCPVVsfrmmIGCwF9jJ31/C6kkovgiBCidRUUBjvGepbu9FZXm3KL+QLhRQYorOYtY0RbyhsAFqM5X2TG21l5QiGKjWa9NhMWVWNWm9S6QwKlYbJBL8Lm8vJjK9vjHVqTZYCq61nbLbSH6TSqEqdITM2U10T0JssvsaWgcmNBUVFVDptYN2WYHOrN9iYGpgsdpZ2DU35G8J0BqOi2jM2tz3UEvcEGsLtvet37tYXFDKYbLPZYrc7xjbsbE6kTQXFelM+ncFisjg6o8XlqV27aWcokjQXFJvyreToRlM0lR6ZKS51m4ps8cxw18g6nV6/Sq3L1Jo1sa7YXU/6f/qq6zGSWo/bHz1+S3PrJ6j1oaqrezzZdIeZ4fN395OWpd8eWLryEfle/IzPr/29+NkQSx7e5x7kKrV+/i1xW9WMnx0tlvAwjIqKpRKNTqvWaGVyBYrhMDFnlS8QIRgGlOTgPDC3EfhJrVmz5m4Uw4UiqViiEIllGE4DBjzKGgRFMJwmkcrFEoVQJOMLRGQ5jMIYTl0uF8tpDBbgKzqt3F2RSHa0d/UkugcSPUPJ9EB1jZ/Qx4MFQrFOb9ZojVKZSiJVwAi2BgAzBcGpar1OazYqdRo6m0XM+gA+vBQE5onEAokUo1EJ3+A1JEVLlAqRQiaUS0UKmVghJygXyoMhGout0hm1RgtfJM46dMEIiJuq1Bm0RotALCHKIYFQ3NbRE031xbsGEt2D8fRwpKNPa7KAoX0GXapUa40WoVTGEQgJwy9EeghTEAqNxRRKJWK5TCSTMjhsUtRBJJPK1SqFRi1RyAlNY0oe0E7Oo7GAA5hIJscZbAqwOQOHMaVKDfyCiEUgFIOpOAiGAtClSaRKkVwlkMgRKp0CAQcqGKbACDCiUpnAkUkkk0llCpzBKCopi6UH4pmhRO9wonc42t3nrg2gGBVDaVyuQCZXy+RqvlDCF0uoTHA9MSqdLxKrdHqN1sjg8IQiCYxTiUk+d4NfE4ElCiWZqCw6hFAwKs4XiTQGo1pvoDJZYrmCwWblaAgDNabFVWr9bthas4z6adS6GFhG1nN13m8OtZ4+fbq6urq0tLS9vf3AgQOzs7NOp7OhoaGmpiaRSJw5c+bdd98dGRlxu92NjY0OhyOTyfz85z+Xy+XHjh3r6OiYm5v76KOPLl++PDs7Ozg4+NprrzU0NFRUVAaD9WVl5Tt27Lh06dJnvxzvwNqvl1rf9AMPYQWdmofALC63d3y9t64RpxEBtykUFoebHpqKpYcLi20iiZTJZtHpdAgB1Do0teVmai2wOYemtgIhehDeTJjMjOS7vQgVL3KWjW24t9hTp7GVFlfVZiY25BfbQF9fZxxct7nA6kAwlM7h+1vbi6tqIRhVqPX9a9fnF9pxjGF3Vca7esUSYK4kyU0slo5t3FnkKodRYGtds4ZiyC/onVxXU9+k1htpLDbOYCJUHMLwtu6B9Mh0YbHLXFjqDjT1TMzJ1BrSQkil0b31LdGuDJPJJikUgJxEyhNLEBodxqnFFVUDU1tFMs0aCpiCyOYKkr1j+baSrKeuQCDoX7vRVlEBjgqBZWqtsaCIzmTwxZKu4WmN0UKE30aaEt3pkWkqncYTidMjM3pLIWHuw2Pdg8neMRqDrtDpuoanNHo9cI1ms+Ldg0D2D0U/ptb190oUKtIXl5xUQk4AjnRkGts6SBkeBEH8LW3BSFKiUKzd/IAhv7DCH4r3DDOYbIyKC8UiDp/HYDGlCvXgui2lFT4EQ/XG/MzotEwBhg8UKm3/5CZbWSWC4tWhhr7JDfbySlNhcXl1zfAkgBwYAUrFKIqXlleOrl2nABH4wNuQAiHRZCrVN8ADpleEwWTbS8u5fD6K4f2Tm6NdAwzgEwuE8Qn2VqEYtXNoCugjgpcaWlZRObHxfjqDSYHhupb4+MadxeUVIpmCxmBQ6cArmMPnk9SK0mgIjpf76vomNlCZrEKHq71vnCeW+BvbPMFmpdYwNH2PSCyVKjWZsdnapqi+wFpocybSA8Fwgs5giaSKnrFZoOoPpuHgnmBToCWGYlRyNIHNFxGB7oWhtlRVbQNOeKcDy2drEsxrZdDBnYcgd625G8VBCHQmV4BgGIPNau3oqfDVojiYTzQwvSU1ONma6g2394QiSbXeRFJr5+Ck1VmGEI7BNQ0Rf1OUzmQWFDszY7MCgQBFUQaTMTy7o9wbYLCYA+u22NwV5iJbW3uXQCRsDEcDja0MFtNdVT299UeESMdE5+A6klphBCFDyg/ObK2oCZLjKdlpRxKpfHh6i7O8GiUc3Ulf8eZoKtKRoTNYMIw63b7Zex8pKipapVZArbmJpNb6J1+r/vGvnfuO2oCt9QtR69s/qjp7X/XvtnveuLf64i7vlT3eO4wNn727y4/X/+7ggwsL80e/wLJwW5cvsMM/ocrNh3b06NEbCo8eXTg2f+i9p4eX9tV89mVZXXu7rgBJrSgKIQhIwAUYBDUFCULy8hAiA+dBcB6EEJ8gruqaPOhuCgQqQEgeYe0kSmByW6ImsSpbkxTvIeqTb3MKiiIWi8Xv9/vrgr5Qk6++xRdqstodCAoekYRDFpiURLypwfc8OI8C3Q0heSgKYyBkLABpMGkUvpsC3QVWEQcJg4O8G4LvhpE1oAJEAW7HYJ8U4OYM6twNKgPM/vwFgmEWm+urbaypawnUR+oaWmtC4Up/vVShAphILMQ7FWAjeLeClAekpSDg9kYePzCEArdc8JyH8ygoBUIpFBRUBZWJaD+gIQQkKA9UAVFsQHsgJBCYRpsHgu4QMYJWLg2FmLSKwgTgEkpWYGMEKPiDoQViYgzQH8RxnaXQE2r21oe99WFfQ7g62GSxO2EEgyEMoqAQBQMJNAN+SGJDoC2xhpKHoDjRIAzB4M6ggB8PTBUGuyAOnVSwIEtgGEgyEugMyPpXZLzW48fOt69S63dRP/kvi1pPnTpVUlKyf//+q1evzs/PG43GycnJEydOHDhwwOVy/exnP3vhhRd8Pt/BgwevXr367LPPtrW1/fjHP5ZKpSdPnty1a1c0Gn3jjTfOnTvncrl27969ceNGNpv92GOPvfrqq5s2bZJKpYuLi587XHv9K16+XmoFtlZHkZrNhFAkv6h4cN1mQ34hqVIDYonBkKWwMNU/1jO0LtQS9fjrhCJRLrUCx1eBMNU7VuaqgBA4v9g5MLlZqdPBKAKotXekoMIL41iR0zW3Y/f4+h3D01sGpzb3r92ot1iAEIPeODC50VxQTIEBS2h1eoVSBUTyubxoR5evroHB4TdHk/5QM4PBAY8y4vUjkUjHN+60ut3A7YjokdPZHH9Dc8/IeFtHusoXsDrdOINBQbG27v6pbQ8Pz94zML25b2pTND0okgFZIyBCIxDHuvvKqr2kuhIoQhCtOd/h8hXa3QX28lC0s2/dZqFUDZ7vFAqHJ+zon7AQPrck5X6CWgk5WXKKo0Ai7Rmb0xgtpAm0PpJMj0zTGHSeUNQ9PK01FRBDmXBbqr+9f4JKp8nU6tTgWqUaaCjiVGqkIxNuz2BEPBsIgnz14eGZbRK5khyWJiWRSGfdSEdvllohGK5pimSpVW8pIKmVyeIw2Ryr01Vc6raWuMo8/vFNO8ur/QiGmvKLesdmFGoN8WNJ+9ZutJVVwghWFayf2fbI6Nz2oXUbhtfO9o1MWKw2FMPz8igMJrupNRaOxul0MKsZzG2BkESqO9U7wOXyEcIeC+ZPglcTOrBuS1uqH8VxCgTrCGqVKFQ4ld45NJXoGQXUCiOuisrxjTtpDCaEICKZojne3TM2G06mPXWNpsJiIOjI5XYOTjbGOlHqMrX2jq+nMlkF9rJ4zwhXKK5tbPMGW5Raw/DMNr5AJFfpeifWj66/d3Bq68DUlqGZe6pq63EqTShRZMZm7SXlgFqpuDfYHGiJISjOYLHzi522skprSbmjvLqjf8ITbMaI+c83USt4CzM57EJ7ib2sosBeYi+v6gJG6VqcRlWo1V1DEwVWK4vDpjMZdAaDvDPZXE5H/0ShvYScziqVyTU6I4Zh+cXOrsF1fD4fDG1g6MjcvW7fMrXaKyoNBUUktYaaw7UNESqdVuHxpnrHOVwejGIGi3WFWoF7PIvDIai1DoSqIhby9hBLJUNTm+1lleT4AnnbN0dT9a2d5NxmR3n13H2PWK3WVWr9GFnJYK0ktQafPOkGYVqXkfUW4Lr3mG3vx/Faw27t0a3e+0YaN/SHdww2nNhS+eEuz9IeXxYJSBts9uudz7zzo6qZVFV1dVVFzlJeXu52u3MKlrPuCne5+/PTzRvesqQ8Z3G73V6vNxAIVFZWut3unDVfNEsecHV1dVVV1ac34qquLHt6rOzSrm92EN3bau288zdV7h5fmixxaJgaEa4R4hoRVSPCQF5M1YipOikdZES4RoRrxdQbkia3RELTSWhaYitQLSd/Q7lGTFeLGRoJUyNhqiUMjYShEdMNYoZRzDSImQYRwyCi35CMYC1DJ6LqxCDpJTS9hPaJvISqFeMgiXAdkQdrJVQtOHKMTFoRWKsRYSsZmkb0hZJaRMsmcPC32IquEdK0QqpWiOcmcMCijwv1Ylo2kavIT72YZpDQtUKc/KoWoMRlRLUSVCcBZ6ER41oJFSSQwXVSXCehqcU0lZAtF7KlArZUyNBp5AadRq/XaXU6jVabTWqdTqkzKLQgyTV6uUZP5lVag1prVC9/GtVavVZr0Gj0Gq1Oo9VpgaFVq9Es57U6A1GiV2u1Kq1WqzeSSaPTq3U6kLQ6NcjrNXoDWGUwvnz4MJgrePzY7ztii6GaVVtr1gj5Hcmc81ff8ky/mbbWU6dO+f3+X//611euXHnssccEAkEkEunr6+vp6bHZbA888MBjjz0WDofPnTt37dq1jz766OTJky+88IJEInnttdfm5+c9Hs+TTz65Z88el8t17NixUCjEZrOTyWRfX18kEpFIJEePHv2OUyupIaxk0GAMDSe6Yl0DPIFgeeAPCMagLA5bpdXo9EZHmbtvfENdYyuK4aZC2+C6LXqDGYIgiVTWPbC2pKwcQuACe8nw9D0aoxHBUIFI1N47WljpQ6h4oaNseHqr3VWh0unVBpOpyMoRCCgwpDKYBiY3Gi2FpGgTSYOkE2xpeWVHd3+BvbR/Yl1+oQ1FqQgCLKswDIvF0onN91vL3QiGk4BBZdAlUrlCZzBYrG5fIDW0Vq7RQRge7uztHJo0WApUeqPSYFQbTcCsRywag7E906/SG1dspzDOYHeNTHsbw2qTWa43+Fra+iY3C2TqPCC/BLG5go7+cTPwrQVsAEHQJ6kV5gqEUrUap1EFEmlmbM5ssyMIAiNwY6wzNbCWxqBz+ILu4Wmd+RPUSmPQSWpV64DrNYPJjHYNtCR7suBU0xAZntkORmMJ3SNSzpeUnwW21miKtLVCEASoNfwJW2ssPcxgc4ocZcm+seKycpXeUOR0Dc9uK6v0wSiqUAPAMxcW05lMc37R8Mw2uwtQq7u2rmd0Nt/m1OgMBrOloNgGAraBcVtIodamenrzC0HENWIEAYzCxto7u/qHQKAXGKXS6Fq9EWgaIWjf2s3RrkEyb7E5hme2CSVSjEpLj8wmM6N0BhOCkbKKyrH199EYTARFWCyWTK5Q6vTGgqJIqq93Yj2dzWZyAPU1xrpID2GXN9AzMoMzmB9Ta1ObN9Si1BlGZrcLhGK5SpcB0h4tamO+UmswFhQBqS0YBtQ6PmcvLSfEvRi1ja3+plYKhBjMhfGeYburUmM06/OL4pnRT6NWCAaRWo0FRYnMqK3EpdTrNeb89r7RipoAjUFXabWpgXG9yZhFRDL4MJvLae8bz7c5s+JM5O1nKbKnR6ZFYgmYlc1iDs9ud1X76UzGwLotzsoqY4G1NdnJFwlDzeG6pjYqnVbp8Xb2j5MBe/Tmwk9SK5u0tWZ1sMhdiKWSgcmN9rKq3OCuhK21l0ZnQBDsdHvmVm2tjU8sawjfaGt96vXaJ06WPXbM/ugnqHXFT/ho1e4j3t2Hq3Yfse86rE+OiKXytlDpU9OhTEc0Ho93JNoeX1v3/sOeq7t9Kw7D3it7l1NuR/9O5hd3uFtdSpy6/CSFYQjHYIVCwuMzCEsO+YAFn+Qgxxf8RDGEzqLi+Mca1uSGy+VUUE7elOQnDMMSicTv9/N4PHIMj6yfW+dz86T+tVgsptOXZQlu3CQvD8fy9nWaV6n1jt1j7z1YfXyudGG2ZGG2ZJ5MMyVHZpzzoKR0fqbkyLQTfJ0h1s6AQlA+S9QhClcqgwqg8jRReaaE3IRsliw/MuN8Zab05dmyw3Plh+fKX5l1HZope3mmdH6ufIFI83Ou+bny+TnXkdmy+VkX+DoL8kdmXaC1GeeRaccR4nN++QjBYZMlR6Ydh6cd8zNO8lyWTwccOXEuc8ubk2uPzJS8MuV8Zcrxmcl5eBqk+dnShbmyeXAYpUdmSg5P37ghqDZlPzxlB4e3kg5POw5P2V9ZZ7tx1czyKRBXFRwbeczZykdmHPPTjoUZx8JMyfy0Y37aOT9dsjBTcmTKSZSDz5cnbS+vcx6aKjm0rvTQdMnhpx48cvjwPLEcWVkOHz585MjC4SPzh48sHJ4/evjIwpH5o0fmjxGfRw+D/NHDR1ZKjhwFlQ/PHzmyMD9/dGHh2JEjC2QJWXj48DzZ1JH5o/MLx+YXQDugZSK9AtYuvHJ4/pXD8/MLx0h9nY8Ian1rlVq/Y+7BbwW8udT6pt/zO1/VYi2wOX+TqZWcnvr444/r9fpdu3a9/PLLL7744u7du48dO/bUU0+1tLScOXOGFGo6duzYc889J5VKX3vttQsXLnR2dg4ODgYCgcnJybfffruhocFsNj/zzDMvvvjigQMH7r///j/84Q+r1Ao0hBk0Dp/XOz5XUl6JEn0PsgMgFIkaWpOO0jKJVKbXG9JDU5GOXpxKV6g0mZHpCo9XLJEW2Ur6xtebLMBCW2Bzjs5uL/P4+CKxqbA4MzarLyiCUMRQYB1ct8XocPFEYo3REmiKytWavBVqNRdYgS8JQWUrvRdIqdalhybSw1Pdw+MCkQxFcAToBOEcPt9QWLR264+qgo0CsZjBYuZBcEGxrSnSpjGYeSKp2V7WMTSpMlooKBZsae0cmlSq1Ry+wOJ0+hrbOFwhGSu7rqk5kmzn8PikRyUEwVyheGLzAxWBep5IxBeLQ/HOzNqNfIWGAiTfKSw2N5oeLK+pE4ilXB7wtuXwuPH0UGO8UygWiaSyhmgKBBsHkhC89v6xxniXRKFS601dw1P1rQmMipPUmrW1tqb6kr1jxLxWSSIz6vL6xDKlId+aGV9f5Q+QdjMgn1PtHZnbYSm2cXhcFptFTFFBmCyWQCTsHJiMdGTkKhWLw4YQuKa5dZlaNz0AbK01wVh6iM5ml3tqO4fWaY0WLk+QX+wcXb+j1O3FqDiby0/1jca6h8qqqlo7eie3Pmh3VSIIWmC1d49MmwqtPJ6gwGpvbI1L5aq8PAqCYE6XO5HqFEuk5M8Epr/AaHVNYGB80lRg5fCFTndVoistkcphBGsChtM5IkS8ytcQ7lu7icli41Raz9hcPD0M7KswUuquGN8AqBXF8erahvrWdqlSLZBIvaGW8Y33cwQCGoPRFO8enNoqU2n4YkldSzzcnkGotI+pNcdDmC8Q8UWSZGbUG2wWiiQCkbCqNlRkc4AhBrGsZ2y2yhcQCoXmfGtqYKK0wkOBoGKnq3NoUm+28AR8uVrT/klbq7+htaNvQqUz8AR8Kp0GIXCRs7xzcFJnNHF4XI2pIDMxV+mvw2lUlVbbOTiuM96aWsmI67n9c41OPzC5udheIpFI8u2OkZltVkcJjUEfnNrqqKw0F9laYu08gSDUHA62RBks5k3UuktXUEg4i0FUBr1nbLamPiIQSbg84HK8/M8rFvVNrK8ONAnBHcsnSaQ5muocnFRo9CKpPNTaPrphh0arXbW1Altr/ZOvZsGVkGJ63bf/N4R6MPANzk22fUcrdx/u3XNgxwMPZPYcCOx+qaB9xGzRb5wa3DjYEo/H4vF4MhHd3B85s9N/eU/N5b2+y3t9H+3yvfeg572Hqj7c7b265+vxWV3c4Y6UKVBs+RaBoDyZlF0b8IglIPDXZy9UKjV7b+XWBP9dco4tpOfJbmxEIOc4mowCJZiDkVUhJ0MJ+3y+TCaDoiiKYVqDXqUGwnTZOuS/CrmXbGFuhlDDw5siremBIfAuIQKg5VYA+TV52Cq13nFD7soYzcezu29ZQoL01b3em9cuEYXk581rc0uWG1mZSZ77lcxf2+e7tm/Z2YHMkJ/ZRm7YS3bX5Oa5X3M3ubYPDEXl1PlCEwGu7vEt7am5Md30A13bW3Ntr//qbt+1vf5re/1Le8DX3M/cr9f31WbTtb3+6/tqyfbJbVeOuZo82iu7QYZM2RO/vKvqyu7Kq3s9V/dVL+3zXn3Ud+XswatLV5ZygnBcW1mWlkCHOTdd/5Qlu3Vu5aWl5W3Jja5du35Dyac0BuRnPjp+7A+pxCq13tLq+M0pzJVQuiH/Zx9kLrW+5nH/yKB72GJ80eUAIVtXGP4sEfnmm6AhfOrUqUAgcOLEiaWlpf8Y+SksLNy0aedi1ZYAACAASURBVBNpUI1EIgcPHjx06FBtbe1jjz32+uuv7937aHFx8b333iuTyV5//fWrV6/+9Kc/tdlsGo1mYWHhypUrO3fulMlkP/vZz06dOvXQQw+Vl5cvLi5+7ZFd/+PUCrXaManobM2tzeB/9m/9uRueq/OeranebStQsuilbnfv2CyXkJxZk0cElM7LYzJZDW0dQ5ObG2PdwKM1M6o3mECHAccrakLtPaMN0a5U/9q2ZBeDCQQCSGrt6Buvb+vs6JsAJjUOB0ZhJoftq29JAp3znmj3UFOik8nj5UFrpGptPD2k1hmz1LrSUaHgNFaguW14an11bRDH6AiCrcmDdEZLqLUj0jUwtun+tvRQqLWjsKQcpdHlGm28uyfVN9iU7OoaXtuczHAEkjUwJFNroj1DsZ6R+mhX77qNFbUhOqGRI5LJB2e2lPtqyWCnhOkSpjLYwbb2gemtobZka/dAS9dQpHuAr9BSEGzNmjUIRnXVBNu6ekNNYV9to9YMBBSsrvKx9fdF2jMtiXTv5EZ7BZCkwqh4QUlJZu2GRGa0a3iqc2id3lIIZKuEonjPsNpghonF3xCpbQpT6TScRi2rrhma3hZJ9XePzCR7x6QKBWmyg2FYJBa3943He4ab4l0un5/FYfPFYm99S2Oss29iQ/fwVFO8qyIQ5PAl1aFGT12zRKFIDazVGM3FZRW+xjCNzpSrtD1js9HuobpwItzemxmfKy5xoxgYAjDnF7YkusCq5paR9dtJaqXTmYFwtLWzP9DSmurpbwy3cjg8CgXCMGq8M+0LBElJYdJ8QsQ94sRS3bGunoa2eEfvQG19PY0BxL24PEFbZ18sPRTvGUkNTBYV22AExqm0xlhXJNVHpdHzKBRLfmHn4CQw/SGAYLuHp2PpkeZkJtW/tjbUgNHpFAQxFFm7h6cTmbFwR39qYFKpN1FQEHivMdbJ4guq65pKq/0ylTaZGaOz2RiNVlrl6xpaF2ptD7V2JDKjlsJiGIaBSlNnb6J/IpLq7xyZbkp2CSWyPIgiVahj6cFYetAbbGpJpuOZkXJvgIwuC0GQUqtv75toTnQHmqNaowlGEblK3TGwNtk31hBuTfaOdfRPlFZ6MCouUyobYimpCpjESSsr+cnksOtb2/XmguzkUvIOpzMZ3oaWnrH1bV2DQzPbQpF2NocDQVCko7egpFSt1QYbm/hCga8u6Ak00pkMp8sVTvYwWEwIAe7Wqf4Jld5Iho9CULS6tiE1AELFNkRTPP7yQAyO4+H2nmTvaEM0VdcS5wn4EAQ1xlJDM/fUt7U3Rzv6JjaU+wMikWiVWm+i1qdOhp56reonJxwg5s0nkNWx71jl3sM9u59Zf+994xOjW7du3bjz4dG5zUNr196zaW6opzUWi8ZisVi0tTsafHayYvGBmvd315y5z/uLqdpdA7VPrQ2ev99zZcUAm+343pnMMrXiK9QK55kskipvGeEJkJf1dcmFUjIPQZDGIZOYOGB23CcXCKKwhQydU8YS5Ng8idlqbCFD65CyhCDWVnaBYZjHF0QS7VWeGhB+m0b3BesDDc1UKpV04chaeskH5S0/iX9R2O3xBhqbRTIQFoxsn6y84vBAwbG8vZ35q7bWO3N3ZfeS5aLcklwCzCITSVO59XPz2c3JTBYUc+tkKTTb5s2VsyU3tJD9SmwL+DnbCLmL3ArZVUt7vbkwTJbfcKi3/rrHR3he+MCsgWWC/Xj6QPYgr+z2Xt3tu7zLc3W398pu75VdXgJ3wSbX9/lJpl0CZFsDPvf5r+3zX9/nJ2YigEJQDgbFasi5CcQpeJb2fszYuceWPc2rAJ591/bWAAZ+4/nrAFpvETryWs5y/TqASfIzp3i5JLs2W4HUfstucv2m5eY95pZc/vXxP6TibwV9i3WrGsLf3NmtN5Bq7tfPBZJPq0A2QkZw/a23sk8kZP7LP7mQu7YZNC+7S97wVb5ZU3XGVzGrlIaqqu5M5Bvyhs/ewrk36htvvBGNRl999dXr169/+OGHjzzySDAYbGlpqa+vz2Qyb7755oULF+65556mpqbm5uZQqGHb9h3/gbImk+n06dPXr19/6623qqqqmpqaPvzww+vXr58/f763tzcUCjU2NtbV1e3YseODDz64+Z8reyR3JrO0tGTVaodlojN3nFoJG7tvt63QLBJ29k80RFOE6+Byt5scuWZz2HqDwUQsCoUCJiKEUyAKhuN6k8nuKCm0FnP5fKBgD0Fmq31oaqvVUWKx2QuK7YR8IAoBLTqEyWYrjPlOl9tstbMEQgREls6j0mkStZbQloc+aWulwDAiFsuMlgIuVwCm7AOzHsITCgwGg9FoNBCHZDAY+EIQ8BNBUZFEqjUYtUaTRq9ncjhrIMoaCEJwTCKTFhbbHGXlKq2ZARAagRHUXlrdMz6rVGvJ6aOkuBFgGz7fYLIWl5XrLVaOSCpT6mkfh6VFmTyB2mA25luN1mIOFzAGBEMSuaywpKzAUaLSG4ANA8gnUIjg6hqDyQhCjwoEoCYQAcIkCiVOI6V3IYFEKlGoyVV0Bl2mAvX1JhOLC8LSZDuGCILwhUKl1qDU6uUaHYIgdCZLodEptXqNwaQ2mFR6o0Kjg4lqbJ6ARmOodAYOh8fm8oUi4ICKIIhMpS5wlljLXDKVVq7WsoC4PYJiKJVOZ/N4bB5Pby7om1hvdZYjQOEH4fIEFqvN7iwpKCjkLh8PJJMruwfH8wuLVvqE5LGDH0YgFBUWFTucJQajiUaEEQIh2YEil1hjAJq6MpUGBI8l5ruK5UqpUg0T+s8cLk+h0QGBBnAxETkIlm7RGs1ytZbJ5UIwvCZvzRoIVukMFiDU7FRo9YROBoXBZIokQK9RIBJzBEKUSpOpNBCGAdlCGk2qVFtL3FZHmUKhJO1DOI6rVCqj0WgymvR6PYfHJQQpgau3WKYotJdZSysUGp1IIuMQZkmyA49TcZXWqNab1XozKAcSI7BYKiuyOwucJQqNfjlOLIqgOC6RK2kMOoX47chfEIQXotOkShWDycglAmAZolBoTKZKZ9IaLWq9icFkkldVodZxOBwmkymRSFAU5fEFwEyKYDy+QCgSE8HeEZxKU+uMGE7N7oXOYGv0Zo3BojGYWWw24c5NIehAqNIZNQazSgc84SEIaoqmmhNprbmguLRCbwEqxEKh8Je//OXS0tLtetx97xMNLV2+9kxHtp90ba/nWo6NIlt+hzNvP1A90lrmqq70b3zklh7CDU+9Vvvka67Hf30TtR517jvauueFTffvzPT3dcTjnR2poYGhibVrxycme/t6E4l4dHlpS8baRjvqt/U3PbauflOmvr+9KRWP9HVEfjEburz7xt7qnbkCJLVihDtNXt4aKhMp9mnlFgEIHgkCXUKEly/58MnDGShGA6KjGA1l8uiFNVqjW0Fj4zgDA4KlYPASwRkYlYXR2DidR4Wx5ccWiiNUJiinkuVE5ewTjUKhaI2W9v5xjcFMoVCoNHpjrLOta0AslYukci5fQEYnI1TaOUwWm7zLcRxncbjk2A+DyeYKxFyBVCBVCiQynAZUZ8k3EJPDFYhlYpmKxeUDeVScsqurYJVa78zd9Wl7uYH9yGpZXvq0rf688uy+yEyWb7O7y5bf3H5unWw72Wo3l5CrcsuJFm5Bv1myXa68x7tE6LTdsO3NDWY3zGZyNwH1V/Tebiy/yYSbPZFPy5Aofm2f7/obB69du23vg0+8Dr7El0u/Pv77jvhbBLKer/OdX2XXFTPjp8HeN7N8kfTsDXjO3SqRa4Hrb8BD5t+q84HwNgHPuVrPmzVVb/o9TzistH/5p//zr34A/fe/r0IoD5r0L5fZf1vpmlVK66u/cmq9lrOQMWCuXbtGjsiQMPnee+/96le/evvtt8mKH3744bFjxx5++OH9+/efPXt2aWnp6tWr77zzzi9/+cuHH3744MEXLl784J133tm/f/+FCxeuX79+5cqVX/7yl6ShlWzhnXfeefbZZx9++OHnn3/+BibPHsuX+Mf6czZdWloqVqsHpcIznzLl+Cu99xYD3j2OYodW19TWbs3Ph4lwk9kOBrSyLPdjCNU3UvttudNPrAB9BjC2DpmLHOnhaZVaRwjOr2z8hf+SPXuy+g355UP6zKYAMS4PuX+iHpi5iiLZBGFoZW1ddaiRRqORPaLcfX1iy5Uv5N7Jb8DZLYcqyXNfQ+rhLR8l+HPzVcpZuZzNI5QAs+WfscnyqpX6oIuZ+1uslGeb+uwMKUGIIqhGb6ptjoViqUh3fzSVkSk0QPAeRoA0MIIhxAxesikYhktKygLNbQKh6LMb/7S12RuGPPJstWx57kW7uU7u+Wa3vWGTbHkeUKQEgorZEjJDaCzeUAaGW8j6pDDjjauJtTc3RZTc0P4NX0FLuYedPdOcw/vEJrc8vJV7kPDGJrTHKITMZvZoiXsYjE4QiVCeJKMOLjtMAp3G5dOHoLrmqL8xhmI4gqCkvJlAIHj++edzxwr/nKdYzjbfAmo9GXzytaofn3ACQ+uyrXUl5s1CyaPHOnY/v3HbPanOzmQsHovGolEwkTUeTwATawx8JZd4LJqIRpMgtSWi0Xg0Go+1pZLx3eNNl3d9IZfCT+tf/tnlWVsrMZs/T6BkOQN6OhdDUTBaJZCzZUYBuDcQGEIpqmKxwiyksRgyk0jrkJeG820hg9ahUNtkLBFwBuZJ2epimdom0TmlOqeMxsGBPBtE4UqY6mKJ2ibROqS6EhmDBwbqchdffbg11ccTCLPU2juxIdASbWhLhVqTOpMFgmEUw+yuysqaEIPJRFEs31bi9gWZLDaGYQ5XZaApGmiK1be2e+qa+UIpEbMEDJJ5gw1Nsa6Gtg5/Q4tcpcJxeFf3KrV+PTdb9i798kCVbeobmyHP8QZIzqImmbmZir+ZV+abTa3fXDPjV9pT/9Y0/htfxS9Kin9eYn3WeWP6eYn152DVciKqFf+i1Eak4gOOIlDitP7UXmTPu+tvfvC9v/r+9/7zX//1mv/+96UIZZ1C0s1j17krbuC6nJ7J7cne0FW6trKQOJp1KCCrkStJuF0i3OtXqoO/NxxQtjJZTn7N3Wppaeny5cs3b5itf0ODX91XkloHZF8btf60xF6tVjm0WqtYqOOyb05aDkvDZqtZrM9JbLbNZArU+i0ymQZs8qUTi6X58onNBgdPJA2HTSSOVa3Ol8s1bPaf0f7nXITPvUpfdQUmU/0FkobJ1DPZbos13tqeinUlw4lKa76WQ1XQIRULUTERNYumZuU0xWIVK5VFSqWOywVX4Avs4i+mzm3/RW7nxWGoWctJy2FZFHLjrRYDsRiNppXMDZVMpHuC0WisD8cCDc1GEyghF6fT+dJLL93G59tfPrU+ebLuiZPA0LrvY/fgLLU6Hz0W3vvLuZ33dvf1JpPJHGqNxz5vicfaBroSC5sDV/fUXN2zbJO5kx3x3HmtCEox2KTmcjmEgAkhEEQRKFnuRjNXRkdRGGcgZWGTtliCYRiTT+dImNY6vcWj4slZHAkTZ4Cg1SgNZYsZHAlTYuAX+jTAExgBcEpj4xwJE5Qb+Va/liNhkuUkuHJ5gpHZ7W5vHRnZkrS1jm28r7TSqzcXtHUNNMW66AwGDMPGQmvP+Gx+sVMqV0XTgyWVXhQFtl+JTKk3FxvybYGWaOfglFiqQlAwM8MTaOkenS50VOnM1mh3b304yRfyV6n1Tt5gq/v6FlyBVWr91iDiN+1E3vRXN9Mx1j//A+tf/+mWifkv/8j4538gE/Of/4H5L/94c6L903/L+/u/+5u/+t4Pvg/SX3/ve3/7g+//j7/7z9T/5x8rS0vvALVmiZTsNmUd1cjpplnOzPWNz3awSMMs2cLVq1dzK1+9ejULrmSGrHzlyhVyFzfsN9vmnc8sLS1ZFOpiCuVeo/ZElfvO32YnPRXPuezPuGyflcpsz3yR5LIdKCea+iKVV+t87Veg3P602/G02/Gs1/10uetJm/Mpe8mB0vKnnWVPlZb+rMT+hX70r/0svtwBHHDZDrjstyuBf6Ivdzyf2Dz32KpLDz6w9TAh7riwsJAr8Xh4ZVkRfAR/yQo3fC4sEJKNOaVHjx794x//eBufe3/x1Bp68mTN/ldLHjueqx5s23eseO/R4r3zzkeP+fYdHn7s6YnpqfZEMh4F1tUsrsZjsXgUmFgJ42rskyALbK0b+louPuxZ2vt1UitGxfLy1rCFdGuNVmLkEDJ4wH0DpyHOgE5dJERQitjIKW0x0Tkfm0nzPWp9qYz0Dc41nFIoFCaXZqlUZak1u5bJpxV4NbnUCkGQq9o/NLNNpTWQji4ktcbSwzQ6HUVRh6uqvW+czeOBeeEI4vbVxXqGWpI9sfSQiFCBA40DzwIYQlCrs6qLoFYYRak0Znp0tq45SaWzEAxVqLVOt5fL56xS67eAo1ZP4U5egVVqvfO98O/IHl/zujX/37/a1/wwSMNCNPSmhNXTcxIDbyBSPQMnUwOdKGHS+P/6z3/7V9//wfe/9zd/9f2/+9v/9D//r/9S+O//Zvn3f/OWl98uaiUZ8qOPPrpKLNevX7969eqlS5dylZAuX7584cIF0r569erVy5cvX7lyhaxz5cqVLIWSdbJEeunSpQ8++CC7NjtJ9cMPP3z//feXlpauXLny/vvvkxXInhkJt2SbZJ7caXbXJN+Sla9du3bhwgXSKpul39vYwyNNx/kKNed//r+GH/4wzmVt0amfshUeryr/WhyGvyP/O6unecMVOFfrPVvrPVvne6PWe9rvecPvOeMH0wpuqLb69Q5fgcVabzadbwxe+MUzV65cyT6IspnsEyxb8qdmbuMz7S+SWskwreDzid/U/fQ3FcDQetQGEjC3AkMrQFZArSWPHnM9Np9+/JnNO3cAWyvhEkwIMEXjsWh3KjGZaZ3rbZ7taRpOhZNxULjCtNFEPLpntPyDh6qys9HuZGd0aa83O68VhvPkJr4toGfxqRC0LPALwXnyAn6xV8OWUs1uhdYpJRyJlyH0tlArncFsHwD6ZrSVcDUktYbbMzQaoFZbWUWid4ykVgqFolBr+yY3zt63110TJG2z5NGAiRl5UJGjsnNwSiRVQQiCUxk9Y7OeuiYIQYC0AIZiVGzVQ/gO32Cru/sWXIFVar3Dr/nvzu52GNSm//0/DjisbwY8t0zn6rzZtBj0ZdO5Ou+bAc85f/ViredYRWn+v/2v/+M//eDv/vZv1vzjf6umIpu0ykNl9im5JFhxezyEL1y4cPjw4bfffvvpp58+ffr0/Pz8O++88/rrr//iF78gwZLsML311lsbNmx47733zp49e+jQoRdffPFXv/rVCy+8cOjQoRdeeOHUqVNLS0uXLl3avXv34uLipUuXPiKWEydOPPnkk++8884lYiEp9Pr167/97W8PHDhw4cKF48ePP7Jrz4cfAmDOWlnPnz8/Pz9/+PDho0ePnjlz5sSJE0eOHCHNFwsLC6dPnyZx+tq1a3/84x83bNjwwgsvvPHGG2dWlrNnz16+fPl29fNID+EIh3mvQZcR8RsYtFoqmuCxdxi1L7ocr3srztV6vjt39eqZ3oErcL7W+3sinV+JerUY8L5ZW322turNQPW5Os9i0LtYt4qs36wr8Pum4MXnDuQOwJGPoFxAvV0PpS/Tzl8wtRLxb37j3/9q6aPHbHvni/cS1Lr3mH3vMdueBfue+ZI9h92PHqnd+/Lwo09Pzs0mk8nWeCxC2FuB929H+Om55t/dHzr7YN0bDwSe31A33t2aiEfjoALA20Q8umWgCQRxBbbWj0NQ3LGebpZaURwylyv0Nim6IqFEzIK+m8qBizwac5Xc7tcxczWBKZTbQq1qnXFsw32mwmJSpzs7r/WW1ArDcKGzbHB6y9DM1mAkwWRzslZcCgwmgVsdlZ0D64QSJQXEFqemR2YIagWBlekMtkAsZTJpq7bWO3Z3re7o23EFVqn1DnTCvoO7OO2rMt/1v4I09Lc1lVk0vSGTxdTFoO+tUE02Ldb5FgOe8+DTu0Wn/OF//S8//K//dylKecCsP1rlWgx4z9ZUATWm26Qh/Prrr7e2tv7iF78YGhr6yU9+kslkXn311R//+McbNmx444033n///Q8//PDSpUsLCwtarfbkyZNbtmypqKgIriyhUKisrGxoaOjixYtvvfVWc3Pzr371q9/97nc///nPn3766Y0bN4bD4QcffPCJJ554/vnnL1y4sLi4+NFHH7344osTExPnzp2bXDc1ODT+xz++d+HChYsXL5L7euyxx2pqaiKRiN/v37x5c0NDQzAYbGhoqK+vr6qq7OjoIHH6gw8+mJ2dJcOhx2IgCF88Hm8gltOnT3/anNg/tcOXndd6qqbqt77KV9wl+wrNSR7Hetdd+Xf/+5RS+ssS2wlP+Slf1Sfu81rvot/zFplqV81i3yzA+MQv9U21WJ4PeEl8/UOt9w+1NYsB35u1vnMB32JdzWKdf7Gu5nxdzV/EiXxbD/IGlUSSWnNtrX/qo+bO1P9LpVaArD/7TYjQYbLvW7Dumy/au1D8KEBW555jzj0Lnj3HmncvJPcd2/yjh+7ZeX+mtzcWi7W1tbVF22KxtnSy7YUNoYu7fFf21BDROPwf7K45sjUwnAbgGgVexG3xWFt3vOXZufo37q+78Ej1R7s9l3d7r+zxXdtHhmQEwsJfqUDLMrVSUY6AYa/R8WRMMpAq6XULwxCCQKpiYXkk31Khwqn4x5RIoRR41EBDmAM0hG8I3PoFPYRhGPaFwj2jMyw2N9vyp9laQdQviSzaPeCtbzYX2dr7xgodpchKMGJCVR51lHkBtYoVEAJT6cx4ur8tNSCWKrg8QVVNY0M4IeILVqn124FSq2dxx67AKrV+W7sUX+95/cxeRPmHv9+oVb2ZY1D9XGr9fbDmfPDjnuiJ6vKMiFdGuXtPoel1b2XWpvdmTfWsSnZbbK1LS0tnzpzp7+9fu3ZtKBTKZDJDQ0OLi4sbN26MRqMPP/zwvffe+8QTT8zPz2/atAmG4e3bt0cikfHx8UOHDr388suHDh166aWX1q9fH41GT548uXv3bp1ONzc39/DDD0ejUbPZHIlEotFoVVVVfn7+2NjY6dOnx8bGFhYWDh482NfXd/ToMVd5eXe6/0c/eujBBx984IEHdu3a9frrr+/YsWNoaOj8+fPBYHBwcDAUCp08efKtt946c+bMI488RFLr22+/vXPnzqKiIovFkslk9u7d+8QTT2zcuLGystLj8fz2t7/NeiN/yb5gllqzLsGLAe8bNVUvlTtTAk7RXT90QXndIu4DJt1hdwmo4wemdWAqr6kGtjK/561az+KqPfabCodf74PiT9h7nY9wRiUM+3W+t+p8v895VvwJ7az+ELfpCtxMrR88d+Bqjofwl3zyfEWb/wVTa/inQIep4vFf2/cu2PYcBWnvUdveYyX7fu187Fhyz9NbH3xow7ZtE+smM5lMIpGIRqMAWqNt7cn4jycDFx/xXiFC2pAxJK7u9X202/vS+tpkMhqNtkajrW1tkWhrJBVvnUrVPjgceHa26dfrnSc3ON970HdlX+3lXb4ru31Xdldff5Tk3tsv/bpMrXRUXyLNdylRfFldGv54oQiVbFckX5EvyFFKB4wp0fPsQX2RT1vk07L4tCx2gnmtPFp+1a3nteZ71GwJAyL2w+ULOgfXlXsDudBLpdGCkWRjrJNGoyEoWuR0tXUNsLhcKo1W0xCJpoeEYilOpXqDTc3JNCk7TAEa53AeBSpx1yzbWkFcNKzIUZ4aGGvvH0/2jrX3j9pcFSw2Y5Va7xjtrO7o23EFVql1tbtz26/AYq13QiGm//M/HHQ5byDV3K+fsLUGa35PpNye0GKt9xW3/XfeyhuY5zOodWBgrL9/9MKFi5/b4yH91i5dunTw4MG5ublwOMzn8xsbG2dmZl544YW6urq+vr7NmzebzeapqannnntuaGgIhuGpqalgMGi325ubm5uaWurrG1tawg6HIxaLHT58eNOmTXK5vKur68CBA8ePH/f7/QcPHlxcXJyampqYmDh//vy5c+f6+/sPHTr03HPPZTKZubn1MpkskUj09PT4fD65XJFOpw8dOrR9+/Z4PH7w4EGv1zs8PNzc3Hz27Nn9+/dPTU21tLRs3779gw8+eOKJJ6LR6LPPPnv//fcnEonNmzfv2rWrsbGxs7PzlVdeIT2Es9pRn3s1PqPCzdSavWHO1XpeKnfeo1fX0nAnJc+DQWNy8X5n8UlPxamayt/X1fwhWLP4/7P3HlBRbG3C7sz6Z9a9679r1n/XvXf+mW++MOd85xwDKoKYRaIIiIDknDpHCQoSBSQrSlRAUJCkqKTuRlDgKIoYQBBEBRGU3E3Oobuq+37VhXVKQGyhSVq19oLdu3aqt9J+6t37falELoWAuOFFymIRTAKLkMCsR8EiasCKSEsC6Gd1D4Pcd+L4xJOHoACyfI7eFni2rMqudUmtzvffuzxoPvn7B8q99zacN1ac11bst5asN6as16ac1xacNxac14Gsh4lXrvr5+sHrVCH96czm4evr8z6dPp1PBtgzjljF4EoCOJTR29QzZzy9vNzFhOvh6eHh7eXp7enu5+Ue5ncqmqnhYbw9w03p1RVr3g3bsVwyn8UAl828MEyt8nvkrOhHVI/u3ya7VUZGBla0whS6dauM6tF9lo66e1U+49ItW7bI7ZBT1tp/SP/gIf2DO8Q2hLfJbt0mt01WbpuS1j5jivZupZ0wnSLpBzX3GpG1d4sRd+vWrQYmFoERCYc0j6CXy8rKbtc6qq+tewz2xaqopKJrYCInL79DQeGYiYXWUX05ObmtW7fuP6hkZGG9b7/i1q1b5Xco7FBQ2LtfycnztE9I9IGDaltlZbds27pDYZfOMWN7Mh1HYRpaWO/eu09efitGrd8HSmFHsWISwKhVWq9w5mpGvQAAIABJREFUrB5EAo0Ee4r8Nq/9ezuZVDSmzop/Rq1ir7xo37yzhkRI5T0M8sLU6uzsHhUV198/KMmQCARBHo/34MEDFxcXVVVVV1fXkpKSK1euHDt2rLy8vLe3l06nV1VVwTOEVVRUamtrQ0JC/Pz8btzIuno1mcE4Hh0dc+3atTt37oyOjvb19ZHJ5OLiYg6HEx0dbWhoSKfT/fz8dHR0Tpw4kZSUVFlZGRYWVl1d/eTJk5MnT9rZ2enr679+/XpsbJzFLnA75dHdDa2JzchIt7WxCgkKNjAwCA8PZzAYNTU1eXl54eHhcXFxNTU1ExMTz549q6ioaG9vr6qqOnXqlJqamrq6+rFjxzgcztu3bzs6OkZGRpabWuGT0kUjfSDjSs2Nzqoo2m2VsZSVPbN3/21T42qCXTu0LhFSkaFPHxbHJIBJ4PuTAEytQoHUVtRL8gBfRJ51Ra1XcpnZ5XA4nvOYnFuLu/XSKvOpRcYTy4ynlhlPzdOfWKRV2F6vtLjx9Mzt4otxcd5iw8BiFesnaPX09PX16b9F+JxayaI7JCGHMpFNCwr29vaGphLDpaDVJp7QGtfzAR7PLlkkOiu5m205ZSJ7ia746JxB7w08VA+HAitspTtUhalVYe9OfWt1hQPy2z65t4aRdRvkJXXbUSt1fetD2+U/cyWM1qzOZJbdqqS5T8NIScNYWd/hsLaFqtyu7RAAy25VPLwXSjdS1rPX0DZXlVOA/OHIym43trAh0J0RO0xz65QkRWHXLnM7HIHhRHPx8DsX5UCiy+/YuXmLzOYtMpBD5G1bt22X3bZddss2qCcYtUr3+sFq+xEkgFHr9zd6WPUj+t3cWPe3n0vMjLkoG0toRp0VhwEVRlYEVpHI3MNZmFofPaq4f/9haGhEX1//AmMaeNnn5ORkeXl5REREVFTUyZMnz58/Hx8fHxUV5ebmVlhY+OHDBxKJ1NzcPDExUVFRoaCgkJyc7O7ufuZMQE5OXmJikqWlZXh4+O3btwsKCjo6Ot69e2dpaXn27NkrV67ExMScPXvWwMDg9OnTERERly5dSkhIeP78eWBg4IsXL54+fUqn00NCw8gUytOnTycnJ9PTM6KjYyYnp0AQvH4909f3dO3LWiKRGB4ebmVpcdrHOzQkOD4+PiLifFRUVF9f34MHDzIzM2NjY4ODgxkMhre3d0pKSkREREhIyOnTp2NjY8vKyiYnJxeQgIS7FtC1zjo1HVTCUxvza9qazrt3k/bsddy7L0JL45GJ8RuCfQedxBN/mJhVBPuJSQCTwPchAYhaK8owapXCvNmBW8QId1tbW2tbOsOW6QQHa/pxK/qJY3iGti1Jy5oABRvCIWu8uiVO0wqvZYP3CTt/5erV4DMB3t4zHm1gbPXy8jzt41WXfByiTRbUPXhtqrCAJOBQhm9T/fw9PL1OwbpWb08vH2/P014eIb4eeefwY7nE4RxSewbhQbAOTXuDtepPgUSl15cMR/Mp02wKUCBlo0286w6eOG25vbu275KX3SEvL6+ABDm5HfLyCrv27NSxOKSifUBOHlq8usCmsEtBy1jViHzUkKR96JjSLkWFbdu3bpXdIrdTVstM1YhyxIisrWGgvPvgzm1y4nQ5ub379u/es1dO7is1L9Do9u3blZRVGa6ePqEXnL1OG5ra7jmgKCe/Y7u83HZ5uR07FcQHAf3cBjlwlTt4YA+ma/0RQAs7RilKAKPW72PEsKaOIvmIhoXMhiaiA2Tq82vgiuhXpUitIpHo6dPKc+eih4dH5mUzxFLRxMREWVlZUVFRbGxsTEzMs2fPysvLOzs7c3Jyrl/PzMnJOXHiRG9vb1VVFZlM/tOf/uTs7EylUmNiYp4+fXb37l0ajZaeng7bE3748KGLi4vMps22trbXr18vKCi4evWqtrZ2UlISh8MpLCwsKSl59+4dTK0PHz4MCg758LE1IjI2PuFKVzc3IiKioKBgenpaTK3X/fz8Xr58SSAQIiIi6HTqhfPnvL08nj9/nph4+dSpU729vfn5+fHx8SkpKTdv3jxx4kRgYGB1dXVVVVVBQQG8FrepqQntuWdeOUiSKDm1whchl05qoRLKbW3CDh823bxF/5e/Hd8lf91Q/yXeroVC6BJbZpp1rtfU1Yt1BpMAJgEJJQDP/If/9rowxyvKQEzXuvTxGUytdjYWVp9vhgYm6mqHVZTVlQ6qHVRUOaiosl9ZVVHt0EHVQ0rqGjQnp8tJSQmX4mKjYwPOnPH2FhtZgswsQVaCsyOZg9lkPosCfJrfK2BTRvIo9y8xT/t4eni6iycJu/v6eJ4/43HjLO15kuN4PrQOFmBRp1kkQQG1P5t40/uQg+ovpop/u0A79DTSsDUDP55L4nMoAIcEQoG4xGMfzqHkXfIOCQ0KCAwODAoJDg4NDgkLCgqBAhQPDQ0NCwwJDQqB4iFrdQsODgkMDgkMCQ0IDgkMCoaOIyQkOBQKQSHQz8DgoMDgoLCzZ6Mjz726foLPIi1RblhxTAI/jgTWJrXyGxv6/b0X0LZJ+E7Fsq28BJpJDsyd27337/5Awn8VWXnHKQjAIBG4zwuc/a/qWmEYY7HuJCWlLrDGFXZ2mp+fTyAQ9u/fTyAQnJ2dPTw8+vr6Hj586O/vb2Fh8Y+lpOPj48XFxR4eHnv27Glubg4NDc3Jyamvr6+oqDh16lR2dvbbt2/b29sfPHhw5swZIyOjioqKpKQkQ0PDX3/51d7enkAg7Nm9R0VFxdXVtbKy0t/fPzMzMygoyN/fv7e39/HjJxQKlc3m+Pn61tXVwX4jMjMzzc3NAwIC9PX1/2GdWFzwWXBw8OvXr2NiYm7cuCEQCFpaWkJCQmg0mrW19c6dO3V0dAgEApFItLe3JxIJ79+/h415SsKlC+f5VmqF7QZzacRuOrGBSIg7qmMlu+nwz3+i71K4pKVRhrN9RXBopRK5DDK2RnHlb0+sRUwCUpQARq1S0KzOHW5+iVq1tLRUlFWUlZWVlJQOijdFZaWDKspQmorKYS1tKxsbZ2eXc2fPX4y9FBoSBi1Q9fSC7AN7evh7uxfGOPNuUibzyXw2eYpFGcihPUxyCQvw9PbyENsQhiIXAjzrU5kDucxpFpnPJoFsspBDFbCIIJsi4JAnWOT2a5bXvfV9reUdTeRP2x245XWoMZUwmo3jc0gAmwDl5JChycN3qOjjElstlkBW906CHx8KgSmxLUGRUAgFEBSC4B8vKaHwj/iajSHfxeEV3l/qpxCYFL1IEN2ho2WFxTEJYBJYQAJrk1qnGxv6/Lx7MI98UjL2KMVhylerKrMwMdu8IUNXW5zzK548EVKdy6hzU5CmYWpl4ufx13ruXNSjRxXIO+L27fzY2MsDA19c48rn858/f66vr+/g4ADbDf6H85jh4eEPHz5QqdS9e/dWV1fDnlQbGxvV1NSqq6tDQ8MiIqM8Pb1TU1MvXLiQkpISHh6emprK5/NHR0eZTGZtbe34+Pj169dtbW0rKiqeP3/u5eVVUlICgmBXV5ebm5u7u7uTk9Pp06cHBgZGRkY8PDyMjIxCQkJ4PJ5IJAIAIC0tLTQ0tLGxkUajnTt37uTJk+3tbRcuXIBnfjU1NYEg2N/f//jx48LCwvDwcD09veTk5JKSEthhD5VKbW5uRoSwxAgIgqZaWuFqSh00InIKForQIYclPTRSLwMy9MplUl+TcLcMj55R2n9i13bH3TsCVRWvHNV8YmPxkYzrZZBgn5wLVbgO7wLscDAJ/AgSwKhVAhLjfHOeeanV0tJSTU0NQlYVcVBWPqishAQlZSUl8S5lVRVdXX0f79OXYhN8vP3FZoQ9PT0hIg3wdrt21uVJkmNdOrMy2TEryj08wNvL85Snh4fYcxo0Nzg32nk8nwL7axWwiDCFIiNIgE0WsMmTbEpnpkPZBaMgvIqp4l+cDLawfTQ+XrPm5xP5+URo+nEBtOoV8fiKRJB6vhgpdhW2lYtAiFp/hA3ic4xav/0G+eL1g1X1A0gAo9YfYWyxYsfYTSfFHFI13vTrYyuzJTb6VWo9jncYGRlBvmnC77hZ1CoSiUpK7oeFfXGNq1AonJiYKCgoOH78OIVCoVKp9+7dm56efvr0qYODw/79+2/fvj0wMPAPfePbt2/V1NTu3r17/vyFsLDzDLpTdXX1hw8fmpubExISAgICxsfHh4eHKRTKy5cvJycn6+rqYmJirKysDAwMvL29m5qapqenh4eHf//99+rq6vv374eFhXV2dra3tzs7Ox84cMDFxeXp06dDQ0Pj4+ORkZGpqamTk5MuLi7nz593c3Pj8XiZmZlqamqhoaFdXV0CgQAAgKmpqffNzf5n/P/htmdwcBAAAIFAUFlZGRoa2traOksyXx8DwJ+w0X+hD94iEASNtcXUSpWMWudAJuRil05qIuPqcDa3DXTc9+0w2/yb4eaNlzTUKqzNGon2vDlFlnjxYMUxCWASWAEJYNT6zUQqyYB7NJt09bQDeoawpaWljo6OmipErbM2JWQT71BSUdbQ0PT09E5MvOLtDfm0gdzaQNspD3d3L89TAd5uAadPBp12P+3t6ePlNWM6GMrl4ePt+XsCfSKfArAhTSnAJvHzCfN2GGCTp1mUvlukJxeOnbbb56Dxdzdj+XQ39eYk07Fb9iBnxlKx6A5V9EnpKpH1JoxafwDqmPeKwhIxCUgoAYxaV+DV/uM00UEl0BRkT+ze0UzCLfGopUWtIpHo2bOqs2ejhoaG55KbUCjs7e19/vz5uXPnbGxscDjcrVu3Hjx44OrqGhERceHCBVNT01u3brW0tNy4cePw4cOJiYmXLyfGJyTZ2xGys7M5HA6LxfLx8fH39//48eP9+/ft7e2rqqpqamoKCgpSUlJsbGyI4u38+fPl5eUTExPwytUXL174+p7Ozs728vJycnIqKyuDp/tevXq1qqrK09MzJyfn1atXBALh0qVLbm5u2dnZnp6ex48fJxKJsbGxHz9+7OjouHPnjpv7qeDQkNbWVi6X+/Tp0/v371+6dOncuXP9/f1Sp9bOxVIr+krg0knvyQ5V9lZnDu632LzBcvPGMwf33tLXeWZj8YGy1GsG3RAWxySASWC5JYBR67JQK8ghf0gjBJ2wwdtZONhaOdha2dtY6R7V0dJQ0VY/qK2uOBPUFLXUDnweFLXUFC2MDCPPXzh39qwnNEMYmiTs7u7u5ubm4eHh4e7h6e7h5eEJBWjJKzR/+NMGUWtMsHdLBkPAmpnfO2ui76xhpYBD4bOpw/nU6iij8/i9Doc3O+nJJLuoNV42n8gmQIpZFumT5SeIY+H4rEo++4lRK0atmAQwCSwoAYxal/u9/kPV/8zW3GTTL5lHtbn0r8wN/qpYpEitIpGIw7l7+XLK3DWuo6OjhYWFAQEBly9fbmhoaGxsfPDggbe3d3x8PJfLnZqaunXrVmxsLLzM9dy5c7m5ubW1tbCmNC8vr7Cw8M6dO3FxcRkZGbW1tREREcHBwY2NjYmJib6+vteuXauqqhoZGWlqakpMTIyJiRkYGIDJuaGhISoqKjAwIDk5mcfjgSDY29vLYrFOnjxZWFiYm5v7+PHj2NjYsLCwR48eXblyJSIioqioaGBg4MmTJx4eHmVlZaWlpe7u7qmpqZ2dnSAI1tXVnTt3zt/f38fH5+HDhwKBQLwyCNaczqX1+VLQWlakHErXKhVqhc87PCu4Fmedqat9cvcOvKyM/bbN59WU7lsYt1LwXTQituT1qzcIlgGTwJqSAGZDWMoE23SNUHjenhPuAIcrfnbXfIzSThunnTZCQqqP4efBKNnH+HooISflbHDQaUi/6uHl6XHa08PL/ZQ7FNzdxUtYxbAKUSzkoNULWvcKL231CPLz+j3u+FguFWTP2Af+jCo/H00CbJJ4FjFJwCJN5eJbky1iKAfsNTY6GWy7eUqt4bJ5T4b9ZB4R+MSuC1Q1swuj1s8l/HWJYfkxCfxgEsCodU29+Nd7Z9KOalrKbHhpb7X0A5EutYJCYVZWblzclcHBITSxCQSCvr6+4eFh2EkMbDqhqalpYmJCKBSCIAgAwMjIyNTU1ODg4KR44/P5cEQgEMAOUQUCweTk5PT09MjIyNjY2NTU1MjIyNDQkEC8wQaWBAIB2oHq9PT0gHjj8/lwo0KhEACAoaEhuCoAAAYHB4eHh+HmxsfH4bbgdD6fPyje4MqFQiE8/Xh4eBju7TcrWsWTgSHJoNlV/BOZISxFakVfHq0U/H1z4xClAw7bthK2bw1RVswx0H1qY/6RgsdmDqMFhcUxCaxlCWDUKmVqnUssAIcs4EC2lBYOk/mUyqvMUD8PT093Tw9oJvC54MCA094+Xh6eHu5eXpCKFdo8Pbw8Tvl7ewX5+pzx8fb2dPfydPf38cw879F7iwFyaHM7MCsFplY4UWxviTKWja+7aHbFUfW0mazzsW1JjirPLhh2Z9iL17tKIB+MWn8wApl1RWE/MQl8VQIYta7lccC66xtTQdZ73+42CmHpPZcutYpEkCXCvLyCsLDIL/lxhUkPZki0onJWCgiCSE44jv4LZ4b/wtAL0y+SDjMzAquw+SUYgOF6YONPs7ATRla4LFqPiu4J3OdZDaER/StxNK8us6517uXRRSM+s7G4onXYZdcO+o7tzjt3XDqsVmJmVI+zWSZantsHLAWTACYBySUw6xENUeuTh5i/VgnYTEpkglg5AtgktJFeAYvSep1yJdzd39s5NMDtRsyptxnHG6+Rs84e9/Vyh2DVy8vb28vXx+tqqPPDRPc3mcziuJNxIa4B3q4RAadeJjtN5FGEElArenyJLFsF2OTJPHJ7skVRwBFXEzkTpV+8zHc+u2DUe92en/81Fy8YtUrp2kCfGiyOSeB7kgBGrZK/pLGcC0ugiWSv/Nc/XdPR7JDGAshZQyJ00zOebySzxoRGNRAEi4sfnD0bOUvjiuRBWBGJwLvgn+CnDdZwIruQzIB4g+ETAVc0tSLwCRdBCBP5iZAnUjk6gq7zS0Xg/Iv5u6rUCp/fLhrxPcnhgaXJZa1D+O3bDDf8RpLbdlNf5w3OdulzztGXEBbHJIBJYIkSmPWIxqh15XgVHoOil4l+Rq1s0jSLPJpHqbrCfJ3KmGBR+Wwo8G7TUs67esF+bjzdA309a1OPT7OpfA5lkk1tymBWJR2vSzk+Cfl0/cxvjSRDXpha0d0QcmhDtwn5vprmqr+aKv2cdFzp6QWjgSyH6TxosSscZteMUStGrZgEMAksKAGMWpf45saKwxLgMcjxmurKf/3TY+ulWg+GK5w1JELLedHUKhKJBALBjRs5cXFX5q5xnaVfReMiEkcAFdaRzkpHUygch+ucBatzkRLOgBRBMqCbQwMtgqxIBCmy+MgaoFb0WW4h465oa1jJbNT46a/Ou3Yka2uUW5m+Jzp0L3nJNLoVLI5JAJPA4iQw6xGNUeuyUyuiz1yAWhEg5LNJfDY0oxiALfqyqSM5lIJYV7/T3p6eHt5eHlfOuXdlUQGIUUlilzaQR1aB2C/rbJhccBD5pcyiO1RhAZXPInWl2+Z4afhZ7HA12h5O2sf202pPtZ7MhawTo8Ebqgej1kWJ+kunAEvHJPD9SQCj1sW9sLFSsyTwnuhgsOHvtB2yzSSHWbsW93PWkAhdyVKoVSgUjo+PJyWlxsdfXRzgoUERVr5+qZ5ZzPmlbEj6XGpFdqEj31otuuxC8TVGrfAZbybhWIZ6ZxT303ZsP7F7Z5DS/ut6R17YWX4kYwaHyeibAotjElhhCcx6RGPUuuzUusAAFK3kRMAVzv9pF0XApjZkuEQHe/l6uvp5ueVGnhjJoYDfrlZdoBvoXZ/aJQMs0lQesTvNtjxMLwy/20p1g6+l/N1AnY5Um+k8giAfYuaZghi1YtSKSQCTwIISwKh1hd/032tzJeZGe/78H5l62l20pVoPhkU0a0iElpuE1AoA0FxdmNNqaupiYhLEIT4qKi409IK2tuFCCPeFfQhYIuy6XAz5hQ4sY/KapNYeBplLJzWTHKrtrPIMdAMO7jPa+JuFzMaLGqpPrM0bCXZSWUSNvrqwOCYBTAKLkABGrZ/Qa8EhF5rrFh2fraL8vEX05Fu0ehZgU8fyqJVXnIpiHItiHd+kHuezZhyrLronCxSEuyEsgHW5JJBDEbCI/Tfsq6ONAmwVcBobvM12cPw16y6aD950mAFXjFo/P5ULiBfbhUngx5QARq2LeD1jRWZJoINGCFU5oPPrT7UO1rN2LfrnEqkVBIVJSamJSWkAAIpEotu38/z8Qt++bXz/vhkJSyTA74dXYUGsVWpFLiEeg9xCwpWaGwUc3E+S22a66Tevfbtv6eu8tLfCpg0jUsIimARWRQIYtS4jtSLqUySCHrAiiegIyCHPXWsKFlAEBdTpAtp0AVXAoQDLz0hwl0SFNJBD4ecT4C5N5hDqL5pdIO23UP6ZoLXp2gkNbobdZA4RuHdS+LFMyB8VAtMLBxE4LQJBiYIQFEkaAJFwJYNAxB8TvUgQ3aGjzyYWxySASWABCaxlal2AW1blrYw1+iUJvMHb2cvKhKkofimDdNO7qcRETfXjX7bGJBSKiopKGYyTVlb40dExkUg0OjpOpjh+yXrwN+ErAquwmaVvKrumMy9ArUe0wtWU1pQt3yaCQ9pRTYaCnNnmDeabfo08pPrUxryTRpTulYbVhkkAk4CEEuh1YWI2hJcLXD95RiUiXIoe1SGJcETAmsk2i1pnpuyyyUIUrKKVseg6pRWHG4WVw4jeVdxP8nQesSnJIpp6wOHwRobe1vSTh9+l4Psfx081soBGtvDd56GRJWzIBxvzhY1sYSNbBGXgSBYKhO++EkBxVeA79koGYSMLfH1b+DhMWPDNtq/QZweZiY1OXGJcinVKsarFHRR6YgIcR6csrk6s1CpKYG1SK7+xod/Pi3ecAgcuk4wOEr5EsWwrJoEyCxMLmd9KzAyl0iJvPnM7SCKPTuqiEhIPQ9Q6PDyEMCQMhOfORT18+Dgv7w6RyOzt7UtIuBoXnwzvunYtMywsQorciFArPG14hf9K8UBmqpqXWkHIi6yprs6FQyqdVCJyFqRyopdYSTc0cxhXbmXie2CP+aYN9ltlQlUUn9lY1DpYt1LwS6wcK45JAJPAVyXAo5Pg0MMgQ9RaUbYOPd+U+SF0J+SQhZyveWdBId+KDd3QXIpudC5zonOK7SFRkKODrB+xiEIWSSheRwqni+5Q4WzoaqUSn7dv6JrFEEueyCXUx5nGHVd1N1BwNd4exThYHm3CzbQHC+hgAU14hwYW0ER36EIOFWRTBWwKwKEDHJrYiBQFZH8tQCdUkkABC2jgHfqKBeAODSigig1lUUDYXNaSryvkRC89gj5NS4zPvQyWWKFUimPgKhUxrkolos5nQiEg/RHw0mqcbmzo8/PqYVJ6mOQeJpnHJPMYf4SvvkqxDCspAS6dlKmrTZbf+tJeatOD5+0/rHvn0UndVEL6kcPWerpcbjeaFUUiUVxcEo3m4uLiAatV+/sH1NR0Ojq6RSLR2NjYkSNG79+3LO3a/IR44obhH7P6MDcRzvCldtHFZ0H4vEUWrm3eIotPFIoGBwePHdZI1jncRSX0zPdBYd6TtWKJfXRSD534wtYy5YgmfYec0y6F4wrylw6rPbQwbiDYtVPxPPpnVovWFHivmJQW1xAy26WXSZFKWFw3sFJrVgJoaoVmCFc8FAKCxT9tVqTkP33WCsgXrh9qRcaIYhIggxyisIAMFpCgib4F0ApVgEMGCohwADlkUSENJtI/uJRNErIgrzNwVcICCrILSURaWcnIaA6xPdmqwEfVzUgGp/6Ll6nciyjjYWi964wrWiGLJGJTQA4EewI2hc+mAGyy6GthJQ9hjbclXZ0n/HFk4UNG51k6SEuFfhEhoPu28FFge9eaBNYwtXpDyMrAwlqXQBsF73Vg9+kDe1pWxKwrPE4qtzRRl5OtqakBgJlvLrDzmN7evpcv60ZHR5GRSUXFcybTVSQSTU1NXb+eTaU6IbuWNfJNbAnDqoRFJCFbKR7akydPtBS2P7Iy6aGvxfm3vdAjAjIA1kUjvsHbPbAwjlRTosrL2m2VcdmtkKarVWVrgXYgPItaEU0R9qiZKwGpkCq6krlNYCnrXQLwHdTLpGDUulzTg5FRIzJwhwffAJsg4BAgRhVT62fIegeCPTjA2lTYzYwgH9K1whXC83WR5a9rZBwvYJNuuGuaHvjJUHFzElO5/qLJZC4eYlc2SZCPg46IQwNmlK7LLnBE8t9BBAE2qRwLcikuUBtyBSLXGJKy6MgCzS28C5lTAH+d+XQHrcWJFQsfCLYXo9b1PmhY9f7X42w0/v63q0c0VnJV4TuivcWWjX6nT4+MjMAUh7g8nQtsRCKz9PdHnj6hxqaExsamuRmwlC9JYHx8PCIiwnarTCtlPXma4dLJ6braR375edu//ztBblvaUc0Ka7Mmol0XjdjzSW3YwyDDBAtrFBG94qrfUGunAwhwwl36kUWEiOJHFsK8V+Zn1PoE07UueZ7n/KPSQiZY5CS85zIT7p4U3nMB77kARU5AkTNw11lYfAK4C0VAcTp41xkKcJFiF1HxCbigCCp4QlgM/QXvnQDuzgonoeJFjoBYczt/T5bpAFHVAmwSL8Mu11vT1XAb7ahMDGlvScDhD8lmE7k4AYcIFpDF3mUhDfPq6odXRj6LBrxZBWGl+qzERf+Ej33h4pLkWbiGuXuXInOEV9HVLqVCrOyqSACj1nnfxFii5BLINjh69Ndfyq1MeSuoGOfSSalHNPZt2/D777/z+fwvQRec/uhRxcWLiTU1dYhiduH82F5YAiAIVlZWHj2kmqWv00ElSH5JrIWcXDrpA9mh0Fjf/8Be260yx3dsP624N0VH87mtZSsFP/daxbBk3rOGiGXevd9TIkxfX/r7PR2pdI85FS7QAAAgAElEQVQF+fQjtiH8CJshvAwKwKLjYG0q/10h0Py78OND4cdHYEsZv/n+RGPxdPN9/ocy4OMjYXsF/0MZ2Ppo8kMh2FY+3fJA8PGh4MMD/oeS6Q/FQOsjOICt5cDHhxMtD4CPj8BWKACtjyabSsHWR8K2cnF4JHx1HSxyWgHzwgsPeafyiW0pVmUhR64cP2ip8ouriWxRqH5Hht1kHo7PIvFZK2EAeeEerqO9MKdJscMSVfhJ24+mxCXGl3IIyGwCdB+WUiFWdlUkgFGrdF/hP1pt3XSinexmhoJcA8FuhY/9PcnBU3EvCW//9u0bgWCtL6ZadyQMAEBjY6Mjg378wK63BNsVPrlSbK6NQii3Nks/qu2nuM9w4wYH2S0R6iov7CzfER065tgchiFNiq2v96qkSK2YlnK9Xwzz9h+j1mXAVJTiERoXFruCbY9b3r1597ZeODUp4vNF/KleXlfNi+fTUxMgCIjEi0tAUDA42F9T+0wgmAYAQCgEQRB49uzxq1c109OTgEAACAQCAX9oaKji8eOpyUk+fxoEAAAQPH/+vK+3FwQhB+fQX+5LsMQNLFg1LBSwiLAZZHhW83g2vuL8sWCHPbjDG9zN5NM8tV4nWQ7ddhCwxQt6P5eVdOfBrsqgfFajkEpZGgE+oRJWNasPc39KQq1wHglblDDb3J58Uwo2MfibxLU2M2PUOu+bGEuUUAIVVqYK//mfyTqHV3J6MNw3Lp30EmdNV9zjzmRUVFSMj4+v8ILPdQeiknd4fHy8pqbmlOsJu70KZZbG3WtyRauElyicjccgN5Mc7poZBSofsN6ymbh9W5CyYp7B0Wpbi04KpEaWIp59U8ewzJgE1rUEMGpdXmqFpjWKqTXuUmx0dPTk+KgIEIiEwN3CopMnTw4ODiKPdRAEq6urQ0JChoeH4cSOjg5TU1NPT08ejyfmWIhu6+vrSSRSV1dXc3NLefnje/fuaWtrJyQk/P77748fP+bxuED3S7DkFEwRqz5sRSh0mk2qjzOMIO6yUPmZpieT7HpoJJ8p4EBmeAUcGqwZnoVSs36u+rHM6gBsaApRAEqIbYvO9k3U+tVW4GNZOJskeRauYd69s8T4TT8RacMfRH6EGebfJJ91kRmj1nU9YljdznfTiQla6rv/9F9v8Kuji+tmkh9bm5J2yRnp6GSmZ9TX109PTyMvcSyyCAlMTU01NjbeuHHDRF+XsW/HI0sTeFS6uleaFFvnMsg1OJub+tquuxUsN2+03LQx4pBKsZnBO4Idl076XnWtiJ5zdc8mj/GZDzO0P7NVj0t4jfXSybMCj0HtZRB7GEQeE7IK9qMFjFqXkVqFd6gAm8QvcplqfnA5IcHX17ervaO15cPr+vr4+HhLS6vy8vKamhoulzs9Pd3X11dQUEChUFpaWsbGxnp7e6OiooKDgz08PFJSUvr7+/l8fm9vb0lJibm5+fPnz/Pz8318fBwdHWVkZBgMhrt4Ky0tFXTVACVuAg5Z8MnU8OqOZRFwBTlkAYv4Ns4kkriXdnSzp/H2FGe1hnizoZs4PosIdxKdeXW7/dXWIQPOhTRIyAUU6ERzqOM5xLYU65oYE5a/XoKjWjRNKZahfJGpEstYarjIUJFKPX/0hK4eTVf/4+e8PRTnuciEmpZOmGlFOZbxxXCRoXLT88jLi2atyVajt3GIVyFhIQ2NrIgy/6unCcuw1iSAUeuPNsiQ4vHW42xI8ttO7NmxWro4yHcrjdBEso/WUFHf+pvpEe2wwDOxkZFYWLQEzgYGOliYacptCVA/UG1nCZkv+l4G4giRcmlELo3YQsKVW5oEHNxvLbPJSmZTuNrBAhODOgebDxTc93TUs04fjK+wKFrJuNc4mzIzo2tah8IPq5zTUDmnofzpr/LZQ0rnNKC/Zw8phaofDFVTDFWD/yqK49/+V/1gqIZSmIby2gxnNZTD1JW+GkIPKaFDmIZSnK7GU1uLahzkJXjueulZ8v/+fmLUulzUCrBJoiI6yCGPsxhVrItRkZEWFhYZ6ek5t7MvJ1xmMpkaGhqRkZEMBiMzM3N4ePjZs2enT58+cuTIzZs3y8rKoqOjvb29Gxsbnz9/fubMmZSUlJaWlqdPn/r5+R04cCAjI+Ply5f37t2LiYlRUVFJTk7Ozc1lsVg8Hk/QVQ0Uu62uQaaFB8rjObiqSMPLDEWXY7JeZvKXmUq1MUaDN2z5LKKATRJ8Ilg0pSxc4arshd0Oiec5UybyyE2JZtfdDvngDgU5Wpxyojo42FtbW9naWtva2tjZ2S492NvbSVyJnQQbVN3XNiiPvb00g52dra2tzQLBwd7W3ZHi52jtYqOa4nzo1UWTiVwiIHZQPEuzusZV8atyTa6LRjFq/f6GESt2RKVmhnobfsk1OLpiLc5tiEcncemkbhrxjsmxeC111z07LWU2mWzagIVvkcBGk01QsJDZ5LpnV6Sm6l1Tw3VnfmnutTE3BQFXxOhON41UYWV6UUPtxG4F5907HXftiNZQuWN87C3ejvu5o9e5ta3HFPjAu2mE53bmMZpqnhqqAdYWXkScrY2VjbWVjY31rGBtZWltZWllaWFlZWljY7WkAI3BpDMAk3j0Jflgb6GB0AJjJDtbaxcyzt/G2llLI0FP87GNWft6s1u2xMsYo9ZloVZYZygqpIEcMu+6Q0oQ5YyfP51Ov3Tx4vOnz1pbW+Pi4kgk0tu3b52cnMLDw0dHR7lcblBQkLGxcWVlZVRUlL29fWZm5osXL6qqqpKTkykUSmRkZEtLS2BgoKamZk1NzcuXL/Py8qysrBwcHFJTU7OysvLz8xsbG/mdL2aoVWxNZ20OZAE2aey2Q9Nls1sehxz1ZR00toTa7XoRoTeUZQNx4NrQEn9FdAUUyMvuHdoki/z0gqGLhZKDuV5mZvqLFy9aWz92dLS1t7d1dLRLZesQb1KpCq6ko72jo71t4QolybNwDXP3wgfy1b/V1S9u3Mh0d6KQju0v8tcZuWkv5FDRmIqOf+U0fb5wGsu86hLAqHWJ7+wftjiPTrqspW4ms6F2laYHz5I8l07spBGaSQ71OJtaB2ssLEICr3A2LWRcJ22dmQuedSUs/BMGV1jl+Ae70klvCHYsY/0YDVXHXTssN2+iym8vNDZoJNrzvgt2RR9vN5141/iYwY5tRAvTtCuXq19UdUDDC2jrnLPB6e3tMxngn4v729nZubiCK1Nq0d1rb2+vra29kZnhQiLYHlQoMjdoo+IXvgi/p70YtS4LtcLr7mBq7Ui1Tg2lBQUGng0LGx0aBqf5gml+YmKiq6vrwMCAr69vUFDQyMhIX1/fiRMnDA0N8/Pzs7KySCSSkpLSvn37lJWVjxw5cvfu3aKiooGBAScnJzU1NRaLdfHiRVdX1z179jg5Ofn6+rm6uoaEhFy+fHmo6REgtsYkKqSt5Qm3sCpVwCJN5hEL/I8a7vvvY3v/HkVVfhph3ndTbGRYjK9rl2DFyMrnUGpiTEhaW9xPHu/v7wdBUGyfAxQKAZEQEImgnyu/iUDhV4JQJBKBEuURQcbCFrFaaSlFYFNkw8PDQUH+hqo7HgQd4bPIIJuCeG1ddfTCOrBoCWDU+j0NIFbyWD6QcVR5Wa/9u9cU5MBDqJWUA9bWOpIAGll7mRRkwA1bY+phUrh0UheddO3IYf1ff9H8+Sei7LZULa0yS9PXBPtu+vpetcgTr9rlMci/mxvr75Kj0yiDA/0CgQB2dLyUEQJWFhrAgSCPx3Nxdj4s//ffLQ3X0U2xxK4iNxHm+UbK+Apb6wE55L4s/MuC+OjIqICAgOrKqoJ8Vvat2zgcztDQMC0tzdramkAgVFZWPnv2zMnJyczM7MKFC8XFxaWlpUVFRf7+/nfu3MnKynrw4MHk5OSzZ898fX0PHjzo5+cXGRlpZmbm7e194cIFPz8/U1PT06dP5+fnj314AulaxXZr1zK1IqNeYQEFYJP6r9vedFM7eWwrXmNDkO2uuwFH267Zjufg1/A8YYqAQ32XaOlsvNfT41RbW5vYNZ8QosE/gsS8JxSJVjiIwK+3KKbu1XhDgCIxLff19UZGnrc+cqA6yghgU4UFVPh7ELyude1+0cAUvF+WAEatS3xn/7DFH1gYG23+LfOoJgaKP+w1sL4OHLFI1MMgI0PtWYeATCHuppNyj+n67d9ju1XGeadcpJoKy0i/ys5q1trFXrEmFv47q6o1+JPHID+0NrVT3BsSdKa/r/fTZ/3VGFN8p23yeLzAwECTfTJF5gbcdf6ZQ8ILGLmVMGqVMrWCHDIMjYK7J0YailOSrwYGBlVXVnHyWTdvZKmqqioqKkZFRaVcS8nIzHj2/FlycnJISIijo+O7d+/y8vKuXr3a3d0dEhJSW1ubmpqalJTU09Nz8+bN5ORkGxuboqKioKAgOzu7mJgYDw8PV1dXOp2Ow+Gys7Mn256DYmpFsHBdRAA2aSqf3J5mXxqkG26/01nzv32O/XbXX5uX6TCRRwbYq+bIZ17pCcVzmEdzSDHkfTSizfv378SPY0i5+nmQmFoXfKTC2toFs3y+UxIAFgkloFbp9P/zzknyCzoAeOvu7mIyaTS97T3pNgIWCRSvcYVOyhqeAD/vNYMlwhLAqFXCdzOWDS2BLhrxooaq3oZfHlubotOxOCaBtS+BL5nMmfv9pZ1KqLK1zD121F9xv63MxuPy2y9rqldYW7wj4VqpRFj7+qXa1o4cEFxvpxJcD+xikPEfWt5jKlZJhj6LyNPT03OSyfRS3t9IXGkX1qtyyc2mVnCtu87+p89OKsgXlvnBi9ygvxyykENaO6PDGVWn2PPN1SuJISGhE2MTwDS/5kW1paWlh4dHVlbW0PAQAAL9AwNsNjsnJ+fkyZNjY2N1dXV4PP7jx48RERFZWVkBAQGlpaX9/f1lZWX3798nEAjFxcXnz5+/ePGiv7+/sXjz9vZOTEzMysqaaH0OFrvCvmTWjigk6wkVKKDxC+j9N4kPzxoGmG09pb8h0G4321fn3WWLyTwiwKYg9cA62NXStgkhw1HEpiuWuvs3FBYWfPJLBAiFM+ETu64W9X12l6zTHzC1giBYVfVcdb/8/RAdfj4Ztsy0LiYRINcqFkFLYG1SK7+xod/fGxlsrcrLGGt0AQm8J9k7KWz3V9z7kYxbIBu2C5PAmpIAvJAV3aVZKbN+wj5OeujkDxT8fTOj86oHafKyFts3hygrXtfTeWhl2krFdzNIvQzKzBzjT/aWkRWzSATd6MrH4WdpiaURSe1g6b1CPp8/a6nRrJ/rdJSyRrr9orqaqXuk3Np07X/RWPql+Bm1Pi0HMWpFD7CWHoewqthV2F5xJSkhODhodGS0h8fz8/NLTEy8f/++j49PVVWVUCjk86dGRoZevKg8derU2NjY4OAglUqtq6vjcDhXr14NCAiAJ6Dy+fz6+no8Ht/Z3fX67Zu7xSVF9+46n3BxPeXG4rAfPS7v6OqE/LWuT2oFxAaEYRzls8hDt4gvIoxTnFTs1H+jH92adepQW4o1nwV9lUBgFYks/Ux9Uw1CFmE6j3DD7ZCVhXFb20eJnr9f0n+ukcfeGu4GAAAuzo5e9upDWfboLxffdMqwzGtEAmuTWqcbG/r8vXuYP5zvu6WPIVamhnI7S92Nv2QYHOUxKfCAeK6eamV6grWCSWDFJNBFI9Y5WGcY6rjv2Wm8eYOpzK/J2ofLrUxbKTgunTSLeOGfXBpxjYArl0lO0FT3sDbv6+1Zw+OL76Frg4OD3u5uV4z11vtaaEnurM+o9ckjIYDpWr+8ImsRwz40tZ4549fU1BQdHe3i7Nza+mFwsD8mJopGoxYWFg4ODAj4Uy9eVLq5uY2NjfX39z948KC+vv7Dhw83b94MDw9///79yMiIQCB4/fo1iUTq7Ox4+PBhZFRkWFiotZWFpaV5WFhoRETEmzdvQO56pVZkySLijRPgUKbyCO+TLKLI+w32/Y2pJ3vLXaPxsvnATdx0PuTidbU0rsJ8wlQOjnZs56lTJ6enpzFqXdYHPwiCxcVFTFOljhRLgPWHvn0R9yNWZNUlsHap1Q+jVjKP8fUgycBCunl4dNIVTTWirEydvSUyZJFuE1htmATWsgQ6acQyC6PTB/dabPxV79efglT2l5ob1uGsW2j4TgaJyyAhSjbY5tMsoF2VQ+tmkBi75KIiwvnTU8s6QsAqn5qair908azO4R/BCw7yCsDWtUp/XeuMVvCTrjUsLCQ5+aq3t1flsyf86QlAMNXV2XbhQvhxJuPly+rpqYna2pqAgIDe3t7y8vLc3Nzs7Ozc3NzY2Nhz587l5OQ8evRocnLy3bt3zs7OXG4Xnz8FacaFwM2s6znZt6anJ0EQAEEQ5NauU13rvBQKc+lELuHR2WOxtAMnDLYF2e5KcVGtCD/Wk2k3nU9clbnQwnzCxG17c43tcXGX+Hy+RA9NTNcqkZjmyQSC4OvXr/DHDjQmmK01auXnEydy8cscCBO5KxvyCMs3i+FHo9YuGrGDSkCHdgq+jYJbU6Gdgod71UrBLRSo+DYqvpNK6KYRu+nEFRsKfyQ7uOzZ4au4t+0H80y4YhLGGloXEuAySNV2luc1VBx3bKftlnfdrXBJU63ISO+Vg3U7jdBNF+PrJx3s6mpceQzyB4qDudyW3JxsScdI87z8sSSJJCAQCLKysry1td7+AEtbMWpdFlhFFBqIrvV9feWLqmd1tdXNTQ1T48MicEoETgmBqf5e7suaF329PAF/isfrrqp6Pjkx3tXZ0dzc9P79u5bm9y3N7983vWtped/V2QEI+EODA48elo2ODIl9q4AiIfixueljSzMI8IWgAArrWdeKyA22ZYV2ywmwyeM5+DfxZvmnNT1N5cjaG/2sFCrOG/TfsBewZ5Su6OLLGhfmE8Zv2Zmob0tLS5P0iYxRq0SP33kygSDY0vJ+bVLru0Rzjv8R9vcVOGd0OtNtlglcfzRqrbW1vaGvk6GnjYRUXa3Uo5prK+hqpupqpulqp+se+WrI1DtyXU8nz1Cvm7ZC4FqPs9H97ed0PW1IFfxj2MlcFxCFdXIlJQBf+VwasYtOrMfZFJkZRKurOCrI4rZs8NmzI1tf54WD9Qcqvgulep25WWifedBZmdX7YmrFmW7fcreoUNL5aPO8/LEkiSQAU6vz4UOvCbYreU2uSlsYta4Itb5ji7iVIK9O2PNKyH0l7K4V9dQLxUHU+1rY+xrg1oG8OkhN2vtK1Fcv5NWBXbUiXq2o95WQVw1wawBunYhXJ+JBZSc/VoK8+ume1/zeN/zeN1O8+klu3XTPKwGvVsCrA98XgMUnV0UDuXRQRFvZQVwHoasF2KTpfOLQLfy9QB1r1d9MlX6+5qz8Ks586BYOzrZMQ210HyCihqjV1kh1S0ZGBkatEj1Wl5BpLVPrRabqgd2y5kY6Fib6cDA3Prp3p6zMhp+Nj/2RiOxdTMTUwMLUwMJE+sHc+NimX3/aKb/N3PgYUr+h3pEdsjJl5/UFLGgSvtTDj0ataUe1ZP/+k4WhIRLMDAw0VVVlN208pq1tZnDM3MBgLQfFXbtkfvnF8KjOH500NNRSU3PYLdNIWAmTlV00QoKWxpFffnpqY454EJllimZVBk9Yo5gEVlICiO4UjnTTiG1UfD3R7vYxXYrsZo3/+hNx++arRzQe2Zi/pxO7GGT0tOGV7CfcFo9J/kDBmcpuuXsXo9YljH4kKzpDrRoYtUomr5XNtZ5sCM/MEBa7wBEV0oR3qGABBQ7COxSwgAwWkAEOWVTEBDhUJAjv0EWFdLCABnCowjs04R0aWEAVcqiiAqqoAPopukMTFX4WhIW0TzVDmdcpsiK+gr46UIanDQ9k4fJ9NCk6WxhHN4fa774fqieeM0yYtzhabTtvhm9KFOYTxm7OUKtAINlacEzXutgnxVqm1jhH9fNnQ6empgBAAIg3Pp8fHR3NYDD+YSABTlmzfwUCgYKCQnR09MTEBNLJ/v5+JyenB+cwapWOZaaUI4cP7ds1ODiIXP4CgaC4uNjNze3jx498Ph+R/FqICOZs6enpPj4+sFUFeCcIgvfu3bPaufHtclIrohFqJtkf/fXn4wrbmyl4NLWu/EAcaxGTwKpLAFE0wY5euxmkLjq5kYwrNdY/c0DBQW6TvYLs2UNqt4wMnuPsPlIJXfQ/lrxCnf9kzGy5D2RG14pRK/LcX84IRq3LKd2l1r3OqBVhIbHmkCQsgIKokAJHhAVryE8P0tVVjKB1rV/tBsAmTeQS2lNtCv11Am132qpv9DZTeBCi05FmN5lLhKcNwxUivpG+WqeEGWBqNVbbmpGeDgCARBc1Rq0SiWmeTGuZWuMdD104G8bn80FQgLjqiYmJYTKZQ0NDMz5nl/ZvHolII0koFAIAAFPr5OQkUuXAwABGrVIc0s1LrSUlJadOnWptbf3kNGtpl8hyls7MzPT19R0fH0caEYlEJSUly0qtMzMbxfOBS82MFP6ff08/qsnF5gZ/cnMixesTq2p9SQD5moPuNo9O6qYT35Hxj+2sLutq+ezfbbLxF+L2rRHqKuXWZu+Jdu1UyGgThLgou03oGqQe5zJIkK4VmyGMvFmXM4JR63JKd6l1r29qBTlEkEOEwPUOGY5LiElYtgUkIGCR+m/Yl4XpB1jvpmhv9DSTvxeg03DZcvi2A8ihwMgqXWvDMLWaqG/7hyJCUt/ZGLUu9t5fJ9Q68/ECBEGYWoeHhxd7xCtRDqNWtJQhzzfLY0N4LrUCAIBQKwiCElkgR/d1ZeMItaKbXW5q7WGQuTRiL5PSSSWEqSgq/vUvb/A2Uh9YYxViEljvEuil/zElhEcnQe5wmOSPZFyR6bFgpf3mWzc6bNvid3Bvpr72cxvT9yS7djoBBlfeMnv5gqnVDKNW9HNz2eIYtS6baKVQ8bqk1hlkKiACnwJ4hwTHF4AxbJeEEoDXsgpYpOHb+EfhhjHk/fSjW8jam9g+mu+SrMZy8AL2jE5bWqteMWqVwq0scRUYtUosqm/IiFErWlgYtaKlgY5nZmb6+flNTEygE5eVWnl0Ut9xKowTb/G29lu2xKgeRLSv6x0zsP5jElhWCSCeb9qo+Oe2FklHND0P7LbZtgEntylCef9jc8MGgm0HndBFn3HrukydwagV/cBc7jhGrcst4aXUv46pVcAhoANGrRJC6VezwdOAEW3qeA6+/pJpgO2uY/t/omhvzPE63HjZbOQ2np9PxKh1KffeapXFqHU5JI9RK1qqGLWipYGOw9Q6Pj6OTlxWaoXnQPYyKVw66Z6pgdHGX+5bmS7T2BqrFpPA9ycB6N4R2/eGv/500AilVianD+6y2PiT4d//Fq5+8K6ZQR3OupWCh3SzyzPxHqNW9ANzueMYtS63hJdS/7qk1hlPpBzI9hJsNgmJfBXJsAySSABGVjjnpzilJsY0knSAqSsTYLUj3VW1KtJg4KYDnyWFtcSYrnUp9/C3lhUKhR8+NK9Nzzeoda3YDGGJDA7/aDaE19EMYWTlKjqSkZGxwutaoYmO4jF3N510WfuQrYJMrYPl94cW2BFhElg+CSDLX6G7SbyitY1BeoKzStBUcVTYgtu+yX3vrtjDqiUWRnUO1m0UPI/xmXecpXeMC/lrxa3wDOGVX22x8i3OO3zCqHVesayRxPVKrSgHpFRhARX5KQmSYXm+SQIohSpl5Da+LtYky/2Qt5kcVXvDBeK+mliToVsOgiWwK2RYi0Ucu2X7betal3wDrcrzEWkUiSz5OL65gjVOrednrDH9Qa2xsbFMJhNb1zrvbbuWqRUZ6i190IbUsAC1trW1YetaEUHNjXyk4D337/ZV3PeB5DB3L5aCSQCTgIQS4DFI3XRSJ53YwSDVEu1YpgZRh1QIO7Zabdl4fMf2G3pHKm0t2qmEuarXP9zt0Eg82jdMKoY831DxMLVK6h3wm4cGswtIYmTkSyOZL6WLRKIFds1qEc45K3F2L5fhN0atyyBUqVX5GbUKgWlhmR9ieFbIIQs5UtCkzTvYwhLXvgRgXkVRK6T8EbBJk7kEXqbdvcAjZO1Npgd/iT+uWn7eqP+GAz+fKGBB04Zh37Bf8o6DrlBYQIEys0mjt+2N1bZ+gzUmiW8B9CMSUXrApeGfIAiOjIzA1keRWpFSIAhOT08DADDvoxPJBj+L4Z+wyw2hUDg4ODg9PY20BQ+pZ/UBaXEFI2Drh2a87t6GBDOARVk71yHAJsU7HQoPCxV7UQcRuV28eBGj1i+dprVJrfzGhn4/L95xykxgkrmoIOHQcN5s81Ir7Pmmra0NfT+u4A31DU2t/LpW2L1NL5PywtbCYNOGrKPaPMx2LiYBTAJLlgB8H3GZ5G4GqZ1CqMfbZOnrOGzbrP/r3802/XpF5/BjC+Mmon0HlcBlkHqYkEW0bgq+m06Enmx0cg8Nmk4M7RIb90aAFn7uoT/5QWtrxf5al49a4Scn+vkp4UAFXQT9HESnI3FkxDUr59TUFGx4Hx5lIWOtefOjyy5THKPWZRKsVKqdh1qR4RFGrYgosMi8EhjIcsjx1qLrbCZpboymHCgL1e27bjeVR+DnQ15eZ4i0YDYXIdSK+NEB2KSR27hlota59wkCqDBeDg0NZWZmvnnzZtazUiCAnK9MTEyw2eyuri7EJQ+8ghF+nqIrB8WbQCAoLS1tbm6enJzMzs5+8uQJnAcAAIFAAIIg0jq6OXQ9yx//RK3xa4JakethhlpDQ6ampoTCP6j10qVLGLXOewOCHPLapFbxutY/qBWNrNylGducS60gCGLUOi/hI4mwAeHkI5qGv214bGmKHhAjebAIJgFMAkuUAGx2+Im1mffBPcYbNxDktgQd3Ms21H0NrXrFddGJvTRSN43YRSdCjl7F9oq5YmRFgyvch8/WxzIp3PmoFaHBJY4Z4HrQtYEgKH4LI+gKReBv9+hssxSn6O/y6C6hh2/cSgcAACAASURBVDrIdBikanjIVFVVBafA4yioFaFIBArhn+javhSf1bEvZZMkHaNWSaS0WnkwapVo8diXhow/eLqYS8k9mXb3Q3WD7XYRNDf4mMmWBOtxM+0ncwkwjXxaFvtFOcOVLDe1wg9E+DZDnq2Tk5PDw8NtbW0MBuPBgwd8Ph8AgLGxsf7+/vHxcZhpX716paioWF5eDj/EJyYmBgcHR0ZGYKYVCoUCgWB0dHRgYGB8fBwEQS6Xe+jQodu3b4+MjGRnZ1dVVcG8Oj4+3t/fPzo6Cj/6+Xz+2NjY5OTk4ODg2NgYn8+X4jN37tPk88ohasUd3dMQb7oWdK0YtS7lMYJRK0atXx1qQ/4naUSy/HbmDvkmgt1X82MZMAlgEli0BGB3ry8drJP1tN3377aS+ZUhKxOnfvCRlek7okM7Fd9FJ3IZpF4GuQdSolLgr0gL6Fp7PlGr2F/rHXi08Pk7fe47fzEpQiFEifBgaWpqalC8TU9PgyDI5/OHh4eRL++jo6MCgWBqampsbGx8fHxoaAjxQQ1PTxsaGhoeHp6amoIrHB8fHx0dHRkZGR0dRRb7CAQCePxTUlLy6tUrAADgIdnw8PDk5CQIgCKhCBBAQ7Lh4WF47DTrqBAGnpW+xJ8YtS5RgMtaHKPWL9LUUoaSP05ZGEoBNqk/y+FuoI6vhRxFV9bPZneBn9bHqxbDtwgAmwxjCTLzHKEUOEV0hwqwyctErQisIhGRSATjaHt7e35+/tWrV3Nycuzt7UtLS/l8/vv372/duhUZGZment7Y2DgwMBgdHfPnP/85MDCwvb29ra2NzWbHx8dnZGTU1NTw+fzp6en6+vqsrKxLly5lZ2c3NDTk5ub+6U9/cnR0rKurS0tLq6iomJ6ebmlpyc3NjYiIuH79+ps3b6amppqamq5evVpSUpKYmJiamvr69WtkLvFy3PCfv+EwapW+jDEbwmiZYrpWtDTQ8dWaIVxpY37gL3+5ckSzW7yabtEjcqwgJgFMAgtLAFaT8hjkTgbpDcnh1jGds8oHyPJbaTu2+ansu6mvXWVr+ZGC5zHJXAYJma7fK8ZX9N8/WkGoVVamqPAOjJGfv9PRz5jFxJHa4LlgPT09v//+e1xcXGJi4qNHj0ZHR9va2mJjY3k8nlAo7O/vT0tL6+7ufvbs2a1bt1gsVlJSUm5uLpfLFQqFAwMD5eXl8fHxiYmJ5eXlAwMDY2Nj6enpWVlZaWlpeXl558+fHxoagpdQpaSkNDQ03L17t7q6empqqqKiIjk5OTExsaioaHBwEACA5uZmDoeTkJBw/fr15R4mIYLDqBURxRqMYNSKUetiJICAqIBF5OcTBCyieMkreeAm7skFo0jy/uO6Mo56Mqmuh99ctuKziPAaVxhTATZpOo/w9ILh4E0cbPwZ4EiZWpFPhsh0XPS9B4Igj8fz8PBwdHS8evVqUFCQhoZGWVlZb2/v+fPnAwICUlJSQkJCvL29X76sy8i4/tNPf4+Pj29ubg4KCvLw8EhPTw8PD3d1de3o6GhqanJzcwsJCUlPT3dxcQkODs7Ozv6v//qLt7f3q1evqFRqZmZmZ2dnUFBQYGAgXK2bm9vbt2/LyspUVVUDAgJSU1OZTCaZTB4YGEB3Urpx5J0krhajVulKF6oNo1a0TDFqRUsDHV8tao07rK7y1789sbGAVTp/DIiXvLoPqwqTACaBeSXAY0Dmu3lMygcq/rm9VZquts/+XdYyvx7fsfWi6sESk2PNYmc53WJfrz0MMoysfQxI+9pItHtDtJ2pFkWtd4sK+Xz+MukY4YHT9PQ0i8U6efLklStXLly4wGQyq6urX716paOj09DQIBQKOzo6CARCY2Njenq6rq7u2bNnr1y5gsfjY2JiRkZGcnNznZyckpKSUlJS3N3dCwsLuVyupaWlo6NjRkZGYWHh3r1779+/DwDAq1ev7Ozsamtrz507d/v27ebmZiKRGBUVlZSURCaTnzx50t3dHRgYCI+vwsPD3dzc3r17h36cwnFkvDd31+JSMGpdnNxWphRGrYthth9HlbrwkSKzfxEohdeyClikrlRrb6uderv/RtHeXBqk05xkPZE3Y9kLYJPGc4g+FjsSHVWGb+GXY4Ywoln9nNZm7ikAAJ4+fWpubt7Q0MDn8xsaGnA4XGlpaV1dnb29/b1791paWioqKszNzW/cyHr16rW8vMKLFy+ePHmirq5eUFDQ1NRUWVlpYmJSWFiYk5Pj7u7e2dkpFAqrqqri4+Pfvn37228b8/PzBwcHyWRycnJySUmJmZlZZWWlQCBoa2vD4/FZWVnFxcXq6up1dXUAAFRXV+vr67969Wre3krlQfB5zWuFWuFvH4juHVrX6njoHLaulfMNDyVshjA2Q3jeETM6sY2Cw2/d6nHgQBeN8Nl6OQxZMQlgElhOCfQdp85MAGaS2+nEDxTSI0vLsIP7dX/+s/Z//+9g5X0c42OviA6tVGInndhNh1Sv0HpXOplloh+mrthEtoeWvDIgg0+I55tlmiEMr10CQXBiYiItLc3Jyam8vPz169c3btxobm6ura09fPhwQ0MDCIIdHR12dnZv3rxJTU11cHDo7u4GAIDFYqmpqVVWVuJwOD8/vzdv3rx//z4yMjIsLOz9+/dWVlaZmZl8Pn9qaopCoVy4cGF4eDgxMdHb25vL5Z49e/bGjRtv3rwxMzPLyclpbGxksVhVVVUPHz4kEAiPHj1qbm5+8uSJlZVVdnY2vDgLPS6Cx3ufD3LQ+785jlHrN4tsBQtg1PoNA8SFEe5H24vAxoz7XLHpYLQBYQGL3BhnFEnaRz6y2cNM/vJxlaooo97rdnwWaSKXSDois0/mPwrPHJnOwwNs8vAtB6lbY5r1LEM+TwqFwnv37uFwOHhCy9DQ0KlTp0pLS8vKynR0dIKCgi5fvhwZGUmhUFgsTk1N7bZt26urqzMzM3fu3BkeHp6QkBAbG4vH42/cuJGQkHD27NmhoSF44cfY2FhfX9+mTZtZLNbQ0BCFQrl27VpWVpadnV1ra6tIJOrt7XVycoqLiysuLtbT0+NyuQAAdHR06OnprTS16u5tTDAD2JAN55W5dOGGYLX8zPcOsaUu5NuHgEWMO65+LjR4KdaY5r66kJRZ1wPymIUzIH/R2WaVRYrMjWC6VrRM1rWuFTnp6COSVnxVdK2/mxtr/PTXGwZ6mKIVDfNYHJPACkiASyPCgccg82ikXia1k0Z5amsVqX6QqLDZZvtGj4P7L+vqFFmavcTbfaTguFRCD5OSa6Sn/Jc/B6scaCTZ85jkTjqxmexgtn3rvbtFc7Ft6U8n+K0Hj5FAEKypqXFxcXFycvL397906VJLS8vLly/V1dXfvn0LAEBXV5e9vf3bt2/T0tICAwNhkx8NDQ179+5lsVh6eno0Gu3SpUtxcXE+Pj6XLl368OEDHo8vKiqC576Vlpa6uLjAFMpisQYHB8PCwm7cuDE4OOjn50ej0Xx9fWNjY6uqqthstomJSUREBDzoIpPJGRkZcyfQoV/ZSxeFSCTCqFUqYlymSjBqxah1GSUATf3NJtReNMt0VfWy2MU4ujkMt/fJBcPudDvKUdn/63/+HyaKP71OsJzOI47ckrINYeRBhrZfB99FIAg+ePDA3Ny8paVFIBBwuVxHR8fS0tLKykoLC4vs7Ozq6urHjx/HxcXV1Lx8+bJORmZLVVVVfn6+srIyvPfhw4cXL158+fJlRkaGv78/DJ/t7e25ubkNDQ0yMjJ5eXmDg4NUKjU1NZXFYllbW79+/VooFPJ4PCaTmZycfPfuXVNT076+PvjL5cpTK15vX+Nlc4AN+TpGvjusAL4KWMSJXCIv03YixwEU+z1CvnTw8wmXmGrnQhZPrSAIdnd3j42NwWcfPt1zIUQoFPL5fC6X29HRwePx+vr60I6L0PiKXDBzK5n1RMaoFS2QNUit8BkEAGB0dLSnp0cgEKA7jMQRC5Z8Pr+3t7etrW1oaAhtQhx9qSClJI8smloRYy0LR+aOwrl0UrymhsHGDfU467l7sRRMApgElkMCX7xPxard7uPUZhrpBcE+3+xY5CElssI2nJzMqX07M3W1nlqadFLxd4z1d/zHv//6//7fZzWUm8m4dhqhmWwPUeu9ouWYIYx80wdBUCAQ1NXV3bt3r7y8PDU11draOiEhobq6Wk1N7dWrVwKBoL6+3sLCorGxMTU19dSpU8PDwwAAPHjwQFlZ+eHDh5aWlv7+/s+fP3/x4sWtW7fu3bvX2dlJJBKLi4vhwdjQ0JCnp6eHh4e1tXVXV9fIyEhYWFhWVlZbWxuHw3nw4EFGRgaFQvHz8ysoKCAQCIWFhTU1NRUVFZcvX66qqoK7in4jI4M9yZ/DC+fEqHVh+azuXoxal5HZVoAB1kUTAJs0lUfszsTlnT5CP7rFcN9fo8l7j+75+7/+j3/5t//5LzaHNnen2UhX14o8xdD0At9pcEpLSwuRSExKSqqurr5+/bqurm5xcXFbW5urq2tqamp9fX1OTg6JRKqoeNLQ0LBlyxYWi/X69WsLC4vw8PCqqir4Yfr27duHDx8eP348Ly/vxYsXCQkJnp6eb9++3bdvX3R09MePH4lEYlpaWn19PYlEunr16tu3b3NzcxkMRnl5eWlpqbm5eX9/v1Ao7OzsXOkZwh+bCXr73l22ADlUtFtdxGLWclxXwgKK6A5VeIf6Js4k0HZ3oa/6hxTbqVzcH+uiWUTxDOFFUitszzkoKKi0tFTs8RU61XO/WcCXQXV1tbOzs6+vX0hIyPXr12HTiIiRfeSNiFxIX31MY9SKFtEapFbk9i8sLDx//vzIyAjSYeR0I44c4A9MISEhOByusLDQxcWlo6MDuZaQgouILJpaFz2wbiTYOcjIuO/bi80NXrQMsYKYBL5VAvNSaw8N8s6KBC6d1E0ntpJxtQ5WJWYGTgrbD//0E05+W7KWRpLWIfn//P/+5X/880//69+uah9qINo1fU6ti3j4fLUI/MacnJzMzMwMDQ2tqKgoKyujUqnR0dHNzc06OjppaWnV1dXR0dHGxsYwtWpoaBQXF/9jAZSXlxeDwejs7AwJCWEymU+ePKmsrAwODk5LS+vo6CASiffu3YPVpNPT0wkJCaqqqvHx8QKBYGxs7Ny5c1lZWTU1NQwGo6io6NmzZz4+Pr6+vi9fvmQymXCjubm5eDy+pqYGeVzPGt0h6V89zK9mwKj1qyJaxQwYtWLUuuwSgJVpAJskLKD2Z+HTT2kZ7//b//q3//Of/+mf/vmf/ulf//WffSx2tabaGaltS09Pl8rQ8P9n7zzAoli2fb/D2fec8+4L977zvvfuyXu7zaAIRkwEM4pITkOY1DPDDFnMBCVKkozkjEiSLEkRAwrbDJJFcpacJvKcKe0zIkkYcIDqrz6o6amurv53mPXrVbVqxjuKzWY/fPiQTCZTqVQDAwMEQZ48eUKn07Oysmg0moWFBZFIDAsL6+/v7+npwePxp0+frqioKCgoMDAwoNFooAMMnU4fGhqKioqiUCgmJiZUKvXRo0cfrGFra2sikVhQUGBjY5Oamjo6OpqRkUGlUj+MgCUSiXFxcYODg7/99tuZM2f6+vrGx8dbW1tNTU1ra2tnbPacC3z+QOeOa8VzqVUDUCsXJjPJgkVW9KSjGe4Uvllc125vPM5WZ9vWn/87/uCaW+dlm8I06CncgF6sdCTA5NB8xrUymUwajZaamgoC7qPXEnh/jE43x2aziUSitjYmLS3d2toa/HYC7ASbgB9v1O02G3aF1Mp/cQottY6Pj9+4ceND/LO2tjb0/I6Pj4M8uobD4eTl5cnKynp6et27V6iqqlpfX89fjMVigYmy0D51n99i/GJ8ll98ar2nqaq2cV2yojxqK8MMVAAqsAgKTAqu/C+P0ALcoE1UpJVCyFFTtJKWVFi75sA///mX//7ffvjhh59+/H7H//u/CQrHqhA9tc0iqK/1s8eKQD+w2eyqqiorKytjY2Nzc3NLS8uqqio2m+3v729gYGBmZmZra3vlypV3795FRUXJy8sbGBgYGxsDG4nFYtXV1VlZWRkZGVGpVPAe//379zY2NsXFxWBELujsRqVSy8rKOBzOyMhIeHj4nTt3BgcHXV1dDQ0NTUxMKBTK06dPR0ZGsrKyyGQyjUYjk8lhYWEMBmPCsaLsOssn8ITNJ/0IqXVSWYRkJaTWBWe2hXBbLa06OZnkT6MZSUPJSLGn2uFt//z9v/30ww8/fP/9999/993av/2vUFOZE/tFBE6t6BNtwv0G1jc1NVVUVDQ0NDQ3N4+MjIyPj4+MjLx79660tLSmpmZ4eBhs1dTUVFVVNTAwwGKxWlpawLdDQ0OAcIaGhqqqql69etXY2Ais3vb29qqqqt7e3sbGxq6uLg6HMzY21tjYWFZWVl1dPTo6Oj4+PjQ0VFNTAx7iIyMj1dXVY2NjExopwI+fP9A/RmMq91cdvUUcSyUw0ohjKYTRFDz4O5qCn0+aspJb+OEkLO9b4gNnBbFf/uN3P/64+i//oSv9S5yFTGuUznAyfp7RmAC1Jicn9/f3P378OD8/n06nd3d3Z2SkhwQHBwcHpaWldnZ23rt3b/fu3fr6+iUlJS4uLn5+fkNDQ2VlZVlZWWD2uXv3CkNCQgICAqKjo0GMfn637aTnBVIrvyxCSK3oq4eYmBgjI6O2tra3b9/Gxsa2t7cPDw8XFnLP+PXr12NjY5uammpqakxMzPbs2RMXF1dUVKSiolJTU9Pe3p6YmFhTUzM6Osqd1yoyMjQkJCY6uqKiYvYjzaak1q3rSnGYehL2y9RAwjaQcQ1kXOP0iYJvouBbyPhWCgFNTWSc1wEpjQ0bquA0rXw+rkUgFrgLqABQAEXTLzP8BbhRl6jcmMNNZFymysmDv/zj9z/9+P333//w/Xd//N3vDv/znxnKigob1ubm5kw1uoH/CTz7PGoj8WeYTGZzc/ObN2/Kysq6urpAn+SBgYGampqKior379+Dx2ZkZKSNjc0b3tLe3g66OLHZ7O7u7vLy8srKShCoCYQdHhgYAHYIm80eGhpqaWnhzvbH4Ybf7+rq4s5zw2T19/dXVVWVlpY2NjaCw6TT6fX19aWlpdXV1UNDQ/zHxd9g/vXzz0Nqnb+GC1cDpFZIrYuhAPDj9SbgU62OKu7++08/fcfD1e/A8oeffti3+a9bRFYtHLXyYxs6hGPS+wr9Fmwywe0G+hACOgWbgwKoTYxm0G/RgXDgK9QBiD7BJ2wyaasEupJd/+6tsqxEpLlM9pUjOXZH8+yP5X78eyzPfv5JLs9e7st6cu3kcu1O5NvL5zvI37p0RH7bX374nnv+f/jhhzV//p/aMuvjzx2y0ds7n2hMLBaLRqPduHHj7t271tbWSUlJIyMj6enp5uZm9vZ21laWqirKt24lZ2VliYtLYDCYoqIiV1dXb2/vkpKSy5cv+/v7DwwMFBcXnz5tYW1tY21tfeLEifDwcPCGgv8S+vJ0QGrl10QIqRW9DePi4oyMjB48eAA8Bi0tLa9evTp37tyVK1esra3V1dVDQ0PLysqMjIwkJSWjoqIfPXqkrKx87949b2/v06ctampq6uvrnZycrK2snJ2c8DiclZUVmMaQX4Gp8lNRq8LGVTHycvEKJ6ZLp07ET50STp1IPCWffOpECl+KO3EMs2792Z3bmygESBFQAaiAsCkwAWXbqchTjLrxdon/+h///ccff/jh++9+/PGHP/z0u//693/X3LBR/L/+Kzc3h8ViTfV4mfN6YISAzSeYNOg4UmC6oAYSi8WKi4tzcnIaHh5GN0czk7YE/Q391y7Y7HE2h8uuvL9chOVmuMs4ZxwwLbpHdAQHWjlaIbpGIBlIrQKRcYEqgdS6GMy2tFyjC9TasRTic28VVanVf/j9jzxa+YisgFt++t3v/vjHPy4EtX555/BGO3587qO9RplMJhqbjv8piRq7aD3guQwel2gefEQ3RB+mKKOCzUF59OELUGdCJWgZdI+CznCpde/WDSd3/6IptQYjtUb/wHrdA+t0DqzVObAWI7taR3YNRma19hRJR+ZXHZlV0yRt6VWaUqswsmtAhR//yq7Rkl6tIfUr5sB6DanV6vtXSa79jx9/+HgNfP/997//t98d2fazstQGZ0f7OccQ/jATL4VCMTc319HRiYiI6OvrYzKZjx8/fvbsWVtbW0lJCQaD8fDwGBgYUFVV9fb2Hh4ednV1pdFoeDzewcEBvN99/fr1gwcP2traysrKzMzMjIyMOjo6wLWBntYvzwikVn5NhJNawX0XHx8vLy+vr69vY2PT2NhIp9Pr6uoePnzY0tJSXV1tYWFhamrW3d2dkJCAx+Obmppevnx56NAhHA5Ho9HKysoYDEZra+udO3eam5srKyt9vL3VVFXfvn07zbXBr8xU1Lr/57/Jr/11mnRyzS+zSmt/VeBLcr/+suk//+QgtbfFgChs9jpsD1QAKsBPre0GxBe6mmf27JD+619E//M/xP70p+1//vPuv/3lyLpVqhvWyfz9b6v+9KfcXG4kXv5HikDy/FYHQEowrIb/sTahDIfDqaioePLkyQTfL/pOn788aCT/mo/GEg9NAaCOszkcFnucM85msri8ymJz2FxjDQzNQGsQyPFOXwmk1un1+bbfQmqF1LrgCoxnUcDIycEkQsyZI/vW/+9/+7fvvud6W78HnYR//OE7kdX/R2T9PwRLrWw2G8RkBx1XxsbGPrEHm8VicjgcOp0O+uvyj1gDD1PwIAaj10ZGRtAnOAgeAAZXgG6B4LEOhmcA9B3lLfydBtFxlegrRrAXsC0oCdaA2dK6urpQhAYPCP7H/TwfGRwOq/5dreaRbXftjzWGaDaFajSFajSHaTeHaTeGabVE6LZE6E2XInVaZpEawnUawnXqwzD1YdrvQrXrw7TBmsYI3YZwnepADUMFMeBr/f677/7w+5+2bVoddfqQPW7fhHGt4+Pjvr6+hoaG/f39Mx44h8PBYDCioqIg2jMYedjc3PzgwQNfX199fX0wd9Hg4KCamlpISMjY2Jitre369RvExbeCCD0fvLXd3d0PHz6Mi4sjkUjbtm0jkUhtbW1fvryY0BhIrfyCCCe1gtstNjb2559/Wbt2vaurK+i01tvb+/jx45s3b1pYWOzduxdBkL6+vuTkZBKJ1NHR8fr161WrVq1bt97AwAD4VIeHh1+8eHH79u3Lly8fOHDg6NGjFRUVH40wfhUmy09FrZoSa0p0NZ/qaX2ZnulpPdPXfqqv8wyrO0PS13mmr80t/KmeYl2NS5I7yVvEaoh66NSRnTQSmEMSMgNUACogDAqg7PpUR+OOmuIDdaVibbVn+tovcDqVJGwlXj9bVUHyr3/9j//1P3JyBECtqPEzMjJCp9NbW1uBETI8PDw2NgZiE6K8ymaz+/v7GQwG+mYfYDOwST7ZVJze3l4Q4o7JZA4MDPBbR+BBODw8PDg4CN7jo5Wjhg26hk6ng3oYDMbIyAiDt7DZbOBgYLFYIyMjYPIF8MgdGRn5EJT4y/Gukz19Z7sOUutslfoW5SC1LjizLZDrcqlUi85rAkLIsjLI+XbHZDf/5affcQe1fscLyLT2b//Tl7b/xP6NgqLWurq6mpqaxsbGe/fuNTQ03Lt3r7e3Nz09/cmTJ5/wg/tCsKSkpKCgYGBg4MNcZA8ePCgpKfntt9+Ki4ufPHny7NkzYNE+f/48KipqkLd8mMymo6MjOjr6/v37nZ2dPT09o6OjTCZzbGyMwWCkpaVVVlaOjY25u7v/9ttv6OMYwHNlZWVxcXFRUVFNTc3bt2/BLkpKSp4+ffr48eN3794x6Aw2mz06OhofH+/l5fX69WtQsra2tqqqqrm5GX2sz/NBAaiVcFKSO19rGpl/2hve3LkII5VAT8F/mdBgv7O59tAgTCADNuHwprphpBIeuSjsEvnrH3//u3/8138q7tvgQ9nXHKHNSCUEmh52c3bi97V+FbWyWCw8Hn/u3LkPflQLC4uqqqqhoSEHBwcKheLq6hoUFKSuru7q6jo8PKymphYUFESn052cnEgkUlRUFIlEevjw4ejoaFhYGBaLtbOzCwkJIZFIgFVm1BxSK79EQkit6Fuh2NhYBQUFT09PTU3N7Ozs4eHhW7dSEIRkbW3t6+tLJBIpFMr79++TkpIQBGlra3vx4oW0tLS3tzeBQIiLixsaGnry5AmFQrG0tPTw8Dh79qy8vPz8qVV727o3eN0WCn6yRGg14CUqsXX6xCvWYkDgryRbVenUml+TT50A1jkIBsMfEkYYrHbYBqgAVIBfARCfiTvY1Yh8X0uVtnUzsnXztn/+UyC+1uHhYRDHITExsbCw0Nra+tGjR7W1tTdv3iwpKWlqamprawNv/BkMRnFxsbu7e0lJSUVFRXV1dVVVVUVFRU1NDXfgDJPFZDJfvnw5MjKSmZmZlpZGp9NfvXqVlJTU0dExMjIyPDwMfAZMJvPOnTtRUVElJSWlpaV1dXVPnjx5+vTpixcvnj17Bl7Tl5aWdnZ2lpWVxcTEjI2NdXZ23rhxo6ysbHBwENA1m80eGBiIjIz09fUF9TQ1NWVnZ3t5eT158qS8vLyqqgrEoeD/MZpDHlLrHERbtE0gtUJqXUAFUHQB0DKaQqwPw8SfP6K6f92f//MPP/7w4/fff/fvf/zJSW9rbYiWAGMIP3z40NPTs6ioyM/PLyAgwN3dvby8/PTp0wkJCe3t7Z2dHb29Pe/fvw8ODnZxcSktLbWzswsLC0vlLbdu3YqPj7exsamurh4YGAgNDdXW1q6qqsrOzg4ICPD09MRgMKampt7e3oGBgcXFxe/evXv06NHw4JCVlVV+fn5ZWdnOnTvv3r3b09PT3d0NXkC2trZ6eXklJiYGBgZGR0dHRETY2NjEx8cn8xYajZaUmMigM8bGYWPdngAAIABJREFUxh4+fCgnJ3fkyBEXFxcfHx9vb28XFxcqlRoVFTU6OioQcOVSa10tP7XOhkLnX+bjzDeZ5P4EnL3+LvFf/7em9PoAowOVAer0VCIzHWFnkAJMDrlenRe1IgiSkJBQXV1taWkZEhLS3t5OIpECAgLKy8tzc3NPnTrl7Ow8NDSkoaEREhJCp9NdXFy8vLza29tdXV0/8G1HR8f58+cvXbr0+vXrx48f43A4Mpnc1tY2o/KQWvl/tISQWsFbJA6HExcXZ2JiUl9f7+PjQ6FQKioqPD29zpw58/Lly6dPn5LJZCKRiFJrZ2fny5cvNTU1Kysrb968icfjnz59CqbFevjw4Zs3b2xtbeXkjpeWls7T16q9bV3FwgRMaiTjnaT2mGzbVoPoo6Ywv30M81ABqIAQKsANzkRFXmG1LXZIGEhsytNQ0d62JTc3e8KwI/4H7yzzfX19OTk5RkZGlpaWvr6+eDw+MjIyKipKR0cnlLeEhYW1tbUxmcyamhpjY2MZGRlbW1tvb28fHx8vL+7T0sbGpqGhAbxnNzAwaGhocHBw8PDw6OnpuXr1qra2dkBAwI0bN+Li4gDTDg4O+vv7IwgSHh6enJyclpbm7OwcHx8fGxt77ty5p0+ffvDQmpmZFRYW5ufnm5iYDAwM5OTkKCoq2tvbR0REREZG3r17t6WlJSUlhUAgUCgUFxeXoKCg8PBwS0tLEolkZWUVGBh448aN2tra+esDqXWWF9I3KQapdQGZbf6G/vKogZWODCboNYZrZ9gcP620WXXvalutzXI7Vv3uxx//8PsfMAc2NoVp9Mfrq8iKCsrXCqa3vnnzppWVlbu7+927dwsKCtTU1ExMTC5evGhkZBQXF/fhdSCFQtHW1g4KCqLRaMnJyc+fP3/27FlxcfH9+/fNzc1LSkoKCwsNDAz2799/48aN58+f37p1Kzo6+uHDh4WFhX5+fnfu3AEj3C5cuND7vsfKyiozM9PT03P37t1ubm7+/v7Ozs4uLi5JSUnl5eW2trbV1dV3794NCwvz8PDw9PRsa2urrq5+8eKFqqpqSkrK0ODgixcvzM3NEQTBYrFpaWllZWWPHj3y9vbW1NTMzMwEAYfn/5hgs1nv6momUCvqEl+ES+5dqJatzvaE84fehWoNJ+PBHkG8ruvGB12vOs7N1wp6X1taWubn54+Ojubk5JiYmLx7987Pz09PTw+HwxkZGVlbW/v5+Q0MDJw+fTopKYlOp0dGRkZHR4+Ojj59+tTU1PTVq1eJiYkaGhpEIpFMJjs4OJw7dw5Q6/TgCqmV/8oUWmodHx/PyMi4evVqd3d3TU0NhUJJS0vLy8sDsGpoaGhkZHT27Nnu7u6CggJLS8vOzs6amhozMzPgf7CysgoICCguLjY0NNTV1TUyMrp48RKVSn39+rXQUmsnjVSgoXJyza83FE60wdGtMJIwVECgCqCdewXOve1UpIKgZy65XXvj+kyVUw1knPoW0by83HlSGegenJqaKi8vr6amhsVicTjc5cuXL168iMVib9++7ePjExMT09/f39ra6unpSaFQMBhMXFzc8+fPnz59euvWLTU1NQcHB+78CLxowIcPH66urrazs7t27VpRUREGgzlx4oSGhgaZTDYwMEhMTCwrK3vx4oW9vf2HIRj5+fmFhYWZmZkeHh7Pnz9PTU21trYGoYZVVFRSU1Nzc3ONjY0bGxvNzMyOHTumqqqKx+MJBIK7u3t+fr6urm5sbKytra2np2dhYaGVlZWXl9f169cpFMqdO3fevn07MjIy/S81/+/UVHlIrVMpIwzrIbVCal1YBRipxPpgtYQz+0+riCvt+cVJV7zUV20gHmt8UvTf/9tPJ3f+oyFCl5mODCTiBEWtvb29N2/evHz58uHDh6WkpC5evBgaGnr58mUKhZKcnHzt2jUpKak7d+7k5OQYGhricLiYmBgMBqOvr/9hjmwikYjH42k0GoIgr169KikpAS8ak5OTGxoaEhISzp49W15enp+fT6FQSkpKenp6bt++bWBg8L6r29LSMiAgQElJiUwmh4SEBAUFKSkpYTCY5OTkqqoqGxubO3fuxMTEBAYGXrt2LSAgsL29/fr161evXtXR0amprm5qbLK1tY2Kiurs7PTz87OwsEhOTraxsTE2Ns7NzRWUo5U3gncSauVHx4UDV4Cm/fH6PTexzDQimKOVmUZEZ4u9bnJwPr5WDodTXV39/v17EFv/1atX3d3do6Oj1dXVz58/7+YtdXV1o6OjFRUVra2tLBarubm5qalpfHycyWRWVFTU1dWNjIzU1NQUFRW1trYODg6+efNmeHh4wjDjL5/dkFr5NRFCagXNY7FYDQ0NdXV1TN7S0NBQU1MzNjZWV1dXWFj49u3b9+/fl5WVDQ8P9/T0VFdXg/7/b968GRkZAVdLaWnp6OhoS0vLw4cPa2pqBgcH371719PTI8zU2kzBG0hIqIuur8DrdtJI3UYUgVvYsEKowMpUQODU2mVI7jaidBtRKvC61pLbjv7zH6mnuO+bmsl4lU0b8vNz50llHA6nu7vb1dXV3Nw8MDAwJiamqKjI39+/pKQkNjaWSqVSKJTy8nI6nR4VFeXs7FxXV5eRkUEmk729vX19fbFYbEBAAODMcQ6nr6/v0KFDVVVVdnZ2jo6ODg4OYWFh9+7dS05O7urqGh0dHRsbu3Xrlr29vaWlpZ6enoWFhYuLS35+vq+vr6WlpaGhYVFREZvNZjAYioqKycnJ+fn5hoaGwcHBFhYWxcXF6enp1dXVDAaDTqe/fPmSSCS6ubmBuWSvXLly8OBBW1tbNzc3AoHg6OgYEhLS19fH/0s0tzyk1rnptjhbQWpdWGZbOAAQ8ppZ6aTBJHxjBCbcZD/52HrSMREv8u7n3qpDyURWBmkoiYA5sE5y4/+9ay/HyqCAwoKiVtCtxcXFhUQiKSsrW1paAkfrhyddb29vQkICgUDo7+9ns9mxsbGenp6lpaUWFhZggIcbb7l37979+/c7OjpAGRwO9+TJE09PT3Nzc0VFRRqNpqamdvz48bNnz0ZFRd24cQNQ64ULF86cObN//35PT8+xsTE6nX7p0qWEhISxsbEP88GeOXPG29v78uXLXl5e7u7uV69eLS0tzcjIAI/pjo6Ozs7O4uLilpaWZ8+eeXl5ycvLE4nEXbt2GRoaxsfHV1dX9/f3CyR44KS+1kW+nACmfhzymskdW8vOIHEyyfOkVvShif6uA5ZAP6IFwPBmlDRA91G0MIj9AEgV7VnKv+2XeUit/JoIG7VOOIno9QDWg5aDlWhJEEENvULQOJbApc/iLeCkgzVonfw6fJmfKhrTwvUQ7jIkd1CRh1qqUn/7e/jxI60GRDiodWXyFTzqhVBA4NQKgqW9I3FnWsaIbkxTOtlGRboMyc0UvKqAqHVkZOTx48dYLNbR0RGPx7u5uYWEhLx8+RIMgCIQCLGxsc3NzU+fPgWDRWNiYrS0tKSlpeXl5bFYbHBwcElJyYfRNHQ6vb+/X15evrKy0t7e3traOigoqK6u7sWLF5cuXfL09ATxOF69euXh4ZGRkeHq6hoSEuLj4/Py5Ut7e3s1NTUtLa2MjIy+vj46na6srJyRkXHnzh1DQ8Pr168/ffq0paUFhKh4+fIlg8Gor69XU1NzdHQMCgoK4S2hoaHAQ8DtwnbNQ1dTt6Wl5cun7teugdT6tYotZnlIrZBa56gAOmb1I3vwwIOdQWKkkZqidJ95qUSelj2nJo4/vMGHvKc2UI2RhgBXGysdGU4mOuhujzSTGUjidhBlZXARV1DU2tbWFhgY6OTkFB0d7e3t7ezs7Ofnd/Xq1fPnz799+/bixYseHu6DgwMtLS0ODg4kEunGjRs0Gs3d3T0oKMjY2NjExCQoKCg0NLSgoKChocHZ2VlOTi4kJMTX19fZ2RmHw+HxeCcnJ2dnZ1dX19TU1A9jZclk8vv37y9cuODIWzQ1Nd+/f9/R0UGlUh89esRiMpubmhwcHOrq6h48eBAaGurm5qavr0+lUt3d3f39/alUamJiYkVFRWRkZGBg4IcOMyQSycTE5MGDB9HR0TY2NhQKBfwegGC283xATEOtACan/zsfvuVdKtzrDVwz6PWAXkICodYv+WEOa8AmaMDDGTtlQWrlvyyFjVr524by54SV6EcUXPmZFv12QgYtPGH9VB8Xn1q5AV2oSCuFcFFyF26TyCt97YWw3WGdUIGVqYBAqLXLkMyfmqlIqNxh3Q1rw48ebCHjwWumZgrX15qXlzPjj9FUDx+wnsPhjI6O/vbbbx4eHv7+/kZGRlQq9fLly46OjoaGhtHR0V5eXufOnXvw4EFMTMz169ednZ1NTEx0dXVDQ0Nv377t5OSEIMjFixe9vb1fvXo1ODhoY2Pz+vVre3t7V1fX2tra7u7urq6ue/fuUanUhw8fMhiM+Pj4pKSk5ORkR0fHtLQ0GxsbOzs7CoUSGhp6/vx5c3PzzMzM/v5+Z2fnvLy8tLQ0Y2Pjqqqq7u7unp6eD32dLCwsQkJCRkdHBwYG8vLyfHx8PDw8oqKiYmJiYnmLl5dXcnJyS0vL7du3BwcHpz/82XwLqXU2Kn2rMpBa58hs87Hdl8e2rHSEmUZkpBJY6VwcZaUjjDSkOQZ7z1nRGrOTKLf5ip5k3LmDb/zVBhI/jl0EB85KR+ipxDJf1d547Kc1JAH2EO7o6IjiLSA2bE5Ozt27d2tqaiwtLZOSklRUVB48eNDU1BQcHKyoqIjBYCIiIszMzBISEgoKCpycnK5evZqbm1tYWFhSUpKQkKCkpCQrK+vv7x8YGOji4qKurk4mk69du+bo6Ojr65uXl5eamkqhUOrq6sDDt7q6WlZWNj8/PysrC0z1Oc7mNDc1W1pa5ubmhoWF+fn5Xbt2zcrKSkNDIyYm5smTJzIyMklJSdXV1devX3d1dQ0ODvbx8TE1NU1JSSkoKMjMzAwPDwfNAxHh5/mwmIZaF/rKZPFCLk3YC7qSlY4IhFrnqc/cNofUyq+bkFMrf1MXOf9NqBXgxH1NVYU1a6Llj3JdN1TSymQMeNRQAcEqIBBq5W9SOw25IX9MT2SD90GpSqIeOk8Vz9e6MSfn9oT5UefwBBsaGrpz505iYqK3t7ejo6Odnd3FixfBa3cvL6/IyMjU1NSqqqrY2FgXFxdfX9/w8PCTJ0/6+/sXFBTk5ubGxsZGRkbeuXOnqamJTqcnJyZddXJCiESMlvZVRyc3VzfwWv/ChQs5OTkMBqOzs7OiouL8+fOOjo4+Pj6+vr4ODg4uLi5+fn5GRkb+/v7l5eUjIyPV1dW2trbnzp07deqUo6Ojh4eHk5OTq6urlZWVp6dnf38/h9eR2MjI6MKFCzExMXG8JTY29uzZszY2NgMDA/PkeVRJSK2oFEKYgdQKqXWOCgDYAH45egp+OFG/xEPJQnnL8e3/ROQ233ZQ7E8kMtKIExDlE6YizDSED1cESa319fXGxsYiIiKHDh3S0tLau3evtbX1+/fv3d3dVVVV1dXV+/r63r9//+bNG/DSrqioyNbWNisr68GDBx4eHm5ubvfv3y8uLgZB2N3d3XE43Js3b+Li4pSVlXV0dPz9/R0cHI4dO+bl5XX37t3k5GR1dfXLly8fPHgwLy+PxWIFBwfTaDRTU9OAgICxsbFxzjjoIQwGqbq7u3t5eQUEBFy7ds3Lyys1NVVdXb2pqYnJZCYlJeFwOAwGc+zYsR07doDdgY92dnYCCek+/bjWSU/WQq9ELwN2BglS69eqPd5SzOEIftL5ef5WQWqdSsBvSK3NBkSPg9LG27dWEXQ7qQR+QxnmoQJQgbkpMH9qRWvg9okwINxVVzr6y8/W+3dXI/odvMBRYHZlQK3Z2bfnPzcph8NhMpkfpvczMzNDEIRIJCIIYmBgQKVSjY2Nk5OTeXE0WE1NDWamxhiM1vHjcr/88svx48cxGIy2traqqiqRSKyvr+dSIpsTGR6B1cNdsbHdKr7t/NnzBhTqqVOn7Ozs9PT0wPRybDa7oqKCRCKFhITc5C2xsbE3btyIjY1FEOTmzZsfhlOxWKy6urrDhw+fP3/+6NGj2traZ8+elZOTMzY2Njc3JxAI3d3d47xmE4nEY8eO4fF4HG/B4/EKCgqXL18WiJcVPLchtU71+yUM6yG1zpHZvta4XH7leb5WZDAR1xCmddv2hCd5L1luIyK3KenSUXoKAe1lOumBoz1CwbesdEFS6/j4+NOnTzEYTHZ29r179wwNDe/fv89gMFJSUsTExGxtbUdGRsBwtfj4eFdX15SUlPPnzx8+fBjEcwfB9DQ1NcvKyjgcTnx8PJFIHBoa6uzsNDMz8/X1ffToEZgCB0RIyszMVFRUNDIyUlNTu3PnDovF6unpOXHihIyMTEFBARiJ2tjQ+KF3cWNj4+PHj8PDwz09PX18fF++fEkmk7FYbHJyMpjTDAT36+rqAq7dnp4eJpPJYDBu3rzp6+s7NDT0ZU/XOTxEvqGvddKLgX/lVNT64S1Af3//HA520TaBvlZ+qSG18qvBn5+UWvPy8hZuXCtqi3fQkCyVUwprV99SOtlCwaPrYQYqABWYswIoc35tDWiXYNCHv4OKtBgQs9VOKaxeZbF7RxXxI7J+7mvdcPt2lkColcPhNDc3Z2Vlpaenp6SkZGRkpKWlpfOW169fM5lMNpvFYjHo9NGR4cG4uFhTU+OOjraxsZGxsbHW1lZLS0sw8804Zzz+5s3gwOCe7l4VJdWy129ysnNcXFy6u7vBiFNg21RUVCgpKenq6hKJRAKBgMViCQSCvr7+3r17Y2JimEwmh8Opr683MTH5MOPOxYsXIyIi3r59a2Vl9fz5cxCEqaOjA8A2mAsgNTUVND41NTU8PNzb2/v58+fQ1/q1FyG49sA11m1uNPL4AYfF5P/BEsI8pFZIrXNUYCyFWB2sFW1x0Expi4mCiAtux10HuZZofXbGx+A6/D40fjJBhzWiKwVOrS0tLf7+/sbGxioqKqdPn25paamtrbWzs1NWVsbj8Q8fPhweHmYymeHh4Q4ODs7Ozt7e3kpKSkVFRe94S1lZ2fnz58vLy1ksVkxMDIFAGBwc7O7uzszMPH/+vKamprKycnBwcFNT08jISGVl5f3799vb2y9dupSXl9fc3BwdHa2lpQXCBrx48aKvr6+8vNzd3b2rq+vJkydg5hvwkMXj8UeOHElPTwfRoRgMRlNTU2ho6NmzZ589ezY6Okqn04eHh/39/cPCwvgDw8znUSLU1DrFzDdLglrZbPbWrVu9vb1HR0fRE9TT02NqalrgcpI5Rb8D9C6YWwb6Wtlsdl5e3pkzZxobGwXyWgc9dwuRmZRac3NzF4FaO2mkOgR7XnIHYcvm13hsOxVBTRYYn2kO1h7cBCqAAucc7iBAraiGrVTibXUl/OaNp3dIPMNqAS8r+PZzX6sAqBWM7X/69OmVK1dceIubm5uLi4uzs7OtrW1gYCC3j9g4m8VidHd35uXlnD5tlp2dNTQ0MDo6zGAw3rx5c/78+dbWViaTOTg4GBQU5OnhWVNVe+qkYtHDx4nxCVeuXHn79q2np6eHh0dvby+Hw6msrCQSiQEBAaB3cURERBhvATPZ0On0oaGhly9fIghSXl5++vTp4ODgly9fnj17tqCg4INhpqenV1dXB1yyRkZGZmZmERERMTExYWFhISEhoaGhFy9e9PT0HBkZEchDG/W1lhO4QdeXdwKXLjdyNaTWuRlhcCshV4CZjryPw9aGaN2+fNzghChGenWwsfRLb+W+eH3gQUVhFUxtMunhfOFrFeTMN4ODg6Wlpd7e3np6ejQajUwmZ2RkODo6WlhY3L9//9KlS/r6+nfv3n3z5s3ly5ctLCxOnz6dl5enpaVlZGR0jrecOXNGW1u7tLS0rq7O3t7e3Nz83bt3hYWFtra2eDze0dExMDDQ2NjYyMjo9evXdDodeERtbGzCwsLs7e21tbVzc3MfPnwI6omIiCgoKAgODn7+/HliYmJMTIyfn5+Njc25c+fs7Ozc3NxwOFx4eHh7e/uLFy/s7OzIZHJRUVFfX9+TJ0+KiorAvKO5udx4918uc3hGQ2qdg2gzbgICyUpISPj4+EBqXVBfq+yubfyO96VFrTExMdbW1hOsK66vdeu6CgJ3DNuCpg4acltVce9f/hp98kSTAbeTMOopmmBDL2gzYOVQAagA/x3XTkMKtFSMd4hf2L3jFQ7TafjZcwBQawsFr7p5o0B6CIMQ+gUFBc7OzsnJyWlpaVlZWZmZmenp6Z6enufPn+f1R2PV1NQEBFwnk5HExPi+vp7a2ur79+8/evTIzs7OwcG+p+d9X19PcnIyhULR19d3sHOQ3i9tbWltZmqmoaHh4OAAOvHm5uaMjY1WVJTr6+vb2Ng4ODg4OTnZ85YrV66oqanduBE7ODhQWFhgb29//PhxOzs7RUVFEolkbW2trq5+4cIFGxsbOTm5wMCAxsZ6Fot59uyZCxcuRERERPLmWo+KioqMjDx79qyTk9OE5+qMv9pTFfgXtfLGFS/va3VpU+s4mzF+/zII7MmdiIKbkEmpA65c3gqg5Ml/mKx0ZCiJ8NRDKcRIGjm6nnR0fZDhvrchmqMpBHYGGXQJHs8yAJGZwFSck9Yzma+VMJCEVT0gEh0dPf/JXerr611cXDw8PF6/fjk0NPT27dunT5+6ubkB3+nw8HBERHh8fFxwcJCtrW1ycnJWVlZHR0dYWFhZWVlDQ0Nra2tdXd2tW7fANGX29vbFxcX379+/evWqry+3W+/w8PDQ0FBtbW1gYGB2djbo3AIC5UVFRYWGhjY0NLBYLDab3dfXl5SUFBUV9eLFi5cvX8bGxrq7uz979uzBgwfXr19PSUlpa2sbGBgAc5c9fPjQk7fU1tYymUw6nX7jxg0QHSomJub9+/cTkHWqB+6M6zkcVv27WoLC7qoAdVbaR8c4/4letPyElxfcca08XyudTmezuWM1gevM19fX0NCQH1RmPMbFLwDODqBW3ovqj03o6ekxMTEpdDs11b0wT7VXoK9VVlKit7cXPcVsNjs/P3+p+Fqjo6OtrKyGh4fR9nM4nDt37mjvWF+O152Dx+ZrLao2AyJFXFx/i8gzvE4H7V/uVrQj4tdWCMtDBaACHVSk3YDIn6bSBMAqAFFw07XTkEItVZOd4sTNokXa6u28eW7QAqAMt/8whaC2WSQ3J3sOPYS/NB44HE5xcbGdnZ2Pj4+fn19AQEAgb3FycvL29h4bG2Oz2bz5Wq8WFz+m00c5HFZ1daWn57WrV69eu3btzZtSBmOsv783NTX1+vXr/v7+QUFBfr6+1/39fX19/f39g4ODAwMD/fz87t8vpNNHm5oarl27BmYKBIF/QTilK1euPHhQODY28ujRg8DAQF9fX1CbP2/x8/Pz8fEJDAz08vJKTExobW1msRg3bsR6eXmFh4dHRESEh4dH8hZvb28wHBd9rs4nA6l1Puot9LaT9BBGqZVnZkFqnWMH2nkao99wc/QCAFNocoMDpyP9ibgXfqouREktmdWGCqLR5tKVwZjBFISVgWdnTBlyaZqj4DfiWZn4wUQ9NdkN0dHRc3giT7hJwGSbEx7TLBabxWKDlezPFu66z1Z8/gFsAggKrRP9yKuWxeGMf74R99P01X5Znn/Nl+0EtfEf6Zw7Q3IHkNTVEk9KVgWo8Z+FaU7WAn2FUit6yQUYH3C96oiO8gU6+Pr6GhkZCTm1gktCQkLiw7QB/NTa29trbGrywE1pgaRegdQqvXsL/0scrq81P8/ijEVDQwP/DSKEeQ6HEx0dbWlpOTQ0hDaPw+F8CHKuvUO8YlGotYtKLNY3kPv156gTR5p57tapzGu4HioAFZilAmifBTQz1YbcrphGlG4jCsDXDhrpBRZzeruEwuq1uRrKHTTSBKxF62mm4AG1fm0MYdRumZBBpyUHs0/z/wXWCFjDM2bYHA73RTwwbD7V89Gg+vRxmv8zlpyxAKiczeHMUBJ9rs4nA6jV7PCBMmTB+7+g5/dbZZa2r5XDonMKbfji6CBs6Gv9NA3pAhnuQlgtQAhusKV00kAyoTFSp8hdMdB4v9HJTYbyG8PMpOvCtOipCEuQyuCHEnUFRa1T4RyHM85LE56tk678rMz0j79pq+V6C+ewgD3yb4g6HtHGTHWYaIGpMiwWq77uLSKk1HrQ9aojSn1AgSXha52eWgtdFCG1thuSQJrPz3O43GHp3eLd3d3o3cGj1vzTFqeXBLVGRUVdunRpArXm5+dzqXXhewgD5VtoFLt9kibbxUtxOvzD5+ZzXuC2UAGowCwVQPsGd9BIFXhdR+l9iqvXpKootPP6PkxVCY9aN+Zkf93MN+hzUlCZqeyK5bT+k69VdtGeyVOd9EVYv4SplXtNf06tnEwSpFYhpMqFbhLwgDHSkMZIveSLB620t5kqbrbT35l+5RivPzBRoLwKXNmCpNbl9PRciGNhsVjv6uqQk7uE1NfqPAm1Cn80pumo1cS40AX2EP6IrO2fD9n62l/lcLnDMnvEe3p6UCMMUKv5aSGkVs74+GeJw2FHRkZcunRxeHgQ/YrD4XCpdafE4llIBoRCTRX19WujTxyF7tavvQJheajAnBVAebWTRmo3IL4l6HrI7NfesOHGyWN1JOw01XZQEUCt2dlfHY0JfVTOM7MQ1sji1zmb1/2QWhf/vMx+j9wewuilPM5ijN/n+lpB11BIrQvNh0JYPyuDRE9FGqL1Cl2UTJS2nNz1jzOq4kXupzrjsPS0hesuDql19vfsfEt+pFZ5YaTW68YHXJ25PYTBQYJHk6+v71KhVnFxcTAoCD1Jvb29xibG9yC1fnK0riRqRa+CjxkOhxMZGXnp0qXh4c96CC8ytfYbkhvI+EuS2ynim0txmGlsZfgVVAAqICgFQN/gjx1iP5LkAAAgAElEQVSDeVOzRh47oLz655BjB9+RcdPv5V/UKoiZbyY+mODnzxWA1Pq5HsL16SO1fux/yI3GBKl1xQ1kBfDMTEeGkgmVwRqploeuYCT0D625pCH+xF1h9BZhgSbt4IN2SK2L91zg9RAWCl8riMsF3pGBi8HfSNbV2QlSK9+tMcPjaAWOa106vtaJNzUftX4WjWmRqbXHhNpJI+WrKymsWRUrf6yFSpzeYobfQgWgAvNXgD/WWiMFf1NBTnntr24y+6b3soL9dtBIXF+rmEhO9u35x/6Y+GCCnz9XAFLr53oI16d/USu3XWwGp9Cab1wriZU+eaCd2RtVsKTwK8BKJ/Ul4cqvq0WeljaUFzmrKuZvuL/YXaE/AcvOJC/QeLzPZYHUunjPBTab3fDuLUF+Z+W3jsY0KbXaWF4EkZxbW1tbeIujoyMOh6uqqmoV7qWlpUVcXNz2yuW6ujq0pVVVVQQi4Z6zwgLdRyuQWvdsF/sw+x+4NlpaWpqbm+NuxiEk5LfffkNlF9qMr6+vhYUF/xXS1NQUFxe3mD2Eu40onTRSPRl/eS93dGsVUQ8EE56/XQ5rgApABWZUoJ6Mj5Y/qrZ+jf1+ybJPobxn3KqFQlD/RK2z6ea6eCbFstsTpFZhPqWfxRD+gloRSK2fw9UMfg8hLIy+g0BjLKGNZGWQRlOIXQnYykD1IBMpg+MbKHIbgk2l3vir9SYSgJGNBndFt1qYDH5QcNGYhPl++1Ztm/Aj19T4jnhKsipQfYFQavYXyYTL7LqR7MF9O/W1VfE66jhewutoHJbes3u7mK6GMl5Hff4JJ4hKJm0GTkd98/pVB/bt0NNSQQvoaans3i527+rJBZJ6pVFrrPwxiV9X6aqo6KupoUn+wIFdmzdrnDyJrhGGDFZdHfdFOi4tLbtzJ1ZNDf1KX0Xl1KFDWosYjQlMqtFBI93VUFFc+2u6sgIc3TojM8ACUAGBKNBCJWapntIQWWe9V/INF1k/m5p1ql18nPkGUOsYncPmcIfMw2VhFIDUujC6CqbWj9T60ajl9RD+NKiVzAvFtHBDGZceAc7eFheekp+mUaXwUyuYUnUwCX/fVcmTtBt/dD3x2IYwU6m3YVojKYQFCLY047kW5Mw3grkzllEtYHQoiFkPDuvdu1q80u6qII0FQqmvvf7RlyNFborOuF1X9Xc4Y3de5SUX3C5n3C5n7M4lncoDtRZI6pVGrUWaWlf27bbcu3MJpD2Slnt2z5x2S1ntlvU6dLzNYLF76taTcRckt+uLbqwgQHfrrOBhKqiA66ECs1Gg1YBQqK1GEBM5K7njK6KvUUltBsRmMkFVdEN2ZgZjjD4OqBWC68LYaZBaF0ZXwdT6ObV+isYEUAdS69ca38JW/tN55EIjSq30NGQgEf/AVfmq/naM7BqS3Masy0dbYnUZCxhsaQZqZWUShpL0NQ5sDAq8DsdsCObO5quFn1e5kcJZrLKyV3ilPUJIrehVit5KKNCia2CGX4GVRq2zMQ2FpgzSSSPOIiHfsMGFGsrb//z/Io7DuVshtUIFFlaBZgPCY11NopiI4Q6JV1htdMaR2dz+HTRSC4WoJiaSnJTIoDO4jlYuuK5cbEWDyKIZPpNnvlkmkxkbE2V2ULqCCOdrna+YAt/+O/6ug2zm2OfztZJ4YYRnQA5+EwrmhU0BRioBjB5kZZCGbhHrw7TynRTckT3aMr+aKmyMP3ewM1bvWzhXP7uoWJlEZhrBTEniwoXzIyMjAr/KV3iFHA4HnRwcSJGbe5uiuvdd6EI5AL/2LpgGViG1Ti8mpNbZ2HywzFQKtFOR87u24cVEX2IxcHTrVCrB9VCBeSrQQUOe6GqStorpbNpwV12p3YDY/qlvBeixP0P9VKTFgGgoucPH14s7nzlvRi1+632FGzmCPfzR0VFfH2/bIwdqZ4rtPMNZm133729bCfr2pNvcaOTxAw6LKVgxBV4bl1rRSx9S6/QG4tL7NpPMTCNyMsmDSbi3IZo3z8ra6m47rbzZBb8zz/5Ec6Q289v5V/nFZGWSmOlItLmUisrx5uam6a9y9NXapJkZt52+wIRvwS4mrBT4R/QG/KqaZ9+2CSVZLNa5M2ZXsPu647AL1G2V/+ROk0eJdEZq/bbtnOYQvvlXkFq/7U/+Mth7EUZNV3RDxPEjTRTCMjgceAhQAWFToINGeo3TcZDaq7d54201xVYDQgcVAamTRpqRWrtopC4qqY1GDj0iY4pgOzo7wW86fy+qrzIeYOHpFejp6bE5Yx4kf6SF+i07wizOZbz0qPXjnDe8c8hh0oGvFTXFoK8VlWIpZjhZFGYaqSFCJ83qiIHculOS//AmS5YFqPcm4JhpyDd3sfJJijDTiNWBmod3b8nNyWaxWNM8UyYw2DQlwVegvMDJcD7V8rcZNAytbdIM/02KbgtKoh+nz/C7W1+9erV7++a7VxXGUr9xhHBIrXy3wGe9D2a/HlLr4vy0z2kvS6CHcCeN1GxAcJXZd2bntjKczpwOc2H7VcImQQWWugKVBL3zu3adXL0qX0OlkYJHeXWWx9VFI3XTyJ00cqHmKUR2/907eWNjY2w2m8Vizc2wmd5agN9WVlaQTxzN01BeCd1Plja18mIIc+dr/WRNIryhrXM0p2ZveMGSc1Pg02ma5AQx05HBJFyFv0qWzZFzalsU9/xipb2jPEB99BZeON1WzDSEkYK4EHYamxDq6t5OA66Tct2ElYJ97C505QBKJ+xlxo/gPSva9XfG8mAv7e1thjSK7oE1XXHYhZ+Gd5Irk/9SRy9gkOG/Mqf5ir8GmIfUOkvL7xsV49qaM6VvTH0dNCRfXUl304Z0FYVZRjT9RmJ+Y6HgUUMF5qBAEwV/VWa/+vo1txTlW6jEdirSRiGg3YNnW6EB0k5DKsj6F3aJnzahNTTUo7/4qP0gWLNnZdbG4XDev39vff78Gcntb1bAoNZOGmkZUCucr3UGU1t4DGXUskfnvWRncLva9iQQXnir+NKkDBU2mSiK+dKkXvioDiYRWJkIK5PAyhDeuNCN4Rjk5HYn+yuNjQ1TgSv6chF9an+ZWQkPXPSoZzxY1NHa29sTHHQdqyRT7qfCSCXyU6LwXNWwJV+lAKTW2Zp9S2GI0bc6llpE33SbuPFW8XK87rdqA9wvVGCZKdBOJTaQ8dHHD6tvXBN67GADGddhSPqYeI8jAAyzPOouQ3K7Ifmelipu/26fa25dnZ1oD2EQZHFGSwAWmEoBYE2xWKzW1tZr166d3LY1S121eWWMmFiq1ArOGb+vdTwLzJUivITzVbbdciqMOqYAdYC/nEwyPY3UfgP33FvFhypFOylKkxe5ef7QuzDtoVsIQBR+yhVaQR44nyIo7HJ2vFJeXj48Msxmsyc8aKanNZRpJ2y1Yj8CucbGxqqrK4MCr+NVD2RekWekEjkZRDY3LZl3NLCpkyoAqXWWNh8sNo0C7VQkTUle6h9/izsp1/IpSMw05eFXUAGowIwK1JGwIccOHv3l71el91UQ9NoEMUjyHYVwU/E4XnrPNderNdU1w8PDqM3zpbH0VWYPallNk/mqCpdKYTZvGRoaqq2tdXNxVZDcGaNwvI6EXyEdT5Y+td63AbOkQGqd1EYUkpUoqTLTiMx0hJGKtN3A3XM66YSTxB1ef15VLM3qSH2Y5lgqNxTTOHd0K9extiSolZ5KfOR6ykRV0oykFxIS8ttvv9XV1bV+WpqaGhsa3jU21k+TmpoaWlqa29tbl31qaWluamicLjU2NdQ3vH71Mi4u1sSQgleWybgiP5BE5EWWhtS6HIgdUuuMtiMsMBsF6kjYs7u26YpseIXFzKY8LAMVgApMo0AjhZCgIKe6brXbAekaoj43aDANmTHw0jQVgm3bqEgdGZ+qdgojufWMjvaN2NhXr17V1tY2NTW1tra2tbW1z2lpm/Uyp+on32jW+5y54OQ7mGztl3U1Nja+ePEiMjLSnIAjS+5IVT7ZREM6qStlPMKSp9bx+x/HtX4a3Qp9rUJn2rLSubGL2Lz4wIw0pOsm/r7zScKxjUp7V51V3ZJ15XhrHJGVQebwvOVLBVYnvA5oCMdEmkvrHxVTljugoa5KJOBBQohYAwRHIegvQjIgYkGiEPUEubtP1aL1zy1DIeqTCbpkgi4JrzNVIhN0iVht1VNyagqHryGS1YHq9FQCO5M8QW34cekqAKl1GjsPfvVVCpToaMr8829RJ442G8BgwivFZv2qKwQWnr0Cj7TVMBvXOUvvayRhuwzJXYbkDsO5X1RoACdePeRmGvJKV9NdVgq3bbPKQSk9LWU8VodEJCIEwkpMROKcj51IIGipKR+TlcGKibjL7n+A0Wiikb561PFSHn6yVKn1oyufxeCfr5UXQBhSqzBS62gKcTCZUBOknusg70bcjT+y3lRxU+Zlub5EPCON2+1zPIuydA1xtOXdcfqJF49YY7af15AA6ZzaljMqmxc+iZ1V/VcS4O7OqoqdUdnMX/nc8yrcqnhJ7Aw3PzGBfV1U2xxlLt0UqctMJ6FRo5eE1x29DGBmGgUgtc7ejoQlZ1Tg8t5dhtu2lOF0VkjvuBkFgQWgAl+rQAcNeaGvfXrHNtNt4q9wGEAFXOw05E5yMx93K9qSbiNKp7FBC430FKvjfeyAheQO2lYxw21bDLdtoW0VWyoJNFhQf2d51F/u7pzkNv/DMuUEvVZDUquAThB6poQ/s/SoFXRhB9TKYX2c+eaTUQtjCAsfsmaQ+hNwz7xVw0/L2GC2myltciPuzrU70ZOAZ2WS+Ue6TmPpLq2vGKnEsZSPiZ5CoKcQxhY30VPw32S/0xwmnasJgdewj20DLZz4N5VITyUyUolg2l5w3j/d3UJ3bS+ty1JIWgupVfjNgiXUwgdaqtoi66NOHG2Fo1uXsv9kCV1yy6ypHVTkia4mVULMZOuWe5oqLZ+6LXCp9VO81nkeMorB7QbENgNiG43UTCG0GBBbqMRmCmHOqYmCnzE1U/Bzrn+SDQ0IzQJMszz2z/fYYkBopSJtNFKHIRmcF4G8VpjnKV7MzZcetfIPmEapFRhkPASCvtbFM+7R0aoTuILDw1FWBrkngVgZohtz7gj28Hot6V+SLh55dV2rJx43lkLgbsvr+Qm2BVUJiWEtwGZ86ri+4Cfly1MAdj3PvwKUAlYFFeD2qmgp5nCmm9+Y/wm/aHl6VWW3zcUOIzJI7YYk/rSYP8lwX1+lQBOFYLNnJ1l882ve6FZg0HxVDbAwVGAFKgBQp52KVOJ1jCTE1EXWPtbVFHhP+6lctfA+FdQlh/bEFlSFwl/PMqFWYJpDal1ks3gqamWmk/oS8M+8VWPOyOodXKu0d5UvdV9bFIaZjoCgWax0ZLli6txOwTzZEt18bnuffqsJPDx94Rm/FWxtM+4OFhA2BSC1Cr9ZsLRaWKChorT21xvyx7jNphKXVuNha6EC30QBrtuTQnihr220XUJdZG0xRr0V3juwt8JSUGA5UCsaQ5jNndgT+loX3K3HbwfzwyczjTiWinTd0HviqepN3mOkIGKuLBppJl3mrzqQRADjV1Fo4d+Qv0KYF4gCKMfOMyOQxsBKoAKoApBav4mRuox32kDG2+3bbbZDopob+JQA3TjL+FzDQxOUAl2G5FoS1k16j77I2jy1U61UIrxxBKWtYOsB3lT+v4Ktf8nVtlSp9ePoVhad89nMNyRIrah1uGgZ4DgdScY1RWg9vqbijNuJP7LurJpEsuWxqiBN7jBFXrylRWsP3JEwK4C+thDmRsK2LZwCkFqXnJUg/A2+q6GsvmFtpsqpRiqpHbqMloLDRPgvqmXcwg4qUotgPQ5La4quv6lwvAXeMkJ/y6DUuowvy1ke2hKnVjYDzHwD3K0whvDC2ZpT1pxJpqcQmiO1M2yOOWO3mSiKWqhsyXWQb4zAjKYQwFZoR2J2Bgm6WKdUMmNRneSwGVCBb6IApNZZ/jbDYrNXoJ6Eu7h7B3aTyBN9bAv0Ggm9CT77MwtLClyBDhpSg+gHHpE98vPfQ44dfkfCdVCRVjIe+lpnlBpFx3lmZtwRLDCNAkuSWjkczscoHeyPM998Mr+WQw9h/i6dn2hcSOerZGWQumJ1M6wPEQ+vkd/1yxnVLQ/dFAcScGDCEkYqgZHKi7qUQQIHBbyywNsG8fXTRQthFSqwghSA1DrN7zH8as4KFKgrbfg/f/JTPtUEHUeQWqECUyvwjowPOXpQbtXPEcePNpPxUwVMmvOd+FUbzgf/ZrMjEAZ5Pnvh37bdgCiQxF/n1+a/7fmajeYLXWaZUCuAIqEZ14qw08n0NGQ0ZeqUioyChJZJRUZSiMMpxNE00mgqaTSF+3HkFnEkhTiaQmSlc+3aCUC7aNgDYgKju2OmI33x2NcBmpl2cpe0d6jv++WC6uaKQK2xW9zBq6Awugk/nUKnK6ohzEAFVqYCkFoX+kd9hdZPRSgSYsbbt/6G0YReoxV6DUyNalAQoEAblZijroQVFfU5KNtOJXYbUUAw4aU4ewrgtxn/LvVTDzF1whlcktT6r+kQuL5Wa5TlhIZaucxZHorPvYbLceembDfsbTf9bFdstqtetqt+rjs2xw0k/WxX/Ww3fe63btgsN/0MV70sd24m1UEz8Ypq4mWVpCsqqXZqbdG6o8k4TiZ5PIubeH2h5+uf4dNtYlUTBh+i3lFmGnEgQf+lt3K4qZS5isQZNQlvg30lHsrDyR99qtMb4vwEO31J+C1UACqwLBWA1DrhNxh+nL8CHVSk3YDwREdHbcPaaPmjzRT8/OuENUAFlpkC7VQkU+0UXkz0yt5dL3G6XTSkk0YCULQ4L3q+JMz5KPxlbStkzXxEWwbbLgNqteGjL2HpIdwQTbh2TpdM1EUIHxMRr0PEYRAcxoCga0zSNSPrmZJ0TEgYI6K2EcJLZB0jki6FhCXqqxEwyioKh08eO3Dy2AH5Y7Kn5A5YYI93ROtwMkjj3ISMpyOcOQ2DnICj05jFXMLMJLN5M69yMsnMdGQoUf+Nv9p16h79g2tMlbbEnDtWHaQxkIiHLDqNjPArqABUgF8BSK3LwG4QnkPg9xE1U4juMvtMtou/wesKTwthS6ACwqBAOxUpwqiprFtttFXsma5mmwGcI4okDOcFtuFrFYDUOtHNyG9gzS0/lorcuqqvo6+joavLnzS1MJpaGPPTp73cr/l6egX4+gb4+l3387/u5+/v6+fny13IZAMtTVUVZQWZQzJ7pXlJSnqf1H4ZqT0xNjrsdDInjTiezk0cXp/h6VvIx/Pc3sVfFp4ROFnpCCeL0nNDp8jtlI/BPuW9q/Rkfw0xlW2J1mekwUmGBH/xfHmO4BqowHJSAFLr1/5Iw/LTKAC8K58KEO9pqmhsXJuoIPdpDTRMoQJQAVI7FXmio04QE9HasPYVFtMGx37DzuRLVgFIrYIHj54E4rVzuhi9z6hVXUdHQwujpa3j7Oz6+mVpbfXbmqra6qra6urampq3NTVvKyurX70qvXz5sqam6vETR/fJSO+VltknI7tPWnqflNR+qd1GmKN9CTh2GsJDViI7fVbQyA+u/LYv4FUQHol/PZrnZJLHUokdsbr3HOUcsTvxR0XMlcWizhypC9dnppOY6QgrHWHCKW3m5PFGRYYZqMBKUwBSKwQqwSqAgmsXlfQWwV7avcNwu/g7Mk6we4G1QQWWqAIAWY22iuE2bbynqQyRdYmeR9hsoACk1kWiVg1dXW09rI4+jmZs6uzqfs3T28PLx8PTx8PL55qntzsv2Tk6U41MtLQ15eSPSx08KHXwsPShIzIHD++XkZWS3muIOdabgOe6W9OJLG6aFbV+aRPzb8ifByVZGSRGGtJzU681Wveuo7y93nYd2V+tMDuybI+3RWOY6QjAYK4PdjLn7Ze7g2ugAlABqACqAKRWaHwIXAEUXDtopEwVhaO//DNZ8UQ7b9iewPcFK4QKLCEF2qlIGU7Hfp8kbtPGPHVFiKxL6NzBpk6qAKTWhaJWPZw+1toJd8WNl1zxV9zw1i4kW3fkihty2Y1k6062u0a64s5dY3sNsXUn2roj9teIdu5a568om188QTsjTzt7knb2hMHpo+rasgcPGOme6E0kstMpqP03mwzKpWhmqq24vlNucGD9hjDNqNOy1trbjE9tttPbcd/5ZGuMHsDU8Szu3gG4jmdTZ6xzqn3B9VABqMDKVABS66S/xHDlPBVAwfUdGXd6hwR2i0gFHN26ZDsBzvNigJsDBdqpSDle11l6LyImmqN2qgWOZYV3xNJXAFLrQlErloA1CLllkldpks9NxrkVxtlvTLLfmOaUm+ZWmOVVmudXmeVVgmRyp8okv9Iov4qSV6GVXqqR8lr91kvVWy80kl6qJz47fslVSuaAEUauL0Ew1Mqlzc+HxbIySKO3COVBWqFmB7CH12FkVnlT9taFaAwl45mTjV9FPa4r0/KGRw0VgArMTQFIrdCkXiAFgDXTSSP9pqOx+69/jlWQg+7WBZIaViv8CnTQSJVEPSep3XKrfr6peBx6WYX/lMEWzkYBSK0LSa2hKSZ3a0wLak3u1qDJtKDW7N5bkED+4997tSYFddT8Gu3blZpZlVqZlZoZFbz0Rt7GU/qArLHOsf5EPCedNPtoTBPMStQ1Coazgr+MVKQvHlceoJ52UfqMqrj6/l+uYnfWBmvQuZPEzrET8oT9wo9QAagAVAAoAKl1Nj/MsMx8FGijImbbxYlbREuxmPnUA7eFCixdBRop+PATR06tWXXjFERWGJFr+SgAqXWxqdXs3lvzwjqUWk0LakEyKag1ulNDyqnQzuKn1nLN9LL5UCtwiqIWM8qrzDSEkYb0xuOfeKj6Ufdf0NhqqrTlOnXPbx6Kw7e4k69CZEVFgxmoAFRAUApAal26dvASavljHXWltavDjh+GvSKX0FmDTRWUAo0UfMSJI3qiG7wOSkEvq6BUhfUIgwKQWheDWvndrYBaAbj+C1nv1hgX1FBzq4hZZVqZFaivVSO9XOMTtZroyPUnEYCvlZNBnKUROSm1MlOR/gR8kaeGM3YH4chGC2Wx+ItHakO0+uL1GakEEGYJUussFYbFoAJQgdkrAKlVGH74l30b2mmI9Z6dFAmxMji6demPZFv2l6tgD7CNSsxQOamybrWz9N4Kgm4HvACgAstIAUiti0StKKBOTq33ak3u1VLzqvC3y7RuV2jdrtK6XaWRyeshnP7muI3X/gOyxrpcauVZh0T211AralCy0snMNFJjpO5dRwUn/B71fb9iZX+9ay/XFKkzmkLkZFJQTyw9BQ+pFdUNZqACUAFBKQCpVbAWKqxtKgXyNJROrluVoCAHrfapJILrl50CSIcBMV9dUXPD2ouS28vxusDEX3aHuXz6u8JT87UKQGoVAmq9W2dSwE0GeTW4rHLN2xWat6s0P1GrRlqZnI3n/gMHjXSO9319DGFga7LSSSPJxIYInds2Ry9piFHl1trrSNy1l2uJ0aOnIgzeEFYQH5idQWKlI5BaBWWjw3qgAlABfgUgtX7tjzQsPzcFmsh4x/27zXZurYNzty4jT8vcLoYVslUHjVSsq6kjut5o65bfdDXaqcgKOXB4mCtHAUiti0StICwT8Lh+OajVtKCWll+Du12pk1munsFNGhnlIBqTRlrZcRtPqQMHjXXk+hIJ7AwyJ4PEyZh9nCTyUDKxIVw7xeqIleYWwpG1TtidBY4numL1WGlcQEWHsK6c+VfBkX7z453QeZvfsod5qMByVQBS68oxL77tkXbQSFmqp1Q3rLkF526F1LoCFGg1ID7Tx5zesdV4u8QTHfV2KvHb3oBw71CBhVAAUutiUCsIIIx2Ep40w40enFWhwaXWN1xqTQfUWq6RVnrCxkP6gKyJrhw3hnAGeTwDGc9AOJ9PXTOJjZtOHklBygM0ky8dtteRMD210UF32yPXU0PJCCtD8Ec9SQPgXqZWAMx/y84gMdO4sZq/OULD0wcVWBwFILUuxA85rHNSBd6RcGd2biWIi1bC0a0rANsmvQZWyMo2KvE3Xc2Lu7af3rmtUFu9iYJfIQcOD3OlKQCpVfD81pNAvHZOlztfK9/MN8Z3qieFVXQlMadKM7NCI7Pio6+Vn1qt+ag1ncSl1nTidNSaTmamkxsi9YKNpXCH1hGOrI0+c6A2FDOQSGDOyLq8HsKTDmpFHbPLKTMfS32WOjB5p2PCX1YGmZVBYaSRxlKI9FRubK1Z1jarYhkkVgblK5Pgb4T5aAu3Xa4KQGpdaUbGtz3eXDXFfX//yw04dyuk1uWrQBuV+AqLObdzq/6mjbc1VRspeDiW+9s+duDeF04BSK2CN9YnpVb+HsIoqaIZwzs1OrcrNaag1uPWHjIHD5joyvV9mq+Vkz5lDGFmOjfeUsyZg9gDq/UPrvOn7euNx7PTKbMxglkZpKFk/BMv5dsOirlXVXIclXIclXKvqoB8toPi7ZlStoNStqNS/lV1QaVcJ9VcJ2VBpRxeVdyD+lQnWIN+/MqMSq4TVxzu31mnvKuq+c6qd1zV77iqc4V1Us5xUs77qkpmLDxjgc9bm++i0hyDgx742dwjsMw8FYDUunA/57DmLxVooyIm27Yor11dBuduXb7Y9uV5XzlrOmikl1iM84H9cr/8mq2m2EEhrJxjh0e6AhWA1CoU1ErKrdLILP9IrVkVGtyuwhVamZVamRUaaaXHL3tKHTxgrMelVp7JOF0M4aFkYpS5zDmVLf7UvWXXNYZvzX4ELImZjrz2U9dVkJTcKb5n11bJneKSO8X3790mK7Nz724JyR3iu3ZsWey0fcuumdLO7WI7t4uhxab7yGv//v3bd+3Y8vFwtm8B5af/u+uLYjt2bNm5U3zPnq17922XlJTYsUN89mnXrq2Sktt27dq6Y4f4zp0SIM1y8127JCR3czecOnEbtnOHxOyTpKREnrP8pMt+W9MAACAASURBVA72eSIK3BwqMEEBSK0r0M74todchFE7tfbX6JNH4dyt3/ZEwL0vhAJ1JKzHQWm1dasjjh+uI+EWYhewTqiA8CgAqXWRqBV1q36ZMSmoxWZz57n5mLjUWgmmbNXKrORGY7rsJXXwkIneidlQKz0NaY7AtERihpKJrAzyBJNx+o/MdOSVn5rOSUmxzaJimzaLbhTZtEnkiLLUMVVpiW2bREVERDdOTJtERDeJim7dLrZJVGSTiOiXBWa/ZpOoqMQ2sc2bRKepZ5OIqLjE5s2bPysjsmHjbPbCbaqI6LYdW+R1D+6QlNgkMtsGi2zYuElEdMJeRES44uzau/W4huzW7WKioiLoIspdRCS2bxEVFeHmeAvv/8ZP+U+lN4lu3iImumkTui2aQTdE12wU5bZY6ujuQ4r7t2wVQ9fzdsfbJboKzYhu3LRZZNtOiW07JbbuEBedZD/cops3i+Q6n4TUOv3dAb8ViAKQWoXn53+FtKSdhlzeu8to25ZSvM4KOWR4mCtEgXoyLvzEEWSLaKz80bckbAcNBg2Gk+IscwUgtQoBtd6t1frkaAXgqvmJWjUzKjTSyk7YeMocPGiqdxztIcwd1zp1pJ85G5fMdNJrf3WM/K7NmzZywfD/s/ce4FFc2aLuOXPSfed77zv3nfvm3e/MnLkzZ+bOmO7K1TnnHNVRrVa3Wq3O6paECEJCSIAASQSRQWSDI45EjyO2MQZsgwkOYIMjJghsM2MPSaH13q6SGhkwBkwQUJv1NVW7du2wulq9/15rr81mkXzUlTA6IgYYZUOXIStgRQgieaizXM8X41fE2mvhSZiiOa6IMPqVQjkJw1emUAiCSAFuCaqlGt7QMoAnoYu3UHg55JTNhtgDpxDEVlhF4XFurVsGuj6YT3UShtkIJQNkPoipMHsEhEDI4OngVQhCUNgcVHszZpJ3kSEhCIJhiC8mneWGofkA6CEWjZODRMpGMBgXEAiBsqAHWCwWmz2AtXQlhfL0XSxArWyTX+2MGjhCHALdB4mujTocMbQGQMwopLLJrKVaa6lW45DDaAFnf3CAwGyGWm/4U8PceF0aYKj1PplPD6thvl7iLYEeWGs33T97gZyqvKbJ66lc6kQ2SS+DPJVLncyluqrA66lcip4d0q/D6t1kOkNr4Fgm/qjdVMR+YKlJ9xlA1mt6xxntMRq4qzXAUOvtoNbL7atDc+IvDDG0UhbXgqE1sOlD//r91olgXevIMstfn4rlNyb7N8Z/IhrTjQJt76bk+52BgJkH6A2CYYQtNwpCtW6BhoBgQHkojGAIiiIIiiADOApBJB/1psxqgxTHURQGpteCsZQmPRxFcco+St9CZ6IwDOoZLAzBkEDG8aRNYjWw6sJs0BbMprrBBkZRUBKBeRLSm7FobRoYRWjmBCZTmLpKmUOpu0BOoS3QGQgCjQLOY3EEqNouEUjJi0OgaJyup9Bz2rhKtYvQ9Q+Mt4DuCCIQ8YtHWlQWORjz0ISwFRZxaW0RT0giwEQNErhOFYNgeMSIEdQpW6TiejImsYaPExiCwCwWwFoaRNlsNmh40FRLcyyCQGIVT6oTYsSgtZaqGaGLXlIegaQKSWiMyxTQqIukSh2gVqpCNgyzMQyBETYEAeiFYfaL7faeDT+6WPq6sIQpzGjgKhpgqPWunjHcpZ3/LBltkghq+OQnyfK7dAjX1e0TlYmu6vSxbPJ4LnkilzpRNSA0jp4CUJoGXJoDnPN1VbormzyeTRyrjJ/IJqirqZPZZFclOL6udpnCt00DRzOxZ4us5gf+2CQTHYiFb1u7TEOMBu6sBhhqvfPUGhnqHjyEWoGhdeOH/vX7rFQ0pttDrR8sKQHUCrEQCMI4kC2kc8WNGIkClIIgEsdEYo7cwJfpeXwBDtyC2SySh/gzNp1LLtZyFUaBRMHH8AHgxDCYJyKURqFMx+cKcEBVAJTYGA6L5KTCJJTr+QIphXYD1GqmqRVFYbGCI5ThwKYKQSQXU+iEcp1AYhD4czadXQuoFWITJCrT8JUmoUTJIzk4DLFRBOGJOEI5Z8AYC7EFMoJH2YFRDJJp+Aq9UK4X4TysYBlGYFC/VM1XmUQKnZDkYbQvMcxmExxUphYoDUKZio8Tg6BOgysCqR3S0jEOsVQE02gKQwIpR20WKQ18jVMaGlXEFRKAVFGEL+XIDUKFQciXcjAShWAII1CJmqdxSAMjbUa/UqblSpQ8yoOXjeGoUMpT6kVKg1Ao4+AkcD9GMVgk46oMQrVRJJRxgCGcSggKSzR8oRyXa/kqo0gk51K/BMAojpI8UutSlI52CtUilIfjXBxgKgxjJCbVClUWmVQrJHgoAgywrBfbbd0Mtd7ozz1XgTTm0iUaYKj1zn7l35+td2WTf/Y6zb//3dNO6z3jRdmVTX6ViX2eqvg8WXEoHvmgIryvHMi7kdDrQf8mr3OT2/Gcx/Fnb9GLxe6XAt4tQf/roeJtkcCucMm+SOhARfnhZMVnqdiX6fhXlcljlckuyjwLiHdQ6KeF5liGYIfPZ+dIuuIVvzuFwROkwveipffMIz18NMz0ZNhqgKHWO0ytla8cLsRhKixtpW2txRs/LN74gW/9PnPzbKVWU0N5CPdtSuY3xfObbolZrHdTskCtKAKJFBxv0iI18VAMBe7BCKSyilzlBnuFxhnXuaNGqYELI2ySj/rSNlfSYA6pnEmdN22WGQQQzMYIWOOQWMMaY6nKWqZ1RHRcAQBLDIe1TmlRTG8KqY2lKmfMwJMQEALxZRxvxixRcxEUkqh5zgq91iVlo2ych5kCKntUbwgqreXa4CgnTa0oB9G6ZLaI1liqskV05oCGI8AhGFJZpLYyLQe0BeMc1BrSqG1iGGHjXNTgVVsCGn+lXWEQAYswQGgI56CWoMYZM5pDakdUbw6qCWqdKk+EG30qW5nOVKq2R3Qah7QArhAEERzCkzQ7yg0EBxiiIRjiyznupMkV1xuKZY5ybai2iBTgEAIJFDx30mSL6CxlmqK4UWWTwNRaU71P4YjpQ2OL3EmTJagxuNUYAQzAUq3Ql7LYQ1prCDgDK80SGAFcrbRIrWWaooTBGtIStE8yDHGEuLPCYItozCGlpUxVFDcIZFwYhflSjtGr9mYs4bFFrrjJETZonDIYhVAc1dpURTGjo0LviOotQY1AxqOplbG1XsJXzOmt0ABDrcN2NnBvd+zTZPlYASdJImDv1sq7ePnf8crEp8ny96KhN4L+dR7nQw7Laru5w24eZTZWWQyjixxjPe7RXs+4cGljtKypIjKBkrHB4jEl/lHFrhq3bbTJOE6va7PbOt3uZRbbo27Pq6Hwvkjkk2T8eGXqVDZ9sgpYYunngSbYe/vZuLtGd7Qy/pLflSGQLBd/PxpikPXuevuY3v5MDTDUeoeptezPg0GYCtGYNh+g17UOUOs6QK0KraYmYjn9VAW1PcnVYgj/nInmD6gVh3VFMk/ajHEHYvjgXMSVMNnKNRwxwpPhjqjOHFJiHOAh7M/YHRU6gZwQKMjinNVZocO5wMrqTZt1bjkpwEUKbnHWqnXK2SjEk5HejNlUrCQEOE9KelImpVXERtk8mlo1PIyDWIJqW0RL8FEIgYVKrjdtVlpEBA+TGYTB2gFq5Ss4rrhRYRVhQkxqFAWq7SqzGAGwzXPHzRItH4JHiFQcd8okNwnY7BGUzRb0pGycR2OXISgMfIxhSKLh+SqtEq2A4GFyo9BRrhcouBAG6YrknrRZrBNgAszkV7liBoGMAzx12YBRpWpRoMouU0lgyrOXDbGKknpf1iJScEkBrvcoS2uLCB7KgkaobDKDVyWg8m3lOk/ajHMxBEMIHgZMx9VWuUXEEZAEBwe+uiisdSgNXqVQQQoVpDtmtIa1MAohKIKTGCnArKVad9LMERHA4xiBeVLSn7UZ/SqOEOfLOEUxg96tpKlYZVQ4o4bQmCK9W621qqQaIYxCPAnpS1m1DjkuRAQqblHcpPeoKQ9hG0OtP+ezw9x7jRpgqPVnfmczt9+wBt4s8al/+5+POMxf3J27g3yRqtgfDb0W8Cww6ZI8MqIQh52WuM87ZXz9otkdjz/22AsvPP/aa6/t2LFj9+7d73/wwaHDhw4fPvzxxx8fPHhwz549u3bt2r5j+2uvvrppw4YnHnusc+GClsbx8YA/qNeXiSU5rmCe3visz7MnEv48XXG8MnEim2CWSt7ww3brbtwbCWZwZKpc9B5AVmYtK6OB+0sDDLXeSWqtfPnjILXJTcHKejGM8OYD/k0f+jd+6Fv/nmniHKVOe1uoNfXh0mCxiYvAI0gB5ogYdB4FSiDUeks2V0gEq51yjQiG2AjE5nIQAWU7JXlIccYm0wjB4lGI7Sg3uBJGggcLFJxAtU3nlssMAome70kbXUkDC2Xz5Bxf1iJR8xAELEAlSZjLRSCYRdtadcVyQ4miuNomVPHo5aBSncCTMgO7JQRxxYSv0krbWkVavi9n1VhVCq1K59AEahwqqxLCUEKEudNGtV2MEZDGLimKG7giAkFAOCUEhrhCPDzWpXXIUQzQOIxAJr/KV2nlS0kIgjAUFgoJHIfZMMvgVQaq7WqbWGEUGLwKb9os1QvB+l42hBGwOaD0VZtRUDGoB8WQ4ChHUYUBwRAYhVU2aXCkk+ChEIYgJMKXkWI5R6zkWMo0oVFFOBehwguzeTLCmzWJ1FxgraUTAiMclCfBRTKORMV1xYzFOSsFyvR6V7bGJvMkzRwhDhpGYK6ELM7ZNEVyCGEjGGIpVZuKAeVCCAxhsMIqKR3lFEiFMAaxYRYMswVyji9j4Us5EMTCCcRWqjUWqxlb6zUSF1Ps52ug/+hb/fne/mGWLnx08OuJ47uqQCiarqrUCbAa8KLcugkoU/Pt1AC9d2sEg3ZHwifukmirwA04HXuvIvR6iW+13ZSUcVVCnk6jTcYijz/6yLFjx7q7u/NXSpd/wi4p1Z/vp+XE8RNPPLE2l02bDRqLTJSSy5YYzdv9nvfCxV9lYscpRTFrXG/ng3qVtj5LReslghSBvhsJXqUYc4nRwL2qAYZa7yS1pl76uOSK1ErZXWlq9QNqnavRqmvLTKefivVsSvVuSlIW11Qf2NjmUskDF+Lr2KN16DS0dxNFrUYugowQq3m+NLBAIghCraBkcQR4Wa1brhHRm9wQGIpjIM4wwUMCWbtCJwYkhsDOcqMrYcR5sFDJKamxFyUMlrDaHtbaw1qVRczCIJ6c9FWaB6gVgjEExlAQz5cnJb1psyttcKUN3kqLQEmxHAzJ9EJv2sIR4CwWiysi/FmbjorGJNLyA7UOe4XeGtE4KvTOmF6s5rFYI1AMNngV9ogOFaH2iN5UrEIxyh14BGvEA38ieHB4rEtjl8EIBGgcYZuK1d5KC08CqBWFYYKKHAUjkNGnCo11uZJGZ4xywS1WCiQkTZekEHcnTVqXnA3qACGUEBQuHe1wx0wIBuINK6yS4EgHyccwEjEVayylGoNPbvDLvVlzoMZOxRYGIZEECo6/yiLS8Fhsqh4YuCtr3XKTT2Pyqkx+pTdtDlTZ2DAIL0zFcGJrbHJPykLHEIZhmCsminN2TZFskFo1loCOjhUMI5DcBKhVJBHSK29hGBbIue6UiS8j2WwWjsP2oNboV8Mw6wUmGhOzqPW2aICh1nt1MnFXjGtbidf5p/+92mH9IlUxzDt8ojLxearinXBgjcPcaNQ0FDlq49HFixe9smXLl19+ee7cud7e3gKI9g1JdGZPT09fX18+nx+Kr4XygFf78kDy/aBIvr/nQvdXXx556cXnF8yfMzKXrraa6o2a5WbTjhL/56mK+yf28vB8Kk5lk6eyyf3RUJ2YXwaNWFdk/TITG55dZXrFaOCWauAuplbw97f3Qv71ifnNqfxmemPSxA0D21B4+5nH3z4Znz0uHImVZ1auq9lyaGi44KHH1VsOF+Iw+TZ+6Fr33hB5f+D42feKntlnmLJCWxRMp8PvPT760Lq6Q+vqDlPyybq6y2TsNxuqb7j/VAzhEp+RTxCwziF1xYw8McAbKq4ti8MnSnIOjU1CkBiKwgo9X2kQYBhMcFF/xiLXCmCEzYZYzojBnTARfEyg4HgzFrVDQghgrhiEC+IJcDbC4stIX8aiNIpghI3hiNIoUpnEMMziSwhvyiwziwVajitmMrgVKA5BMEuq5fvSFpGMB6OwQM4pqXHqrGoYg0UanittkuklXCHOE+FCGZfkghhLCApLNfzirFVm5gdyNpkeLLKFYWB9hGAWCWytbp1LjuJgZ1gIYendcl8GePbCCMQTEBqrhCfCIYRlLFK4UyaRiiAFiEBMiKVcDgcDW+zAkFgtcCUMfBlZiPELI1CgxjYQuQpla12ykhoHwUd5MrJ0lFPrlfHEOFeEarzSkpF2nItBMAuCWUI5z1tlkZlEMNgclwUhsFjND9TYNRYFKcR4ItwR0fqzFggBPsksiAVhbJ1L5k6ZeTIOBAyqwPjsz9q0LmBrRXHUXqazBDVgmyKYDSNsmU5aMtIhlAggEIeJBYPFw4QrZRBpeGyUhXEQW6nO4FbByAMvtDl7Nt7gjx03/LwxN953GticHs7UehLs+ZE8mUt25cBeIAW5pd/BTOW3UwPH0rEJCkmMQPdGgoVgubezA1dpi47oezILtqL5KhPfHy1dbTVUSYUVTsf8ObO2b9v22WefnTt3rsCn+Xye5tICiw496OvrG8qrheOLZfryeYpaC0ZXUGFv39kzZ44dO/bWWzuXLlmcDPgSCsVKp/3DaPirdPxkNnm32Kivoue741JV6lglUDj9VHybS3+WKJ+ilLn+9MfNXueXw/43l7tDyYx/9V2ogbuVWgf+8g5SKz35y29K5IfBzJum1rJY5OrUmnvlcPjPA3veWJ/Yo1y9U/ngDuWq7cqVb14i8kUvyWat185b71++qXjl5qtIYNXmeY8sPb2h6oZnw+91lvjMYr6Q4680G30K2rMUIBYCAupaS9W+lFVpFCkMAl/KavDIcBIlOJgvbVYZhRAyAoJH2MNaT8JM8nCSh9nLdEURncIgUBqFrqhJqRNDyAiSi7liBkuJSmkQaGySoqhB75RDyAi+GPfEjSI5H8YgnVNRXGlXGUCdfAnhiZsNTrnCIDS45eHRbq1ZgeIIX0b40hZbqZYv42nt0qJyo1jBB5u7IGyugPAmzIGcxZ+28AQkhLDBkk4BIdXytE5p2Vi3K2aU6/hCKRdG2XKtyF9pNbhkch3P5Fe6Kow8MQ4hI7QmUVHMoLaJZDquwSM3elQYgQA/W4RlCWpMfg1GojS1UkZmyBpSeSvNKotUohQXxUyBKjvBxUgh4c9Z7VGd3MKXW/j2qN6XtZJcgvYQFsoE3kqzsVgpU0vEUiGEsAUSnjdtMfoUEg1fZuI7omAdLISwMRIVqXkys8AQkAdq7FqPTGLg4yTKkxL+rJW2tWIE4owYrSE1eCMQNoyw5EpJoMYmkvBhhAXBIJMjRIvielNAITMKlGaRJ2VSm6SAWltdDLXe8KeGufFaNAB+W9yc6T/29nD0ED548OuJjYUINMyU617VwNFM7KWAr+hPf1hjNR4bdBIeDu97VxZ4pJ/MpU/m0odikQ0e50ixIOiwdcyYvn///u+//74AqAX+vOEDGmgvMcNeXtuZM2cOHjiweOGiUoejQil/usj+WTJ6PJsYpOv7azXd7fxEdOWSx7KJXSHPicoEvVThi3TFQr2mDEGecliPZuLD7QeX26kcpq37XAMMtd4qD+GfpNb0y4foVaz+TQeMj+2WrtxufWJP6XMHos/uuzEpf2afZNm22jVrT/0McyugVotYa5YXZ61COQl8UwcFQtikkLSFtKXVRaXVRbaQlhQCIMQIxOBVKLV8CpZG2ErU7qgBJ1EIYcm0fF/c5E/bSquKjB4lX8gBRj+EJdXwvDGLN2HzJmz2sE4g5kIImyfEHGEdXwwaRUnEFNDoLGKCg+IkavFrfCmLN2l1x8E6T4mKj2AwSiBKi9gdNxdnHL6UxRpQEzyEWtIJuqQrkpWOdOhdcqongFpFcp4nafWmrMEae2mN05uyGIoUMMZCCbbRo/AkTFT9ZoVZCCGA0hGMpXfJ6VvcCYvKJqLzYZTlSZrUdhmCwQVbK4RAHCHXWqp2pyzulNkUUhTFjTiJslGWwiJyJ02elNmdsqi9wqIKA72ZDQyzUQI2+BRu6pLBq4RRNoyyNU5JeIzHnbHYy7WmgMIUUMAoiyclbRGDO2MpHe3y5SyetNmdtBAclBRhjqhOIBfQA1eYhRqnhKZWCGFJFCJP0iQQ8yCExaaoFUJHCJQcvVcaGOl0p00GtxIjEQR54MU2N0Ot14JeTJkb1gBDrff5bGOYDP/TRHmrXDyKz/2oInQym6SR9Y6DK7VjavJ4dfpQKjZVJXfIZOPrGw4fPtzT0/OTeHk5cF495xqpla6kr69v9+7dM2bM8CsV0xTyveVlDLje6if5RC65NRyoFXEOJMqPZxNH0hXLjBoHxHrEZj6eAQbYr4cEeb7VnWHqZzQwrDTAUOudodaaLYfDg9u00tSqXLlj1vYvPvz69Kenz9yYbP6oS7ty58jVN4Fa/QGPrVRNoc5FamXTFlceQfBJIDyCQlA2BDaVAcd0AYyD06f0VYIuzyMQDIQ4KhTDuaAenEfAODBgUg6uCMElKMdXUCdKogSXGKwT4wi4JJ9DgnZJBIdhlAovhMOkgMMV8Ug+ieAIXflAbSTKEXBQEitkwhiMc3GST3IEHFpIHkHDHoLDdD7GwdnUQAa6irA4Ikys4pJ8gs4HyK0VueMmoZILtoSFB8MogfC/EMEjqU5ySD6HUgIMIRD7snywiSuVIASCCYTkkwKpkE15/NLlhVIhXyKgqyJ4JNixhkCHVk7yOQSPhBAIwUE+jFIO0AiEkRidT7kEAz9hNvANpgSi9vlB2BAK4Ryc4JJsFAJXERaCshhqvWEYY268Rg0w1Dqsvvvv2850ZRMv+d0VGPSE3XKccsK848gKHEEpr+BdkZLJCmnIbH78scf/9t33wHe398qOvlfn0pt7NZ/Pnz17duOG9eV+/wSlYnuo5GglE174FpqaT+SSjWKh6Nf/c4On6NNU9CmH2Q3/cZFB9UUyet9+bJmBMxqgNcBQ652h1vTLhwtxgwvUunz3l+d/xlfUnuN//fnU+v6SYLFFojdquCIU+JTSwPPDV4rWBlmIugT/sMAld/3Y1R/LL9zOBkGJR0AQixY2NIISsCJ08HgEWA4KTq8gVEzji/lUtSxqjSuIhHR565fnFHpSOIARlsIgVBhEgJypSgZfIcrp97pewRJZ2lV4aH8GK6Q7eV0VXlJ4YJhXrRA4EiPoiBfaPYyt9Rrpiyl2YxpgqJWZdgwHDXRlk5/GIw0iXoLED8TKurIJehp0B/vWlQMLWV8v8dWJ+elg4JUtW86ePQdMrHSY35vLoDdUWz6fP3/+/M6dOzPl5TmJ+LWg/+jdvOftHXyvf7Lprlzyk1RU8bv/+uX/9X80SESP2k2RP/2mVSH+OF72k/cyBRgN3PMaYKj1zlBr7MUB9+BisMMN8BBWrtxxvdR6vrfv9LnuwnfQTaHWj5dHxgQ1AYvIZ+L7jII7K14D32vgeww8+tVj4Hn0vIun+oHTizkGcPXHhK7Na+T/HPEZ+X6z0G8SeI28e0K4PhPXb+a8OjfEUOuNwRhz1zVqgKHWe34+cdcMMJd82Vek+e1/PjZobr2zPT+RS+4vDzVKhLlwaPeed89fuHARWX8QA7jwbX8HDvL5fE9Pz4EDB6orKkbLZHvLS5nITLfisenKJd8OFf/h3//9X/7lF9iv/kPxv341QcJ7J1J69O7cZPhWqIip837WAEOtd4ZaA88d/Jm21gu9fTuOfLv47c8/PPXd2R7gRHRTqLV3Y6J7fezC8JDz6yrOr6s492y0ID92Spe8+uuF9bHz6ypu9tASF9YPN4l1r78+6dkQ79kQ7x0GkcyukX+YYnejBhhqvZ+nGsNt7F25ZJZEnH/8/b5oCASOvnOxNE/kkkcr4485rD6d5t13d+epdAeo9BqaBEGG+/reffddt8W02Gw8wmy+clMfmy7K7/p4NrHcpPvn//ZPf/f3f/eLX/w9+j9/Od+k3xkK7I2GmNDBd/BzyjQ9TDTAUOsdoNbkSxfdg2/M1tqXz7/X9V3Ncx/Ilr+Z27R/+5ffXujtuynUOtxmw70b432b4r0bY32bwAF1DE7p/CE58d6NPyGFGm7eQaIPbI17j8nN/0QMt4eK6c8d0QBDrcPkW5/pBsCDXHJXOGD7w+8etZm+uqP0dSKX/ChWXqVWrlix/MyZM9cAj3eySD6fP3fu3OoVy1NK+c5w8I47V98DD3NXZYKOCQwOqtKH09EyHP2nf/zFP/z9L/7xF7/453/6h1/967+q/us31ULecz5X103l5HtAe8wQ7jcNMNR68+foP7nzTfSFjwuG1huj1qPfnZv86keaVdvFS9+wrnnr2Q+P3avUSk+vLzEDXnJ6R6bg9xysFtj75n8i7tAbxAxkeGmAodb7bXoxPMcLkJVak3msMj5VJhrJxfeVl96prnblksezyadd9nCR87333vuxTVbvJKde1nY+nz9y5MtseeQhm/n44O5Bd0qB90C7hVk4OMgl34uWqv7Xb/7xF38P5B9+8W//7Z9Z/+P/rkBZnWbDrsgde1DvAT0zQ7g3NFD4vHw9qursjjfyvT2X/YkaXhl/R3eH9qLJ3z37tdZsOTTy1cMjXz2cfeVwcIh78A1Q61/OdS/b9YVx9U7x0jcky7bVv3TgyF/P5vM3x0OYAQxGA4wGGA3cCg0w1HpvTBrugVHQ856ubPKNgKcMZq21m+9UbCFArZXJMI6MGTPmu++/H16zrR/vTXd3d8eM6VN16k9SUVqZw+ep6KpMnMjeoBzLxG743hu+sSuXPJFNHK9MEblRHAAAIABJREFUHK+Mn8gmnvc42P/+b//6L7/43b/9n4Lf/CpOYE84rXsiJV9Re94MHz0zPWE0cEc0wFDrzTdHXN3Wmnn5UMk1UOvpc91XjCfc3Zd//lCXde27kmXbJMu2pdbvO/j1wFfdPeohnKAtq70bwQEt9JT6ktNbMc9m6mQ0wGjgZmmAodY78h3PNHq5Bgqg9Xkq2iYT1/I5hxORy4vdhpyuXPJYJmFhjVi6dNm58xd+nBOH15V8Pv/000+nRMKPEsOLWrsqE8eyia0B7w3La373qz7X7ZTX/G4gxa690dDRyvhCnZz81f+wPvCnhVrVtqDvs3TF8VyyK5c8mUsNhy2absOHgmmC0cBVNMBQ6y2k1vTKdQUTK21ozb1ycZvWgpPwJTGEe/ryH5z6fvaOTzd/1PXXCz1DIwh29+V3H/tL6VN7JMu2SZdtCz+95+2vThe+ze5Jau3blMxvTtFSmD0PPR16XCjAHDAaYDQw3DTAUOtVvomZS7dNAwUP4ZPZ5InK+PNep+UPv3vMZr79EXG7sskT2eSBeOSB3/9+9Zo1dxe1vvjiixax6KNEReEngNv2Dl6loa7KxBKjWvXAH/QEaiDxGxAjFzdyidsmJi5h5eB2koD+4/9pEAveDJc8H3Bt8bs+iJedyCW7qlJdVQBWC3KVsTOXGA3cDxpgqPWWUGvHuLKyWHly1bqaLR+PfPXQoByufPlQ8LkDBV6lD4ZS64XevhPfn5v6xmHNgzt8a3etO3D8r+cHwLUvn//g5Hejn/9QtvxNybJtjkfeeXTfV9939xaodS+1X2vtmrWnNtQMtwnrDfdn6BLWoYbWvk3JS05vuAnmRkYDjAZugwYGqPXoW/35i3+1Cn++7uzBhY8Ofj2pkTFl3D+THnqkXZWJTxPlo/hkDEMOVIS7ssnb+gwA19DUgXj5//7tbxctXnzu/Pk7+ym49tbz+fz69etNQuEwpNbFRlXE7Viz5qEnn1735DND5Ol1IOcn5cknn77d8tRTT6xFHvgj8cc/1Ktk28MlRyrjJ6vTJ3LJE7nkyer0yVyKsbXeD3+amDFeiwYYar1F1BoJlYUqlj6ZfebNqnU7cs9uzz7zZubJNyOPbPGvftm/+hX/Q1u8a16xPvS64eFt+ofeVD34pmLFmyt2f9ndmz906vvEs+/Kl20TL30j/MQ7Lx48cranr7c3f+psz/Q3PjWseUu6fLt61c65Oz8/eYba1W3wq2Z/13eaVTtHAWodeRvmoLezCTDf3XTxnWLsq0O1wRzfFA0UHM6v92CoO0DhybzeSq5S/qaM7noruaQ/PRuTPZuSvYM/FQ1c3ZzqpT+Vm1M9GxP559LglMoEJS8T8EvTc5n+IzvzfT19gwnsSzkkDQQs+Nn/DanyGg7z/d0fHfh6UmNXdborlwS2uEziZCZxqjJ5qhLsiQIyQdScBC30bJI2g3TlUieAXLxaKHbZAZiDgtknEwV0GGigQKdd2cQrxW7j73/7qM18PBMv5N+it+kH9QMsAdT6h1/+v+MbGu6ida0XLlyYOXOmgvXAMKTWOWpFY93Y06e/zfeDPy7XJ/l+8K+//2f/BbqOCqjm+lQKRTZbGQv4G+XSfeWlRypjx6pSx6svCiDYYfDBYfrAaODOaoCh1ossdL0Tux8r/+2T8Y5xkbKycHFFRUkiEUwmS+LxQDxeEi63uz1as1lvtRptNp3FojaZNWaL0mwT106TLX19xa7PevN9Z7t7H3n3sP3hnaLFr8qXvVHy2PZtnx47192/9uDX+lU7BUveEC3ZVrd59+d/OVeY74E/kP3971HUOnr1E6fW1/5Y35h8RgN3rwZ6NyZ6NqaGm/RuSl8uw62TV+lP76Z036Z03+ZMQejhXHZL+pKc7o0XB969Idm3OdO9IdmzMUW/0oULmqFP+57L9h/d2d8P9pe+YrqOud5Vi1KT1T6qoau95vO9QPp6Lhz84OSkCcers8dzma5s5lRl5utsJS1d2czRbPqrbPrLbKogR3Lpr6rSX1VlCnI0l/mKKnakMnVF+aoydSybPl4J1jGeqARsfGe/++/z1ofS47FMvFbAyeLwB/HICep9+boqfYv0Q7c78O4PUut//du/OfT6gwcP0g81TU1X/IAMh0wqhvARv9/P/82vhyG1zpLLGurG/uX0t8NBV9fYh76+PrVavXTp0h3btwWdjokK6UcVoaPV6WPV6S8ysRMjK4/XZI4z1MpAO6OB7MBX56lciokhfNPw9dsn47PqIuFwuLS0NBgMlgwmq9Wq1WpVKpVardZoNGq1WqlSqtQqhVoryk2SLXlt+a7Pe/N9ffn+L7+7MPfNg8ZV22TL3lCv2pndsG/V3i7/Y9sky7aLlm/3Pr5351d/6aV+R6T/Jg5Q64m/albtHP3gWoZa714wY3r+Yxro3ZT87pnk+0tL9y4uuRWyZ3HJVWRvZwmQq5Yp3D7QPfqW63pdXLK3MzgcpDCWIQfBS4ffGaKv0vl7F5e8u6h4D3gNDLkLaLXwfu1ZXPrh64/u3ffenn3v79n7HpB97+/d9/6+/R/s2//+vn37992ktH//vmuT/fv27d/z7p69m9a/MzK7I1Kyo6xkR6Rka7hkS1lgS6Tk1bLAa2Xg9PWyktfKSl4LB2h5NVS8pbR4S6j41VDgVZBZ8vpFCbwevpq8Fg7srgh9VRlnwPUWkeH1VtuVS74dKjb/4XeP2C1fpcFCza+r0kOx9norvEr5K1Lr7//7fxfjxJo1ay7Zr/UST4RrRKBbWiyfz585c+bRRx8ViUTi3/1mWFKr9G6kVpVKtWrVqjNnzrz22paQ29UoEe2NBL+ojB+tSh3JJo5SC1yv8lwxlxgN3CcaYGytNw1WC7NtmlrLysKhUGiQWEsCgYDBYFAqlTIqKagkV8qUKqlMpRJmJ8k6ty5/+4vePuCa0tvbd+T77jlvHrSv2SZf9gZg15U7hMvelCzb7nxk1+aDX5/p7h36fcZQa0H5zMG9qoHeTcm3F0VyAU3IKhoUYch606TUIvhRsQrDNlHYJgrZRFcoc3kfqML0Ldf1GrKKw1YJNbqL4wI12G+iiMP2IWITh6yiUquQGpew1DIgIatwMLOgFtClocO/RPlBMz9oBoXp11KLoFBg4C5KUUGnLhCKBMLRkoKURYPh8pJQWTAYCt6kVFoavB4pKSmy+VQCn4rvVfA9Uo5Tyi2S8ovkAq9cGJCKSqSiYonQLxb6xQJKwHGxRFQsFRdLgASkIlBMLAqIhAGR4EdEGBAJS8CNwiaj9oPEgFnvPplqDPNhHs8mmiWCMMLeEwneIl6lNXAptVLrWv/0y1+Gg8FUKrVz586hW7YO/Za/pSx67ZX39fVt3749Foul02krgTLUeu2qu0rJ3t5emlovUGnnju0lDnujTPJOuPhINnG8JnO0KsVsjTvM/4Yw3bs9GmCo9ZZQa0ddWVlZKBQCttZSKhUX+zQajUKhkMlkciopFAq5Uq5UKWQqjQhQ62vL3/mMXu+Vz+f7+vqOfXdh9hsHzCtekyx9Q9K5TbR8u3XNjof3fP7d2W6wVKPgH0yvwejvf4+xtQ5Z+3qvwtt9O67eTck35/iNKhEMQYPChqFhIDAbhtkIDCEIxOVyUBSGYei6OwYqgcRiqc3mEIslCAIXBAaXWDdHINZAx6jmCILggERyOCSKwEP7jMDQpaOgxnhJGaoYG0FgFMMgNhsq1A+B4QCdDNYDQWxaYBjBCA7O5fFEYo5AiBAkhOFAYBSCEeiqCYYRFMVJkouiGEylKxanL8FAhwNpIOeq/w0oHLx71AMGOj/4LoAbC08d0AyCoBKJzGAwicVS0AZdYGiZi0/p4I1UhSiCoCgSkIp2RkO0M+rt+aZnWrm6Br6pybxR7HY+8IcHzfpjg05oV7/lxq7+AIlBNKbkgXg5+z/+Y8mihZMmTawdVbt37/6eHjAR6B9+KZ/Pv//++2PHjm1ubn7iiSfcfC5DrTflXerp6VGpVCtXrjx//jxlt+h5660dMZ93gkK6tzx4JJc8WpU6lmXWFDArexkNMB7Ct4Bzzq1LbppRkSwvKS0tCQYDJSXFJSXFer0aYOpgkslkCoVCqVZptBqlVi+umgw8hAG1AiNqIR35y9kZr76nW7lNtmKn5sE3p7/6wZHvwHJWyiJ7MYoJKM9Q6y14K+9bRByGAwfUOttnUIquCCp3PBOGYZFYXBaJyuRKCnwgNpWuvWMwDKeqx8zuXOPylaAoCliIShAE0RVee1XXUhInSG8gnK0ZVV1TWxFLCISiAfiCBxL4PQCg5kCCAT1DLIjNhi/m0B0TiyXBSFwilcMUpA5WMPA/gD8q0cPh8fjhaDIzujE3pslTGieEChbGY2OcEWz0YtWDjV7yPwyjfKHEGyyTyJQwTP08cEmJwVMYhqVSKaVGoMmBHlz232Bx8P/QThYKoigulcoJkjO0ORiGCYKMpbKts+YrNFoExeih0XcNrfOSYxhgMEjFDLUOvwVan6cq2hWSWh7no1jZjRHptdw1lFqpnW9ANCboV7/auO7ZAx9+OK5+fDQa2717d09Pz7Ba3ZrP58+dO7dnz56KiopcLvfhhx9u3brVw1Br/01I+Xy+p6dHqVQWqLW/v7+3t3fv3ndTpcEJUvGheNln6YoTValrecCYMowG7m0NMLbWm29r7duU/PaJ+FOtFbXpSDoWSkaDifKgx2m2m/VWk95q1FuMOpNeYzHqbCaVy6JyWLTq2inypW+s2PVFT+/F+HXgS6u//7Nvz0x+eb9h1Y7Ys3v3HPn6fA/YNKK3r4+xtQ5DsmK6dOs08ANqBbN/FIYRYN4bTAiC0ugBjFnIRasdm8pFEGDlgoDpD1DX4CtC8+ElWAg4B8AFaGKw+qv9j+I4iuO2IlfH/E5HkbvQ+qCpboCaIAiiL9FAywa9p2yRoG4wJKe3pG5im9FkhiAAvQNNUqY92nA5mEXdgMAwZbmDhwz2x3oJbgTlURhFaC0RBFkaKmuYPL1l5oLWuUsNZnsB1Qboi6ofQhDaSAq6RHEsG4ZgFAECI8CMCEEms2X20jVOjxfFcEr5gCcHVTpgYQSWaErzAoEgns6NbJg8Y+HK+pZZQoWOjfPZGMmCMKqLhRsHhjKoBwr4UFyh0Y1vme4vCQ1iJPUkUOOiWgSGUhjBRGJpfcv0WKYaxXCUMn/TXSpwI3h7h6TCVbpAQf8anbF5Spvd5YERjHoY6IcHwXHCGwiNHDdBLJH9kIoRqiRK956qduBBAv+hGEo9cAy1Drd5FT0TejngjiKsZ1z249nEULy8ib0dWm2BWuFf//q5Deu7L5w/ceJEXd24cDi8YcOGUydPXrjwg20C+u9Eokx/vadPn37hhRdisVhNTc3Bgwf7+vq2bdvGUOvNekMKttbu7u7+/n7a0v7/Z77++qtei7lZLtkXCTK21pv4MWSquns1wFDrLaHW3k3Jvz6d3rssvmVedMu88lfmlj8/O7G+LbK+rWx9e2TDoGxqK9nc6tvQGhg7t0O7Ytvy3V+e7wURL/NUKvxBPHjq+46X9rz26ddnu3v7fsirdBlQnLG1MrbWe1oDBWrFCUIiU+jNdr3JJpLKEQxjsdkIhsqUaqFELlfrDGa7UqPDCYIGJxTDFWqt0eo0mO18oQjFUABCMMTl8/Umm8nmNFjsYpkC+LhSPMfjgXy92aYzWEVSBYaDegbZ6VIqhGGYJxAZqM4Ul8UWrXna4fGjKIAWDoerM1p0RqtSrSOBsQ5GUVSp0ggEwoGOoahErhSKxMB2R3KUGr3KYDHaXALhQAEEQTAME4olOpNVa7QoNXoMx2msghFEJJbojBaj1aFSa2iP2Us69wNjLwwJxRKt0WIw20VSOYaTMAzjOEFyuHZ3ceO0OQazfWCMgKMRlCAlcqXBbDdaHJRycIo5wS0KlRYo32wTiGSAwhHUbLEueHCtyxfQGy1Gi12mVIEfFCjwJkiOQq0DyjRa+EIx8NpFUZwgYZwsz9Q0tc8RSWQwggI2BgxMQfAPh8FisWAY4QvEepPVbHPY3b4pHQvcvhKK5REOh6vRGfVmm0Zn5PKFCIqjKC5XaW0u7/SFq8Y0T9Oa7Wqdgcvjoxj4UYPLE+j0RqPZqlCpuVwe/ZsFiqJAmQaTwWxRqjUcKh/DcI1WFwhH5y5dk8zVavVmpUZHcHhsCOHwBGqdSW9x6EzWQZqlfnVAcaFYqjdZjWabXKnBMByAKorLFSqJXKnSGkxWu1yhwlCUodbhOWf6PFUxUSaq5BIfJ8qH4uVN7O3Qan9ArRvX9/QAYjl+/PiMGTMymcziRYt27Nj57bff0l/6V/zqL0wSbuyAmjj0F+YbhdNCbfl8/rvvvtu7d29nZ2cuV9XW1nb8+PE+KjHUWtDSzz/o7u6mPYRpaqXfiP7+fgpcXytxOiapFO+Wlx7LxG/io8hUxWjgbtQAQ623hFoHLU6pvk0XZWBvw8vQ4sLG9KrH5htXbB2kVvpL5KID8IXevmPfnbvQC9D0iomh1kGF39J3k6n8TmqAplajSux0uUc1TKqfPL1+8vTahkkypRpGEC6PWzm6vnJ0Q1VdU/3k6eNbZpjtRbQp0ukN1E2c1tAyo6FlRk3dBJFEAgFKJMsi0XGT2un80RMmKzV6GuTCsXTdxDYgza214ydpdMaC7fSHPAUMtnyhKJ6tHT9l5pgJU+smti95dIPTG0BRlMvjlUbj9ZPaR0+YWtc8zeUtxjCMJMl4OheMxHAKPsVSeXXdBE9xEMMwlUZXM655/JSZU2YtsNidCIKw2WwYhoUiSayypn5y++imaWOapgIkxgC4SqTyTFVt/aS28VNmjm6YaLXZMYq6h/YQphKF6IhMoawcVT9uYlv95OmjGifpTFZ6ESkMwwaLo2HKTJpaqcIwhpN6i2104xRayaMaJ6m0ehTFcYJjd/vHUcqsnzw9U1svlatQjLBY7QseXDtq/MRxE1omt82uHjtBplSBpZ8E6Q+VN0xuGz+5vWnKjESmisvjD1iGYaQ8XdXUPkcoFtMG24Lj8SVDYLFYHK4gms5NmDp9zISW2oaJ7QuW+0tCCAYLBKJILDVu4rSxE6eOmzQtUBYluXwMJ8uTleMmtXY+sr5jyer6SW01Y+rNFjtGkDy+KJrKgf60tDdMbg2URrg8PgQhQpE0ma0ZP6m1acqMhkmtvmAZweHiBGd0fVNza8eSR56Z2rG4YXJ7bnSDWmtkQ4jZ7hzVMKmueVrNuAlCkQSGgS0drHSVyjO1deNbpk+YOrNhUqvZ7kJQHMfJ6jENo8dPHtkwqWFye2NLu9FoKpZKmHWtw23CBHgyl3re49D99j/XOqzHMzF6enRz+3kZtYJ1rfCvf715wwC19vX1ff311y+99NLEiRNzuerOzs6DBw+eO3eOZsWCIY6eJdDzgQLkXHF6cJXMoTfm83kajOma8/n8+fPnDx8+vGrVqkwmU19fv3HjxpMnT9JmwHw+z1DrVRR7vZe6u7vVavWKFStoah16e29vz65db9dEyxvVircjQWYx/M39PDK13XUaYKj1tk7E85tTQ4VmrUuota+vF+x/Q21s09efHyq9+b6hcvFSPt/b37/3xF+YnW8YfL1XNUBTq8emb5m1cFL7XIvTZXf75i57JFY5EsMxkstpmbVw2uxOq6vY5vbPXLRq1PiJHL6QyxfOXLhy3ORWndlaEonPWf5wMpXGCFwkFs9atKKqZpRab7S7fBPaOkrCFSiKypWq6fOXJarGKNVajy/Q3Nbh9RUX3HoLrsU0WcEw7PQG2ueviMaSepO1snbcssc3ObygvN3lmzxjgccX1OiM6arRLR2L5AolQZDxdFXj5DaZTI6iqL3I0z5/ub3IA0EQjy8wWezhWHrRmidd/iDdIgzDxcHwtLmdxeGo1mSrGjNh3MRWoVg6ggVVJNJtHQt8JSGt3lTf3DK6oZkCsKHEB6B60EqMxDLVze2zXf6Q1eGaMnthbmwjhhG0x7LebBtPUeugWyzMF4ia2+e2zV1qdnqtRb6pcxbFU5UYTkplypkLV0ycPttgsbv9JTMWrCiPp2AEo6j1iebWDmuRzxssn71sTWl5DCc4OqOldd6SsROnqfWmknC0bc7iQKicPdAvNJquam6fIxKJf9DpISd0/2EYtjjcrXOWhGNpndkRqxzZsXSNtziIoJjF7poya0EgHFUbLLHKmpYZC3RGC4oRKo3G6fbO6nxoVGOL1ek2miwUW6JOl2/arEXFpRGt3pQdPX7qrIUGs40NIaXh8tbZiz2BkNpgHj1+ctOUGSqVGsNJo9kWLE/O6lwdTVfpLXa9wSwA5mKM5PI1RnN5pnrK7IUylRoGnuTAPp3J1Uxsn+P0Boz2orZ5na1zlorEUoLkti1Y1jpnic3lt7uLZy5a3jClPaLXMdQ63GZLp3KprsrE0Uyshos7//j7feWlx2+xaYuytV5KrTSx9PT0nD59+plnnvH7/RUVFU8//fShQ4e++eab7u7uPJWucdUrXbjwOhSHCjVcwq69vb3ffPPN4cOHn3nmmUQiEQwGH3300dOnT9NN0zUw1HqJJn/m6VWolV7juufdXWGvu14l3x8ruxU/pgy3DyPTH0YDP6YBhlqHC7UaVmzt2Hbo8Dd/++Sb7w9/87dPvz372V/OfXr67Cffnjn8zZnDX//t0BChip359DQoQMsnp88/++ExhlrvVWZjxkVTq99pmL38YXdJGCNwGEGtRR5vSYggSZ6AP3Xe0srR4zGCw4bRQFm8tqFZJFNqDKb5D641OopgBOFweTM7Hxw7cSrJ5YglkunzlowcXWd1ujUGs1Cm5HD5EARJ5YopsxamaupsDpdWZxTKlDy+cCi1DqEqgF9lsXTT9PlCkQhBUKcvuOjhZ61FXgRBwtHE1LlLXd4Sm8NVlsguePBJR5ELQRCT1dE4tUOrN+EEryJZOb55ilAopBdeQhCkt9oXP/TUUGqtHju+pmEiXySAkREiqbw4FBVJ5Cw23Nw+p2naTLvLZ7W74pU1zW2zZQr10L4VjmEKqGxun81TbDRZlGptelRjy4yFAgGIa8Vmsw0D1GobuAVGxDLlvJWPprNVJIcPwZjR5vAGwhhGmM22+aseKw5FAbmR3NqmaWMmtGA4aTJbFzz4hL+0DMY5OIc/aeaCOPgpgbQVeecse1ih1rBhCCPJxmkdldWjSJILHKRh5Ceple4PiqKBUPmk6fOlSi2Mk3qTZWrHQo+/BMWIYCTW3DrXW1KmNVl94Yqpczp9pWE2BMzUQpG4dd7yZNVohHIIB1GOUTiWrGyePsfh9pksdl840rF4lcPtR1A8UzNmTFOLQCDCcFKpVsXicfpnBRRFjTbH9IUrbZ5iFgyW3UIQAuqHEDaMeoKRKXMXD6XWqXMW1YyfTPKFEEaURlOLVj+lN5hwgtO+cHn1uEkcvgjn8Gsap8xf/ljCYmKo9ccmJbc/v2D/7KpMdGWTO4M+9X/+xxqL6fN0vOtWRo26SK3/CWytvZSHcAEL6QWlx44dW7VqVTZb2dTUtHDhws2bN+/du/f06dPnzp3r6ekZaiC9JOwwTapXpKmhl+gaent7z5079+233+7Zs2fdunULFixobGysrq5esmTJoUOHent76ehQhdoYai2o4qYcXJ1aaXB94403/E5nvVK2Oxq61b+n3P7PINMio4Fr1ABDrXeMWgsccmET8BDWLHvN89g7lRv3V23cX7Vhf9XG96o3vQ9k48Br1cb3ClJNHVdver+mIJs/CD+1S7Nq55jVT5xaX1uonDlgNHBvaKBArXOWP+LwBqjtREDcHZzkwAhMU2s8N4ogCRiBuXy+XKVBcUKtB9SqM1upWETI5I5FdZPbSQ4HxbGS0tJR4yc3tXY0t86qGtMgU6iBhzBBBsriY5unjZ8yo2nqzNzoerkS0CAArcsSDMPheLp5+nyhUAhBkN3tX7jmGUuRF0XRcCw1d/mjDZNaxzVNaWxpb5+7xGgyA89eibRxcls0WSkQyUaPnxSuSGIY2MSFrltrtCx++Gl3cahga60aO2Fkw0QeRZgIimM4iaA4G0JaZi3uWPJQ/aT2+uZpE6ZMHzt+kliquKyDIAP4ryKYp7i0ZlzTqLENlTWjW+d1TulYwueD1bMwDOtM1vFTZ9HRmCi3ZESmUC166MlEMsXhULFzEYzk8GBq/er8VY+5PT4qDhMysmHy2KapOMExW2wLVz9BhyzCcHJC2+wEeCO4Tk/x7GUPaYB3MUIQZMOUmTWjxxAEB4wORstTwEP4KrZWejgYhgXKos0z5krkShRFdXr9lJnzfIEQhpOhaGLG4lXNrbPGNbWMn9TWNHWmrcjDBmzJFonFU2cvqcjU0EGbqEhIaDKTm730oXGT2sdMmNIwqa25dabZ5kQxIjdmfFXdBA6HSxcDK6IRkFAU1RptrfOXO7x+av0qrTBwEUYQT7DsEmqdMndRrq6RwxdAMBosDc9fudZgNANqXbCiqq6J5PAQFK+pnzRv5dokQ623kgavcfZzSbGCCaurKtUiF1dziF2R0lsaAgdQaw7EEAYewuvX9fYAOyptAs0Ppr6+vrNnz37xxRdbtmxZvLizsXFCVa5q2rRpjzzyyFtvvXX06NFTp0799a9//dvf/nbhwoUeKg1dB0v7FRdcf/v6+rq7ey5c6D5//sKZM2e+++6748ePf/XVV++8887jjz/e2toaj8fr6urmzp27ZcuWTz/99OzZs0MtsQVCY6i1oIqbcvCT1Nrf33/hwoVXXnnF53DUqxU7y0qYNa6XfH6Z0/tEAwy13lZqvSI/9GxKbX5iZmjVBs+K5z0rnvetetGz4gXf8uf9K573Lf+zb/mfvate8jz48oCsetm78iXvihc8dAFQBoh/5QuepZsDK1+asnr11+tHXrEhJpPRwN2rgQK1zl7+sKs4hGIYjCIKjU6qUKEYyhcKWuZ0xrK7XtF4AAAgAElEQVSjMBynWY2OcKsxGBc8uFZnscIom+CQ0xetrJs0jcPlYDguVypVeqPZ7gzF0vNXPRZNV+E4juGETK5U6ExWp6cimZ27/JFoLDE0zjAdsqgQ6CgcS02cuYCKqITZPcULH3rG7vbjOF4WS02ZOb/I7TWazBarzeP183g8KuoSmaoaPbVjocXpa26ba7Q66PWowCCKIFqztfORZ3zBCIIOhIaqGjt+ZH0zTyiAoBEgCJDeyOEJWGx48swFjdNmme12g8lgd7hMFjtBcq9IrWwIlsgU7XM7c2PGG21FaoO5umFyy6zFNLVCEGS02MdP6zCY7YOojMgVqsUPPZlIV4IgUggqkauUGh0MY8DWuvJRfzCCERyM4IxubKlraiFIrsVqn79qra3IBX5EIDhNbXPSVaNIDs/p8c9Z/rBOb4BRBCcBtWaqawvUGk1lm9tmi8UgGFWB2wvRlWk9wzCMYVhxqHzijLkyhRpBEL3eQFFrKYaTwbKKxmkdDo9fpzeaLDaT3cUTgNoQBBFLJFNnL4nnRsMogQxEGEaj8VTjtFmWIp/GaDVanfYij0AoZkNIpnZcTcNELk8AIyiXx9frDRwueLNgGNYardMXrnT6SuhgVBBYwgp4lg0hnmBk6twlMrUWQnCQj2AtsxdWN0wkeTyIMrbPXf6Y3mDCCLJtwfKqsRMIkgsjWHVd87wVjyctpreY/VqHGbieyqUGjK651K6ykggGP2wzfZ6q6Mrdqj0Sf0CtGwC1Usg6sFNrgWALXHT27NlPPvn0hRdeWLp0aVNT07hx41paWtra2h588MHnnntu69at27dvf/vtt3ft2rV3794DVPrggw/epxJ9sGfPnrfeenv79p2vv/7Gc8/9ec2aNVOmTGlpaamvr29qaurs7Fy/fv3HH3/8/fff9/aC0I8F3C30gT4Y9tQ65i+nv72kzzf3tADzhYOCx/UNNNTT06NWq1euXHn5utZCbfl8/sKFC9u3b4/6/Q3MGtdh9tfjPiHG4TBMhlrvPLX2bkwce7Z265Otrz3ZtuXJ6a88NePlp2a8/PT0ITLj5aeBvPT0jJeemv7Sk+2UzHhp7fQX17a/uLb9pbXTtzwxfcsTrVufbP3g6cbujem7F06YnjMauKIGaGp123St85amR47TGs0KjaapdXY0Xc3j87l83tQ5namasTgBlmsOJBjiC4Rt85bFcqPUOp3TF5i9/OGKdBVG4GKJpHpso8nuVGi0RnvRzM7VVWMbCYKQyhXp2jqjzanW6Ipcnvkr1lZV15AkiLhL4xC9UpRmKgiC/KWRqXOWWBwusUwdqxwJojH5AgjYwybQ1Dbb5vIqlOoilyebqxaLJbTN1ukpnrVkzfgps8ZPbheKxAiVRGKRSq0pDlcsf2JjemSdQmvkAZMdHKpIT2rrMNudCqW6tDw+clwTsKnCaNXYCc2tsw1Wh1ytLYtXhitStIczPfCh7MeGYJ3RtOjBtZnaerlaJ1Vq6ltmTZuzlC8A9mEQjclsnzRjvssXUKlUcjnYm5THF7bPX97Q0qY1WuRq7cjxE9M1dQTBkUhkbR0L6prbNOYiq6ekdfaiTFUNbWtdtOapIq8PRjAMJ5unz8tU1ZAcnsFsaZvbmc7VKDRau9s/dU5nWSxFgR+MonigpHT6zA673a5Wq+VyOYyCsMMsiF0QNgxCFKM4VuQLtM+Zb3MUqdTa0nBkdudKty+AExyPPzh+ygybyyeRqxwubzydFUvldFQngVA4sbW9fnK7QqOXKJQ4yYEw3Bsonji11eIokqm0Ll9JMjtSLJWxISSRHdncNsfkcElV2kgy19gyXa0z0CCt1hmmzVkUSWQkCpVILKFt3VKZQixXlsYyMztXOzx+iULF5QkQFB89tr5l5kKr06UxmMY0tbbOWyqVK1CMaJ2/LFs1csDWWjt6zvJHkxbT29FQwbg3HKYCTB9oDdDg+mWqYjqfP1pAvF8ROpFLXgTamzpX7somu3LpQjSm3l6wR2t//wC1UsdXeOnt7T1z5sw333zzySefbN269eGHH541a1ZdXd3YsWPr6urGjBmTSqXS6XQ2m62qqqmuHjlUqqpqampqR44cNXr02ObmiR0dHY8//vj27dsPHTrU1dV19uzZSzyBr9A8lTXMqbV+7KgboNZ8Pn+Jl3XB7k3rIU+lQmaBVwsHNOT/mNKukt/T06PRaC6hVrq5oY3SUYXf2rkz7vc1KiTvVYRPDP6kwvwxYf6C3ScaYKh1WFBr78ZEz02S3o2JK076mUxGA3e1BmhqNWlFwVDZjIUrmmfMbZm9cObCVUUAYAgujzeupT2Rqx2wtQ5gK0RwyLJ4Zvr85a3zOmcuWjmxfa5CpYZgSCwR14xrmt25etrcxTMXrepY/KDebEMQRCQSj21qmbnowZaOBW3zlk5ftNJgtmEYRpAcgsMjSC5BckkOj+DwMBzE4JEpVKMntLTO62ycOqu5be6i1U/Z3R4Q+1csqW1onjZ3cWPrrCkdC7Oj6iUSKUwlkVgyddbCOUsfoq279I443uKSSTPmtc7rXPH4upmLV0ycMTdQWgbBuFprqJ/c3tQ2t3Ha7KkdiyrSOWBThVGNzjh5xoLJMxc2Tps9c+HKYHkcw4HnMIqTGE7iBIfuKkZwqOBBwnGT2mcsWNE4bXZDy8yGlo7J0+fz+QKaWvkCUW7U2Na5i1vndU6aPtvnL8ZxMlAWm9KxYNKs+S0dC1o6FriLQ1SkXKQilpg+b0nHwuWzFiybOLVdrlDBKKI3muYsXVPkcqMY2NVmwtSZ2Vw1wSEJklMWjXUsWNo+f1nb3M7xU2bKgfIHtsCVyZWzOmbPmTNn2rRpdXV1KI7iBIfk8IYKipMwginUuvETW+YsWNQ8raNl+rxZi1a6vcUoRkgV6rqJ06Z2LGyaOqN99sKxDc1iiZwFgdjLCIqlKmunz13c0j67oWmyxeHECY5UpmhqntQ2c+7U6XNmzV04akydRCpHUFytN06aPg/U09oxa9HKmromsKMSAiIDC0SS2vrmtnlLps1eVFvXqFJrERSvSGUntnbMWrhq7rKH2+Yundw+qzhYSnJ4Gq2+ceqstnlgvDMXrPCWlOEEiWL41FkLU+lKDoeDomg2V9WxaEXcbHwnGrpPJhl34zBP5JIvF3scf/rDozbTscorbDcCVsAOyg0P8BJqpXe++UlqLcAPTVm9VDpz5szJkye7urqOHDmyb9++rVu3vvzyy1u2bHltML3++uvbtm3bvXv3J598cuzYsW+++ebMmTPd3d20X/H14tZVqLWglp9/cAOK7apMzJJL68fU3hi1FvhzqJIvp1k6p1C4gJfXq8ZCKz9JrUPZ9cKFC1u3bvXabA0y4e5o6Vfp2IlM/EQmTs/mGXy9gceGueUu0gBDrXeeWu9qlmA6z2jg9miAplajSszl84o8vvJ0LpLM2op8OEFCMIyThN3l1xot9DYqg9AKQTDYN9XqLArF095gRCKTs+lFqjAkkkhLQuGyRGVJJKY1WmAYYbFYEMQWiyWlFelwPFMSrtDoTSw2hGGYxeEKxzPlqVw0XVWeAk3bnW6MSgaLvSJTHUlUuvylwWiKtmFCECxVqMoSmWimqqQ8Lleq6ZBLNLia7a5QrFKjN9GnCALrjeZIojKSzAJJATHaisA2tDipN4PYwhXpKrfXz6HcjAHoYrjRbI3EQb7XH6ACCMMCoThYnqA7GU1XRdNVoVhapTMiKMYXCEPl8YpMtctfarY5HM4iDAdOyBAEgcjJClVJJBZJZsOxlMFoQlEMglGD1RHNVJWnqxyeYgqVqc4iqM3mKA2FS0NhpUqNICiMInyB0OsvFkukgPQQpMjlNpksCJUIgjTb7GWJrK+0XCxT0AGE6djFEATrDYZotLyioqK8vJwkCYvNEU1mosnKQUnbitwIiiMortUbI7FUJF5pdxe7fX6lUg3eLzYkU2pD0WQ0mQ2EoxK5Ciz6pSy0CIrw+AJ/IBhNZEojUYVKBVapYoROb4zG04lMTWlZjN4qFnQJwf6/9t4DLIotz/+eO/fOu/vfZ3f/u/PO7Dsz987MDUZAcoYmCyIoSE5N003nbkAFs15FRQwgiAEVBRFFzFcFc0QxoAICoghIpmlAUMkdqt+tLijLJogKbYO/es7TnDp14qeq6PPt3wl2Do5BdFYwi+vlH2hGspIvC4ym0NDQNDGz8KMEBzH5vuQgE1NzjRlaru5eQQxuEAt9DIJYIYF01iwnJ20d7RkztGztZpKp9ABK8GynOdrauurovrUanl7e9vYO2trampqajo6zyeTAACsSqFYV7ydVsYMXGeuH6Gg9o1MaBzOxfqwqU2gvmvx9W+vHqlZc8xCtf0R5g/kVPvFUWPinCa1hVGsTn/WxZIaKr0BsJKefo1qJGIlGVxwgjm4oj0KqoaINDMdUa0pKylAjhBV0slgsvnbtmr+ry0o76wfUgAYes4k/ViMCRoId4gABpREA1QqqFQgAgXFAoM/WaoOuIaSuoaGpqYVZ/9BBrvIQ+URW9BLxwMyJ8hB0RqJ8diIaBZVrffFmoNa//vWQ5MHqGnL1JbcKojE1NTVnz51HYfAoTB6VwQ1icCh0ztx5HpqamtgGpzo6utraOqiEk2/dieUtX81HS1tHR1NLe4b8IFQMrQwWeZDAGZpoWm09+ThkDfkiTDra2jqEmKhXHZ3zqY2Fq2toqKmpm5ia+pJpFDoniMGlMrgUJg9VrXaz+luNjt8drFwsY4UqoUw0NbXQSaFyPgql46dy5aumJv+jroi/L+cZ8hahPyGoy9nKg9HhwOiBmkbV1NS0tLRmOzkH0ejvHJU+z80Dr7OWlrbcj5YhR42Vifq1tNHJq9PV+nbVQWFramrM0FTX0NTQ1FLHPDO00BWVZmhpauloaunM0NTWmCG/JF8aSn2G5gxN1Gn0P1d4AzEp3n9zcUrvPNjzg8eXe1A7rcKBPQOa8sOXZAqqVWm9nE8rSMBjXvKa5zZl0jEXxzoufeBiwkNprUHDB9YBjfaeav3tc1Qrprhk8gMhHFjIqH8OpVqxodSj9TkQ2gdDPlO1DgUK0/YYVyzOoGqfaH3FkxDzJOZADBeLxXZ2dvv37+/t7SXcPQTPBJGPXsYvyWSy7u7unNt3Gf7k5bZW94P8G3jMMRrH/kHmEAEIKJMAqNZx0F9Xji0LSgECqkxAksm6t83b3dnK0EBn5M5AXxuLbGSoa6CvbWSoa2ykhwcS8zEy0jEx0TUy0jEw0DQ21jU01DI01DI21sGcqZmxOcnCnEQimZNIZiSSmbm5mbmRkY6RERrByEh7UIelNTTUMjLSHibaoGnlmWPZDpm/QkJTUwNzUzNTE1MzEzMzUzNTM3Mzc3NjE0PDIaqnkPyjTw11DQ10jQz1jI30jI30jY30DQ3QEAMDHQP9d04eqKOvp2VkqGdooGtsYmhhaUEiWchRkrDD3NzcwoJkZWVp+/5hY2ODIjdHwWOHhYWFpaWlhYWFlZUVMYREIpmZmZmampqZmZnLE5iamZuTLHFHsrAyJ1mamVtgIZiHZGFlaoHGIVlYGhoa6upo6+po6+nq6Onp6Opo6euhw5z19XQNDPQM9HX19XT19XQGd7o6Bro6hjqDOCNdXSNdXUMdHcxjrKdnaKAXaGX+CEYID2bAVGbvZ/iyhCGsai493Eg3WEvjCY08ULUOn/yDVxVUa+aZz1WtRBU0jH8o4TRMkoGXhlKtH2z1qESQ7xjEbOSjg7QVMhwt1YqpRPlyVFIEQdra2oiKEZtfim8IhM00xqYEYwklEgn2OwLR+opOWZYOPmlZLBbPnDkzJiZGIBAI5UdTU1Mz4WhpaWluaW5uam5pam5uamppahYKGgX1jZcvXXG0tZ1vZpxHIwv4ijQU4MApEJgABEC1Kle1ZrGlBIdksQc6YoSP8iNZbFVWHVA3IPA5BCSZrFfHaGfWuh5ZOefIyjnpK+YcWOKcsnhELnmRU8pi52R55ANL5gxMlbzI+cASp37nnLr0nUtZPDt5kWPyIseUxbMPLHE6uGzOgSVOmD9liRN6SR7enxbNJHWpc4o8DpZPyuLZKfJAYpyx86PF9Tm0JgruwBJiS/Emf5IHzXzugSVzMLyY/+AylwNL5gzm5qYsdj6w1HV/3NLkgxkHDh4+ePBgKuE4iB6p8s/3PghR+rzEhAfkR2pqatr7R+rBgykHUlMPHjqQmpZ68NA7l5qWciA1OSUVDU87tD8tY1/aieTDJ5PiE7YH+m2b55owd+7OuU47XJx2ujpvd3Ha4eq8s9/tcHXe4YJeGtTtdHEa1O1ydd7l6oxe6vfscHE64eNWxQ6eAB2Iid0EAY/xIMDH9p8/HJ5jX8ulN+GLDH+S3hZwGYL+yYd9w2gJtlblqFbcGDhQiH5UyBdWrTxmfQirkhNcywlufF+4jopqFYvFnZ2d7e3tb+VHTU11ampqYWFBa2vrq1ev2uRHV1dXc3PzrVu3Ojo6urq6rl27VlBQIBaLX79+XVZWVlxcfOXKlfLy8t7eXmzycK/8ePjwYVZWVk//gV3FtmP19PSk0Wjb+4+EhIRt27bFE464bfHb4rclyN32hO1yT0LUhk2BQZRJkybF2dkI+ldmmthvJbTuKycAqnVsVSuqJC+ESi4vkVxeIr26SHJlkfjKIvFV9FNyFXMR4ivhuJNHiJBc7YsjuhwhuYKmkqKfEZLLEeLL4XI/mhbNqt9JrkRILy1ALoagQjdzbBsF+QOBL0JAkskWn2NJzjFxN8JqYEuUIVlsLOHAVPglyTkmcp6D54958J+W0Kv9vzQpxCGeYr8f4ZHxTIhxhvKLz7HF59iifoedDqzw8CHDVHL4hMNcVagYVkNJJvbfBl0BDsliSc4xkCyWNJNJdEgWCznPlpxjoIFZXFn9A9RqMUQfGTdoDOXB0mEZ4HEGZia/JJXJkGFcXyZym0jv85KWtb82zuc1hLDq+cx6PqshhC0IZTeEsBr4I3ICPquRN4gT8tlNIZy+S3yWgMts5LFG3XD3lfdjxqr5Iew6HmOVmRFdS+MxxU/Yv5gwPgIWn0yIhwzlaQxhXfJ0PezsUBAUUM2hN/LQ3XTkI4TR/Vpn/PBD5pnfRriG8MCnfeQhQ795I88DjfkFVSvWZ63lMQ7OsjvvOe85g1JPGL89Kqq1tbX1+PHj8fHxsbGxMTExGzdudJrtxGQwN2/avHnz5piYmLi4uFOnTp0/f55KpR46dOjkyZNkMnnNmjUPHz5cs2bNihUrNm/enJiYmJ2dXVZWlpaWtmf37sRdibt376bT6U5OTjt27Ni1a1diYuLuxMTLly9jmwxlZ2dnZGQc6T8yPnRgETMyMg4fPuzn5/erjSXKoX+C61i9EZ/0ew1UBgiMIgH8IW8JD+26dxvpW3r94/6DKTP277DC+vorkl7k1hrcxohkMhFVW0H3PE/8cK+o8o6o8raoJqf7ZXZ35e3uqttdldm9NTndlbd7a3J6a3LEdfe6K2+3Pb8qrrvXW31HXHtXVHv3Vcnl18+vimvvSmtzkLq7SG2OpOZOz8ubHS+u9VbdlsiTtJffENXcFdfek9TelVTelBUfQS6GDdP1hEtAYDwTUPxFBpdnn+9RZSyf37qxzIGJZI3YnefI6h4gMnT43OgeuILFPB+TOSJDpKLSp01rVghC2MIQdhP/nesXIZxR/NKFrMYRAQGfeZ/sM3fyz8mOM2s4dKzm/U8Fur/rCF0jn3XZe57pX//sN33q3lkzH5J9X7KDBTymgM96xqBq/v3vylGtH/NeDBf3y6rWllBOHZe+TE/TZcrPkZZmF7zdX7CoAmyeMI8Z86lrCGMNRhCko6MjNzf33LlzmGSNjo7esD4qat36jdHRUVFR8fHxZ8+evXfv3smTJ+fOdYmOjt60cePMmTM5HE5WVpa3t/fFixeLiooaGhq6urqqq6tTUlK2xsTGxW7dGhsbGBhob2+/fv36uNitcbFbt8XHX7t2TSwWEwckY8OSh/rE/9FhESQSSXt7e3R09Bo7q1o2De/Qj6NXDKoKBD6KAP6Qg2odZftkn3nnYqjg7sH83JzXLfXPnhbdzr6VfevWzRvX5e5G9q2bt27eLC4sEHd31Fa9vHP7Vk93JyLplYi6ero7Dh5MvXb1Sk9XOyLtlYl7ZJJeaW9XfXXFyaOH21+3inu7nxYX3c25093VKZX0IhKRuLtdJniMXFkk7TOAjHKLVLlbD3X7OgmMohhTZYCj2MxRz2rk3NCfF7O4srr7sjFTrcN1tIe5hiCi0pKmNSvrQ9mocH1PtXKaQ1D3UV+rEHliEED3bg1hV7FpW6xJ8/W0i2jkQedSjqSxwlBODZfB1NL49z98+/1//ruP2rQke9snFL9aDr2YFii3tZ6WiEXyh3TwqY/DPL/Kv4Sr1ues4EY+szGEhTlhKHskDhtrPbzgR23RWLZ8dAor7oQhrAYeo44TfNbDZcaf//jHf/s/Bj/8baWRwUVv9woWTcBjxlqSloTP/4Sdb4gYEQRpbGxcvXp1fHzCvn37kvcnJyejH+uiNqxYufpte7tUKn327FlY2PxDhw4dO3rMy8srKSmpoKCAx+O9fftWLBb39vZKEGm3qPf6jRvJ+/an7E/el7SPxWK5uLjs3bs3ef/+ffv2paWlNTU1fbIBHFOwnZ2dmzZtipxpXcum4cb/kTyTEAcIjEcCoFrHWNpdCHl0fFP4An5W5m9xcXF0OmPOnDkzZ9oHBgZaWFh4e3vTaLSkpKSuzvb8vEc7tse/ed0qlfSIervu3r1jb2/P4XDKykol4h4ZIkbEPeKezv17dkUsCMt/nFdbW3v16lUqlSoQCLq7u588edLW2gyqdeR9aIgJBICAMgm8U63I6NtaiT3Oj/YjMlFpiXDNKky1oiN4+x3B7ooO6QT3tRFAhSufdc3HzWf6lIw5s18wg8red+Us6ogcM6iMTjnv6a7xpz99+83vv/397/7tX/5g9+M/D8+dfd3PC7O1fuYawh/92H9GAky1uhnpF9ODarj02n5XzQmuYtGqWNRK5mg4Fu0lm1bxvqvkBL9k08pZ1PygALcZ6t/9/tv/57s//OHbb7X+/MfVZsY3A7w3WH3ifq0YD3zBpIaGBhaLdeLEiWvy48aNG1evXo2LT+BwQ1+9eiWTySoqKqjUYAaDwWaxTUxMDhw4UFBQEBAQcPHixVu3bmVnZz8pKmxue5Vz7+6JY8dPnTh56uTJ8PBwb2/vI0eOnD59+tSpU1lZWUKhEFu66WPvBm6e7ejo2Lhxo1y1olPlsd8Cvrb3FNr79RAA1TpWqrXf1hr2tvBM5pmT69f+WlxcXFDwZNu2bUuXLrt8+SoliJp1/vzj/DyBQPDiRWla2sEFfNa9u3fq62rzHj8KCwtLT0+Pj4/fuXPny4pyqaRXJhXVV79k06knjmWkpKQkJCTU1tay2ezLly9XVFQwGIz8/MdIwyOwtSqzIw5lAQEgMEICoFq/no7FBGtpJTt4k5V5uKHeGpLRGgujSAvjd87SeO2HXKSlyVor89VWZuEmhmp//tN3qGj95ttvfv/dt99M+9MfefoGk/7nz+d+Oz3uVOssPe215ibrSGbrSKbrSWaoszBbb2E+Ss5svYXpepIx0a0jGUdZmm6wMl1vYbLOwmTO1Mn/9t13KM9vvvn97775r3/911k//YOiPn3xwk+3tUokEmyQ8NOnT9lsDp8fsnDhwoiIiGXLlkVERDAYDB6PV1ZWJhKJXr58uWLFqhs3btzOzqbT6UeOHCkuLnZyclq3bp2/v39QUFBaWtqNGzeOHz+ekZFx9OjRQ4cOcTicuXPnJicnHz58OCMjIz09/ezZsx0dHSOUrAOtsgiC4LbWGvkIYVCtE+yfDzRHgQCo1rFSrVhPruccNz9z97OSopflJZcvX16/fj2dTnd1nbdq1a/WNrbo/8HFiyoqKu7cubN8+XIvL6+01IO//fZb1IYN+5P3t7W1VVVWbtu2LSYm5lnJ0+6u9rOnjvPZjLrqqnNnz0YsWtTc3JyTk5Obm5udnc1iscrLS8HWOsIONEQDAkBAyQRAtSp8+8Lp+CAQwm7ksx4F+u6yt91qY4k6WyuCs4yz/bCLt7WMtbVYbW48+f/943e///bbb775l++++/4//33Wz/9cQzL/6X/+lHlm/I0QttHRjLE032pN+gQXa00aiYuxJsVYmb9z1qRYG4tYG4sYa9ImK3P7n3/812/lkvWbb/7PH/6g9qc/Bmlp8PW0Pke1YmtNPXjwYMOGDUuXLt2wIXrz5i2xsbHx8fExMTHr169fvXp1ZGRkdVVVeXn5woXhKSkph9LSPD0909LSCgsL+Xy+QCCIi4tPSUlpaWl58uTJiRPHjx07lp5+ePHixY6OjlpaWvHx8UeOHElK2rthQ9Tp06ffvn2Lz1YdxqOgbAeztaLzWkG1jo//KjBy51MJgGodW9X69hRz27LALZujmgRVycnJe/bs2bVr17p163Lu3mUyWefPn7d3sM/Ly3vz5k1sbCyXTnlSUBC7NXbR4sU3btwoLCx8UlBw9drVlStXRkdHV5SX8tjMBWG89rbWoieFXC63sLCwt7e3o6Pj8OHD0dHRra+aQLUquSMOxQEBIDBCAqqtWp81Ra5qCOMIUInybjUmGCH8lXcB+zRACFvAY1SjY19RV80OxlwVO7iSE1zJoX/QVXMYFVzWUefZP/znf3z37Td/+pd/IX3/t81WFncC/B4HkfvWEB5v81rdjPSLgimVbFoVO/idYwVXfchVsoNH7GiV7HeuihNczWO8ZNEqWNQHAT6WP/3zD99884dvv/vh//7HvGmTM+bOLqT6x1iSli8O/5x5rVKp9Pjx43w+/9mzZ7du3Tp//vyVK1euX79+4cKF3NzckpISNptdkJd///790NDQq1ev3rxxk06nb9u2LSsra8WKFZ2dnZrisnYAACAASURBVLt2JR4+fLirq0skEnV3d7e2tl65ciUkJCQ1NZVCoezatevhw4f79u1btmxpVVUVZt0diV4l2lqx+FKpFBshvMbOCmytX/k/q6+k+aBax0q1YiOEJRfnV2Sn79oe97TwYQp6HNi2fXv6kSONTcIF4QuvXb9mbkHKz8+vrq5esGDBnDlztm7devPmzbRDhyIjI8PCwpYuXRoVFXXx4sV6QcPlS5fnODktjgh//arlVUvTqlWr0tPTu7u7X71q3bhx05kzZ0S93aBaR9iBhmhAAAgomYDqqlaZTFRa2hy5siGM0xjKIShVXL7CjNavmgA2uxWdNMhTdCPsKQp4zCdUst1P//j5//6n2fffR5oaF1HJ9Ry6MESpO98o2Os++RRBkJw7d9yN9J+zgrFOJMZByO9blglfn2lQz6AkP4qtkMfc7eTwy3//h94Pf6GqT0+ebVfCCGrkMT9n5xvceimTydLT0yMiIpqbm9esWc3n81av/jUyMjI0NDQ5ObmpqYnH492/fz89Pd3V1XXBggULFy6cO3cun89fs2ZNfHx8R0fHzp27Dh061N3b09XTXVlddfT4MW9vbw6HIxQKMdHr4+MTGRn58OHDnp4eohYd/o5gShWPg51iI4RX21rWsKh4h36EjyVEAwLjjgD+kMMawmMiX5FL83vLrwnrqt62NSYmJoaFzV8YEZFfkN/e3r5ixQoWizVlypTc3NxLly6FhKDTJ2JiYtBBvw9zX1ZVRkZGPi99nnM35/zFC+2dHffu3Ytavy56w/q3ra9EvT1nz55dsWLFy5dVd+/eX7p0eWFhITqnH9YQhr1qgQAQUEkC40K1Ct7f+aZfwX7Vmm3cdWtUsMKNfOYB19mBM9QizU2z/bxqWcECHkPIZwpDOPh+rf3zWnFVoroeBEHuoqrVoJT5nmpVGnkhj8nRmMbX1Uh1npVPI9dz6Y18JrrsMI8Z+6k73+DWTplMdvjw4YiIiKYm4eLFiyIiwrfLjwULFiQmJlZXVy9cuPBR7sPnz55v2rRp27ZtJ0+eXLVq1bFjxzgczvnz57u7uzFba2dX152cnFW/rtq8efP69etDQ0Pr6+ufPXuWkJAQGBgYHR2dl5fX1tY2ctU68IHA57WutrXE1hDGFmRS2o2AgoCAkgmAah0TsYobMZBL87ueX7x66UJB3oOEhAQvb+/YrbHFT4tfvnyZlXU+OjpaTU0tJyfnwIEDCQkJW7ZsqaurffTo4c6dO2tqa0JCQu7k5CSnHEjcvaezu7uzs+vSpYsxWza1v24Ti3pqamrWrl23c2diaOj83bv3tra2gmrFsYMHCAABVSMAqlXJ3+5QnOoQEIawLnm5XPf1rObQG/sndAnRzV1Q1arx/feZZ34bXrV+jrYZqHY+MwRBkHu373gafknVemyuQwGNjNpX+3l+pmrFmGDaNSMjY/Hixc3NzYmJiZs3b963b19SUlJ8fHxqaurly5cZDMbTouJHDx8uX748Ozu7trZ29+7dSUlJbDa7pKSkt7c3MXE3amvt7s7NzT19+nRjY+OZM2fc3Ny2bdsWGRl57NixS5curVq1atmyZWlpaSNfjWngXQPVqjrvONREOQRAtY65am14cHTFqhU5d25ul//AFhUVFRcXt3XrVkymzpgx4969e7m5uVevXt26dWt7+5vy8rLNmzc/K30eHx+flpa2atWv589fkMr/ld64cX3L5o1vW18hUnFPT09a2iETEzNzc4sHDx6KRCJ0xXawtaqklUnV9APUBwgonwCoVuV8qUMpKkigOYRdz6E38dnNoeyWUE5LKKcZ3Rl4RKoVtwF+lHD9qMgD5dDwIV9ctaICVe4U7vXn2FqxdZgwbtnZ2ampqV1dXa9evXr9+nVPT09HR8fLly+TkpKio6Pj4uJqa2uvXbt26dKl3t5eqVQqFArz8vJOnDjx9u1biUSSlZV15coVkfwQi8Uymezq1avz589PTU29d+9eS0uLSCSqqanJycnJzs7u6ekZnvYwV0G1KjwAcDrhCYBqHWPVejGs+PzuRYsW1VS92Lc3KSYm5uHDh0VFRcXFxUVFRffv3zc1Nc3Pz0cQSVFRYXx8fFvbq6amxuTk5MKiwtu3b6empi6MCC8sLERkMqkUuXXrZsyWTV1v3/T0dBUXF4eHR/j6+tvbz4qNjaupqUH/OYJqBdUKBICAShIA1Trh+xPQwKEIYKs6NYf0SdYPqlYEQfBFeqRS7FfrPvU6lIbBoxHV11CRhwkfidzFRgh/QVvrUJw/R7Vi81qx5vf09HR3d+N7t2JsRSJRe3v7mzdvenp6JBJJT08PpkixqzhSqVTaKT+IIWKx+H/nhYnFYuwu4jnjcT7NA6p1qCcBwicqAVCtY6taxef5F/Yu27xpQ7Ogcndi4vLly48dO3bq1Knjx4+fOHEiPT1dX1+/oCBfKhEVPinYkbC9tbXlxo3rR48ePXHyxOnTp6OjowMplPT09Pz8ArFYcuvmjZgtm8pLn584fmzx4sUrVqwsK6u4fv1mSEjYypWrLly40FXzEPZrVb4RCUoEAkDggwRAtU7UbgS064MEcNWKe/qshdgI4R9+yDzzm6RvDWFUv4jF4sZGYXcPuiloTU1Nc3PzG/mRn5//5s0bTPmIxaLHjx8XFBT0dvd0dnbevn27vLz8df/x5s2b7u5ukUhUV1dXWFhYID8ePXqUm5ubl5f3RH4UFhaWlJSIRaiUwlRTZ2dnbm5ufX09HoKFK3xOSNWKq31MvmK/GmANx2hgnxKJBP+BAA/HPcSrRGhYBKwIqfzASiHG+QQ/qNYPvnoQYYIRANU6tqpVlMm7mx5148rFt631p04cjd4QdeBASlrawcOHD6UeSNm7Zw85wL+kuEiGSF6Wl546eayj/c3Zs2cPHTp08ODBlJSUxMREbCpFbu4DqVRSkJ+XceTwrZvXY2O2HDlypLq6WiwW9/b2FhYVJ2zfcfRIRlvFQ+nF0A92HyECEAACQEDJBEC1TrDeAzTnowjgehXzoGlD+kYI9+18I0GHkmLCpr29/ejRY2Vl5UePHj158uSuXbuys7Pz8/NXrVpVXV0tEYvEou6urreZ585ErY96XvLsZcXLiPDwLZu3JO9PTtqblJ6enpSUlJWV1draduXKlR07dsTHx8fFxW2M3shkMNesWbN169atsbFbY2NTUg68edOOKSixWJydnb1+/fr8/HyRSNTV1dXS0oKbB4maCltD2OPLzWsdivzn2FoVGjioORS3gWNXsZ8PsE8sOeaXSqXoOiMyGS5WiZkT5TExrUKckZyCah3qSYDwiUoAVOvYqlbkYlhn0W/tzXW9bxpbBHXC+po3r5o73rR2vGltb3vV1iKsKH3W3taCiLo737Q2NdRIejo63jS9aW1UcD2drYi4o6u95VVT7euWekFdZWf7GwSRyBCpDJGKxeLWV61Ngnqk7r40i6PkzigUBwSAABD4IAFQrRO1GwHt+gQC/7sKrnyfGHznm9O4rRVBkNevXyclJZ08eTIhISEyMnL58uUlJSVHjx5ls9k5OTmPHz98Wlz49vWr16+Ed25llxQ/vXzxUtS69ZcvXordErM4YtHlS5dWrly5YcOG9vZOgUBw7dq1oqKisrKyh7m5FDLl4vkLFRUVT4uLb924WV5eji2K0dnZWVBQwGKxjhzJaG/vkEql+fn5O3bsKC0tFYvFChIOQZA7d+5MYNU6lGLERxFjchTXrrgHT0g01eKBo+4B1foJrx4kGdcEQLWOtWoNFefulhQckBWlyV6elb08Jys/I3txGnVl8s/SU7I+d1L2/KTs+WlZ2YURu4uysn5XmtVbcET8YPcH+44QAQgAASCgfAKgWsd1XwEqP7oE+lQrv0+1nvvtnWqVyWTPnj3bu3dvXFyck5MThUKJjo6+ceMGm82m0Whr1641NzfncDilz4p6u97kPXqUlnrw2NGjObfvVJSVLwibv2TR4oL8/IMHDz58+EgikbS2ti5btiw1NbW9vV3Y2BjGm19cWNTR0Xn2zLlVK1e9efNWKpV2dHRduXKVRqPt3r27uflVZ2dnR0fHixcvli1bFhERUVpaCqpVQXDiQ4KxcPwUN66Cah3d9wVyAwIYAVCtY6xas9io8TOLI8lkyy7wZBe4sgtc5DznncNC8PAsNjIyJ0VzHsyp5EIsyu8iQ4lAAAioFAFQrdDtAAI4geFVa2Nj47lz5/h8vpWVlYeHx/79+w8fPmxvb3/ixImmpqZZs2YdO3r0VbPgUta5iPDw/XuTiouLz/52ZlF4xJpfVyfEb1u3bl1GRsbLl5UikUgsFt+5cycoKOjChQs11TV8dkjRk8KioqKlS5b89tuZ7u7ujo7OkydPOzvP8fLyiouLS0hIiIuLi42N3bJlC4/HI5FICxYsqKmpwfUYNsB14tlahxmsi11SIPDBAcAKQncsTsHWir9Q4PlKCIBqHVvVSuw1EuUoFi45xxSfZUjOMdH+XCZLco5JjD+8n5gb7h8+CVwFAkAACHwpAqBav5JeBTRzJASGUa0IglRVVe3duzcyMvLXX38NDQ3duHHjvn37vLy89u3bV1tba2Ji8uDevcIneWtWrdyxY8fdnJzNmzeTAwJWr/r17p2c3PsPNkRFsVisxMTEtra23l50hmpaWlp8fPzT4qc8Dv/evXspKSkJ8dsaGprEYvHbt28PHTq0YMGCJUuWrF69et26dRs2bIiNjY2Li0vctSsxMZHJZJ45c0ZBs6muarUkLV8c/rqtdSxU4gjzxNZbGmHkz4zW1dW1cePGX60t6rh07MFrDmGP5AmEOEBgPBIA1TqGqnUYMYlfQpXqOZbsPAcLkZ2HWaljeEe+VH8dygUCQABU63jsIkCdx4jAoKoVU4ZSqTQ3Nzd5//7U1NTY2Nhz585lZGQUFhYeOXJk9erVmZmZjo6O9bU1r4T1JYV5W7duXbZsWZD8WL502ZZNm7ds3hK+YOH6detu3bolEAju379/8eKljIyMuLi45P3JbvPcdu3cFb81LmV/8vnzF65cuVJVVfXq1asbN27s3r1v/74DBw4cSks7dER+pKennzlz5tGjR9XV1V+Dah3U3Eqcy4pBwD9xD76qMO75TC068uRdXV3R0dGrrEl1nGDsWQXVOkbvLGSrCgRAtY6mRsK1KGY7xU8/2GHFJSuW8IPxIQIQAAJAYPwRyOLKau/LEHR1TZU6RKWlzZErG8I4AtRMMdCxVOHbGuowwQigqzG9P68VV0EPHjxYtXKlra2tt7f3okWLwsPDKysr8/Pz2Ww2l8uN3hDd0/EWEXX2tLdy2ZxDB9OeP3t+8/qNmM1bip4UlpW+iNm8JXrDho6OjvLy8hUrVvj6+nrJDxcXl8mTJzs6Onp5efnJDwqFcu3G9a6e7uSUZHJgYOTateui1q9bty4yMnLdunULFy6k0Wjl5eUKW5JiqzG5GeqXMoMb+UwVuS9CHrORz9xsa7F8ScTr120YzI/9PzPoYGCicCWuAIxnjqfCPcOMH8ZTjYoHU60rrUkNPAb6UwhPVW6HijwVUI0JRmC8qta+fxySbumtNdIsLjrDE53PyZBmfsQg21Hv8+Ey9YPiU3KOiTniwOAPphr1CkOGQAAIAAGlEZBkcpC6++ji5yp2gGqdYD2bcdEcTLWWMKkzfvgBW40JX4r2RXlZaFiYm4d7yoEDW2K2kMnkioqK1tbWpUuX6unp5d5/gIhFMqmkq/1tWCj/9q1sca/o9q1sCjmwWdgkFUtSklNiY2N7enrEYrFIJOru7u6SH5WVlWw2Oy8vr0N+dHZ2dnd3isUiiUS8Z8+e5ORkbItXfNcWdPrr0qXl5eUK7yumWl1NjF8waMIQVflNR8hjNvCYW60tlkSEt7a2KqwgpdCEjz0lmmExEUvMAbuK7xKEiXwFqU+MP1p+BEG6u7s3b9j0q7VFA58l5DHB0Dou3n2o5CcTGMeqVSZFZKqqWpXWC4SCgAAQAALjhQCo1k/+qoaEE48Arlo1vv+eqFqlUml3T/fZs2cXL1myfv36+Qvm79u/v62trbKycuHChRYWFqdPn+5s75AhSHdn16bojQ/u3W9pak7as9fLw/NYxtGiJ4XJ+/bvSdzd1dGpIJyEQmFoaOizZ8+IGkyGyCQi8b6kpD179giFwpaWllevXrW2tra1td2/f3/p0qUVFRUKCrBftZqqmmqt5zLibCzHQrUq6MxBDbn4jw64zXzQaApZfc4pgiBdXV2bNmxabWNZx6GDoXXi/ZeAFikQANU6miOEx0vfEeoJBIAAEFA+AVCtCl/AcPo1ExhKtUokkvb29uLi4u07tjs6Os52dorftq2sonzTpk0LFy6Miory9fU9deJka8srQX3D1ctX7t7JST90eHHEoj2Juzesj1oQNn/p4iXHMo421NUryCehUBgWFlZSUoKpWUy7SiSS3t7e7du3BwUFxcTExMXFbd26NS4uLj4+fvny5f7+/s+ePROLxURxBaqVSEP5fvxHh741hKM2/mpjUcvpW43pa36noO0TngCoVlCtQAAIAAEgoAwCoFonfJcCGjhyAkOpVpFI9Pjx49jY2PUbok7/dvrO3Zz0I0eSD6SsXr26oKCgra0tKSlp6ZIlt27cTE05sHTxkoiF4esi196+ld3V0fmm7XXu/QfxW+PCFyw8fuy4gqDC9m6tqKggTs6USCQ9PT3p6elhYWGxsbHbtm1LSEjYvn17QkLC6tWrFy5cWF1djY0ZxnMD1YqjULKH+DMEpl07Ozs3RqGrMdWy+1ZjGvkTCDGBwLgjAKpVGX015ds0oEQgAASAgKoRANU67roIUOGxIyAMQVdjKmFSsRHCYrEI0yFSqbSmpiY/P7/5VYtYLJYiUpFYXPS0uF7QgG2pIpFIysvLmxqFBXn5j3IfVldWvX39BpFIpWKJDJEhEqmop7fqZWXVy0qiTRVBEJFIVFZW1tnZSVShWKENDQ2NjY14fKyg9vb2iooKkUikoM3GnWod65G6CnzG+hRvDtHWWsehw6TWsXtbIWcVIQCqFVQrEAACQAAIKIMAqFYV+eKHanxZAs0hbFRghLCFIewSFm3GDz9knjmNq1Zc86Cr/sg1pRRBpDIENZDKZLi1DROWiFSKSBEZgsjQSIg8BhoPkUjRwPcPLC0mTYlXEATBV2Ai5o+FD1x8SCaT5eTcmWf89c5rJdL7sv7Ozs5N8hHCoFq/7EsNpSuHAKhWZfTVVM3iAfUBAkAACCifAKhW5XyvQymqTACTrC2hnOZQTlMo+xmLpvG37zPP/oavQEtUQX3GT5kMXw+JaGfDzKR4CDHhQMmK78WC69LBExJywfLHExKuyHJybrsZm6jiaky2VovDw9va3tv55oMtJTZtXPjxFoFqVeWXHeo26gRAtYJqBQJAAAgAAWUQANU66l/hkOG4I4CrVlS4hnGeMqnqf/s+89xZqUSK6SVckBDH6+JbhuJxsGh4ZCVrrbs5d9xVRrViHVkhj1nPZcRaWyxbvLi1tZVIBpf349eD33finGRshPDGqOhfbSzA1jru/hVAhT+BAKhWZfTVlG/TgBKBABAAAqpGAFTrJ3xJQ5IJRgBXragnlFNEp2h8/wNRtRLFKq5VFFSrkjXqwOJUR7ViPLGHpIHHjLe1XhDCFzY29vT09PYf3fKjZ/wf3d3dvb293d3dPT092Gdba1vUmnWrrEg17GAhj4n16SfYKwPNAQI4AVCtoFqBABAAAkBAGQRAteJfveD5aglgKgv77JvX+v3fz535TSqRYOZBfNtPmXxgsILNcKCA/CIhd3PueJqYljJpwhCWitxKIZ9Vz2VstbbwcXLaHhOzf/fu5D17cJeye0/KnnHs9u/evX/3nn279yTv3bvvnT9p367dlHnuK0imNSwaqFYVeRShGmNHAFSrMvpqqmbxgPoAASAABJRPAFTr2H2XQ87jhcD7qpVVyqFr/vCPjCPpYlHfGsKYCsWMq/jKSfgU00E1KlHZDhphtAORuznZZAvLUpYKqdYmPquexzzn7soy0mebmXDMTTkkuTM3lZ+acEmm49fJm2PGtTDnWpA4JDMOqd9vbsbU10maPRNXrWBuHS//CqCen0AAVCuoViAABIAAEFAGAVCtn/AlDUkmGIHmEHZLKAdzwhBWeQjbeOr0TRujuzo7MfE5cO7loOshjbYQ/Yj8pFLx4UOpQSSLF2yVUK34ji9CPquBx3weHFjGpL1gUl8w5I5JLaVTntMppePWPadTngcHPg9GP0vpQQQ/5Xkw5QUjqJod3MChY7ZWUK0T7D8GNIdIAFSrMvpqyrdpQIlAAAgAAVUjAKqV+O0L/q+TgIJqrQnj+FlaLolY2Nb6CkEk2KjggQpS6dbUd1XAVTQunsWi3s0bo0JJRhVsquqMEMYeJyGPiYtY4pTX8a7lsEZhrcPVKRaINbORy/g6Xyho9VdFAFQrqFYgAASAABBQBgFQrV9V9wIaOygBXLX2T21lXfF1D5w7586d22KxGFeG71TjEL5BdCwikxG2bJXv8DpI4uEHG+NL1BJTIvLNYdFByzJ0Z9eSwidsb88j7nPqQ1hCvqrMax2UtkIgcXj2OPITW4Fr8iY+C/fjHmJM8AOBiUcAVKsy+mqqZvGA+gABIAAElE8AVOvE60NAiz6fQBWXvtTOauP6dS0tLe9pRbm+xKe2Ei8N6UdkqFjFHSEebjIlegjX33kHWa9YisikaDqZTNb2ujU2al2IhXEJi9GoMksxff5dgByAABBQfQKgWkG1AgEgAASAgDIIgGpV/T4B1FD5BIR81lmveR7mZiczMjra23EbKb4gEyYoBzGuvlOaBB+C9KnWfp1JuPaeF5ev74XKT94TrgQTrkQsOn3iOM3C/NQ8lzoeB1Sr8p8WKBEIfM0EQLUqo6+mfJsGlAgEgAAQUDUCoFq/5t4GtH0YAi9ZtFg7a19Li9+OH2t//VYqQa2axMG6EokE2xEHC//AJz5OeIh4uB4mKmGpVCrp330HK7rPzNtvue1qb7925ZK/tUWCjcVLHk8YwoWBqcPcU7gEBIDAqBMA1QqqFQgAASAABJRBAFTrqH+FQ4YThkAZk7rZ1jxw5sxD+/fX19ZJJVKiah1Cfr4XTJSgmLlVPqRXhn2+F3VkJ33JpYhELG4UNGSkHqDZ28TYmD8PZjSE8oUh7AkDHxoCBIDAuCAAqlUZfTVVs3hAfYAAEAACyicAqnVcdAugkl+GQAj7GTNox5xZFGuLrWvXPS8p6e7uFovFEgm6sDB+vCdNZTLi6UhmwOKjgnEPmrPcmopmhY0uxgqTm3ulUmlne0d15cvtsRuD7Ez2OduXBtMFfJ4wjNcEqnVcrUT1ZZ5qQAQERpUAqFZQrUAACAABIKAMAqBaoeMIBIYigI62DeOUc+mHXV0W2tiF+pNPH8moqqgQi8RisZg4PFg+zxTVlKjOlK+T1Ccz+42qmJTFdSnmweJgyhbXutjgX1S1StH1gdEZsQhq45XJpDJEKurtqamuPH3q5CI2c/lM0jXfebVchpDPFvJZYGgd6j5COBAAAmNHAFSrMvpqyrdpQIlAAAgAAVUjAKp17L7LIefxTqA5hP0qjPsqjNvAYxYGBSSSzMn6Bnz/wGPp6XU1tRKRGJeauEZFlaXc9c2ClV/AF1IiilUsyeCfqPSVosJVLoMRRIwg0u7erqqaylOnjy/msH119COtTR4GeI+vTW7G+/MA9QcCQGAgAVCtoFqBABAAAkBAGQRAtQ78DoYQIIBtvInt49o6nyfkMRt5zHoe466Pe6S5caCB/lI6Iz31YO7de7U1NR3tHeJeESJFEIl8jWB0VC9qYyVqWsxPDBlUr2KyVoKaWSWIVCrq6W1vb6+tq3v8KDf94IFlXI6fkUGEqfF5H49qbrAQNrkZ1YGO8NgDASDwCQRAtSqjr6ZqFg+oDxAAAkBA+QRAtX7ClzQk+RoINIewMdXaEsrB29vIY5YxqNe83BNsrBdZWEV4ea4Pj0jbk3T50sWiwiJBg6CzowORSrGdVLFFhon2VaIfU63yeavy4cByuypmqe3o6mgSNpY+e3bp4oXUfUmbVqxc5B+wyNIiYabtRR/3Ejatms9o4NO/QtUq5DGxLjJ+Rwb1YNFGHnPQTD45cOSlj7yIETZ85BlCTCAwWgRAtYJqBQJAAAgAAWUQANU6Wt/ckM8EI4CpVky44v5GLqM5lNMUyqnm0AspAZd9vZIdZy0xM/EhGVJcnBcvnJ+cvO9O9u0Xz0trqqpbX73q7Ozs7u7ulR9isVgkEnV1dfX29opEot7e3q6uro7Ozo6uzvbOjtdv3ggbG0ufl+Tn5R45cvTXiEU0Nzdfa8v5ZhY7Zzmdcvd4FORdxqLW81kCPlvI4zRyGcIQ1rje50bIY9ZyGSXBlGp28AgVZg07uIQaKOAyhn/Yqpm0Qop/FZM2fLRGHrOUFlhI8W/gDJLhx4pPPL6Ay3geHFgU5N/woXoOXz38qpDHrGTRSulBjTwmHkj04EUTAzG/MIRVSA14wQgadDC5kM96Qac8JvvmB/p+hT+CDMQFIZ9AYPyr1purJZkcSSZLco4pOUeXZjKVb0CAEoEAEAACQOCDBEC1fsKXNCT5Sgjgtlbc08hlYDNdm0PYAj6znkuv5QRXcRl36eSdNiT+9Mmz/vlXix9/nmVuwaFQI5et3J+459CB1NPHT5w7c/bypYs3rl+9eePajetXr165dPnShQtZ5347efz4kfSUpL0bVv3K9g1wNjG3mzLN4ae/Mab/c5u9RXaAT2UIp2o+szGM08JHd7UR8FkNXGYLn9PMZ6u+zBheVAt5zCIaeYmJ3jFXZ3RNqSEkGf6w1XPoN7zcfzUzKqVRho/8mOwbrq9zzdtt+GgCLiPV0W6VsV4th46XgnvqOYyH/t6oph2Z+KznMu4H+F7386jh0E+7OO+0FdXBGwAAGo5JREFUtawbWUK8xEE9qLbn0E+6OsfaWJQzqQNb1MBlFAUFPArwqePQB14V8Jm77O3SXZ0bBxtN/ZJFS53tQNfT3G5rLeAPLokHrRUEAgGcAPbUof8kw0O77t1GJOJBpz+oTuDv+ge6oH8RSS9yazWSxZRmMvodqFZl2Ew+2D2FCEAACAABBQKgWvGvXvAAASIB3L7aEsrB/bh8xfQY2l0LYQtD2fWhrFo+s4rLLKSSb3q6nXR2Spht+6u1abiZwXxzUz7JjGllxp1pHTrLJszBJszBlmdnxbIyZ1uZ8y3MQ0jmISSzlZbW++3mHp3rnenl+ZjmX8FhCPi8Oi6nIYQjCGEJuAysaGEIKlax+hBrq5r+91UrU8hnVnPoL5jUcia1HpVYjFyKn5vG9IMuzvVcRj2XUcmiVTCpVezgRj6zmc9q5DKq2MEv6JQqNk3AY9Rx6KfmzPaZNjUv0O8FnfKSSW3sl4X17OCXTOrLvmyZjwJ9KWrTM5wdBQOVsHxzoDoOGr+MERRlYRKoMbmGTRPyWbXs4AoGtYJJrWWj8q+SSVttbLDJyrwwiNzIYwq4jComtYpJq2EHN/KYzSHsRh6zmh1czghCk3DotezgDNfZbB2NR4G+2WSvFEf7Oi6jkc+q5DGes2kvWNQaDr0RHdrNLGNRy1nBpSzqMxa1jIM2baDabOKzhDxmHYdezgh6Rg9MmT0r3MigJDiwkcesYQdXMqmVDGoNK1jAZdSwaGvMjNeYGZfRKQIuSuklk1rBDKpmBzeiVOnJjnbn3OfWc+mVLFoDl/6SRatgofwb+cw7/l5kNfU1JkbX/bzqeYx6Dr2KSa1kUlEBPJjKVc3HDGr1ZQmMV9Xap137VSsmXJFMOoLKV5BtQAAIAAEgoHIEQLV+2e97KF1lCRCVKu5vCeVgDteNqDALZQ+668xL+ajO58GU53RKIS0gL8gvL9A3j+yTR/bJJ/vmk32KKH6l1MAXNMoLWmAlI6gPxYfWWCIW/b4sZKksTFSD8VnFwYE7Z9utNdZbb2KQNntmGT0wn+LvqzbliLNDPZee7e8Za2Pxq6nJDgfrfJp/A5t+19crzs52uYn+DnurbH/Pei5jr4PVvKmTE+ytVxkbRJmbPPb3auAynjOpx5xnRZJM15ibZLg4VdEpDwP9fKdPPec2d6AabOSzypm0k27O0RbGsTbmDB1Njt6MCmZQOSPoyBzHteYm60mmZ1znVDKoN3w8Hf/5/ZxJ/8xwcX5KDzrvNneTuXG0uUmGs+MLJq2RzyqlU1LmzlpjahhtYXzOw/V+gLeX2jSzH/6y28EqY55TvJ1VFYdexqRmuDlHWRivIxmnOTu8oFPqOPRoS9Nts2w3WplFmhrsdZr5nEUVDDD2CnnMKnbwGU+XNSTTKEuzJWZG8w10i2nkUiYtfbbDBjOTSGPjBFvL4iD/a95u8375xeHHfxxwciilU066zVlPIq000dthZ/GY7FPDpu2cabXfwbo4yH+lqfFRV6cN1maR5oZHXWZXc4I3WpiZ/OWvdLXpt7zdcym+B50dIk1NNpJMfnObU44/kCBfgcCwBCaCau23sjJAtYJiBwJAAAioLAFQrarc0Ye6fUECuFL9oOcLVlI1i8a1opDHbAnlCOWWSQGPmTLLjm4wY6ed1VozQ7t//v2Mq+Mjip+f+tRDzva51ACy+tQVhrrx1pY8zak7rc2zfT3m6+uFmxhtsSGxdTQXGOg8pZL3zLI0/ftfVpoaxFmTfGZMX25i+JRG3j97ZsD0SauszFeZG3upT9s9y+5+oI+v2tRMd5eBfBp4zNMerlTNaavNjLfYWcye/HOAxrRnweS9DnZcbc0YS/OtVqT5eppHnB1v+/l4Tv6JrDbpotvcjDmONI2p682MtlpbkGeo7be3fUGnJNlbU7TUYu0s1pOMw430z3i783S0Z/3yj+OujtvtLMkaaqWsoAPODixdja3W5lttLOhaanvtrcoYlHmTfqSqTY61tVhtbOAx6ccsL7eBw3eFPNQQStdS+9XEYMdMa1/1qewZ6oVU/4OzHdhaapvMTaLMzRx++nmjjcV1Py+yurrHtCnH5jmf85zHM9BZa0GKsbXwmzYlSm6AXWKot9RQJ8ff0+ivfwvQnB5vbbbSSJeiPvUuxS/B3sbux59WGhve9/FaQzIla6jHWpJWWJiydGaccnGulVuqx9EvIwNvN4QogQCoVpUzR6hsjxMqBgSAABD4HAKgWpXwpQ5FTAwCRPk6MVo0Rq3AF7zFNrzFOrX1XMYtb7ebgT4VzKBsHzfbv3+/kmTyINDXX33qQeeZW2faOP7yz3sU32oe47KfxzY7yxg7a+oMtTyqfw2fcd3Hw3XyL4fnzdntYOX+y48PA31qUDukq9/0KXd93MnqalG2FjXs4DoOPcbSzPCvfznhNc9n+pRMt0FUax2HvsjQYLmRQQ2LVs6mrjIx4GupPw7ypc1QX26od9HbLcvTZbmpQbihQSmTttpEfwXJ+FFQYIiOBsNQ+6q76w1PtwgzQ5uff7zs5cHSVNs6y7KGQy9lBB10dswJ8I5zmEnXUS9jUHbZWflNn/ooyC/EQCd+plUFi9bAoWfMcaRqTn9CC3Cb/OMKc6NiJrWCTnGfNmmHvY3C1Flsnart9jYhOppPaeRqFm2HvXWYvk4hLeCBn9ddX49SeuADsk+A5lS+nuZTBjXK0nQ9yaSSSc0L8L7j6/GcR3tC8V1koOc7ffoTasBiA92lhtp3/D0N/vLXTTaWtZzgB4E+gepTrpF97gX6snU1L3i5PCb7e0+ffMrVuYHLqGQGLTIxWm5kVM6kYts+jdFzAtlODAKgWkG1AgEgAASAgDIIgGqdGP0GaAUQUFkCWKe2kc+66e+V5uwQZ2PO19dW/+//Wmis94js4zNt8iGnmauM9b2nTa7kBgtC2VV8+nMmdYuVBV9HuziYXD+fXUD1J0+fvNfBds8s60D16cXBgXVcxnlfD99pU39zmztv6pQstzl1HLqAx9zr5PDjf/13hqeLn/q0QW2ttZxghpbGbgfrBi6jMYQVY2vJM9S66+sx6+cfnX75OUhTzV99yrwpk5caGz5lUNaaGa6zJuUFUTynTZn10z+pmtNpmtO9p091n/zLISeHuVN/yvSYUxfCbAph1XIZtRz6dmdHhq5GGYOSONOKrKF2z9+Tp6d1xn2ugMsQcOjnPVy4OmqPA308p09OmGkp4DHruAyW5tQ4a7OG90cIC3nMGg49Yab1YhPDMjZNEMI67e6y0FC/KJh8l+x71HnWDhvL+UZ65n/9K0Nj6jMmbaMNaZO1eQ2HnkcjH3ebs8XWcqmxPumHv3lMnpQf5B+hp73EoE+1nnVzruPSHwb5kdUmX/R1zwnwZuloXvZ0vePnHTBVLY/sI5TvS3zI0WGxgX4pPfBVGBe7fSr7dEHFvjgBUK3K6Kt9jnUC0gIBIAAEJgYBUK1f/CsfKgAEJh4B3C6NNQ3bYSXcSH++kV6ivWXiLFvTv/0l3EDnQYC337TJqU520Zbmc3758Sk9sI7HzKP4pc2eudnGkqGpXkD1rw9h3fH38pz8c7Kj/e5ZNoEa00voQfU8ZqaXm7/69Mueru5TJyc52NRzGQ1cxo6Z1up//nOmp+tQI4RrOfQIQ72lJOMqJrWCHRxpbszWU88le3urTQs31D/u6nzU1WmrnXXqbPsyNm2NuWGkuWlBUBBFUz1UV/O4i3Omu8suW8ut5sZn3F0D1aemO9k3hLDKmUFn3ZwfkX22z54VrK32gh6YaG/trzbtAdk71FD3oLNDLYdex2WkOTvwtdXyKb5uU39JsLNskC+kxNCYvH2mRR07mPgM4Kp1vp7OczpFEMJOcp4VZqB7l+K33MSApa+11ZaU4mTvqzaJra3+lBEUZWUWTTJ9zqDsdpjJ0dOOn2md4mhH1VCTq1a/Rfo6Swy0cwK8jP72/Tn3ObWc4Me0ALLa5Mt+HvcCfTl6Whc8XR76+/pMnXLRwwVdVooTHG9rvczQsJROaZKviUWsG/iBgAIBUK2gWoEAEAACQEAZBEC1KnwBwykQAAKfSYBoncNmRQr5rHxqQMD0X1ZbmF7z9djv7KD///1PuKHuo0DfAPVpac4zM308Zv70j30Otjd8PSNNdSNN9Y65zw2aobFv9qxssk+cjYWf2tTbvp6Jjlb+GtOe0gIbeMzz3u5ktekPArxWmxnRZky75OFyym1uoPq0cHOTewHefurTz7nNHdgQAY+ZPNshQH3KMXeXDJfZblN+8p8xrYQeuMrMmKY145zbnMs+7kuNdfc52lVx6BuszBboad/08421JrlP+eWEi9MlLze2juYmY/38oIBIM+PFBtpXvd2PznFcqK99y9cjzdk+YMaUu/4emGotpgdusCGFGGhlebhc9HEP0ddaa2r4gkV1l6tWAZdRzaQyZ0zZYW+pYGtFtzjiMTM9XIK11A872d8K8ObqanK0ZlwN8vdRm7TQRP+Gp9uxubNn/eMfQTM0ShjUzbYkjp5mjq9nlLlZqL7uJS+3s25zXKdO9pw8uYAasMRAd7G+1l2yt8n3P2R5zK3j0h9R/clqk6+Sve8F+vJ0ta/5uFWwaGytGQuNDK94uR1xd6FqqSfa21XK99HFF2oeCBNCgAC22HUTH13YfJztfENcQxhWY5oYdhhoBRAAAhObAKhW6HYAASAw6gSwqa3Ybj1Yj7aeQ4+zNg/UmEpWn8TQUvNTn7TUSC+X7LNUX+u6p2sVi7bfcabj5Mlzp09foKN51ce9Uh7iqj7dR20SQ3PaGVfnCjrlhIvjGlODWhZNyGM+Cw5cZKyXT/G77uO+1MTARW2aw6Sfebpa5YygPBqZY2x43mMecYYtVg0hn1XNDl5LMvGfMdVXY4rHtF8WGuhUMakPyT4R+lo+apN81SdzdTRu+npWs2iZzrO9pvy4297mHtl/namR/U//cJr007ypv2R7ulezg++TfUL0NL2mTvKc+stqM8NCWsB5L1ePqT+vMtXfOcv2V1ODahYtjxoQbqjtOeUXz6m/cLU1bvl61rCDefqaJ1yc0BHCHHqogfaxubMb5NvV4tAwSzU6TNqW5Dd9ko/aFI9pk1aZ6BfRA3c42PqoT/ZXm0LT0VhLMuHqauYH+h11me00ZVqooc6peXP91dS81ad6q0+h684I0dcpogeuNjddZ2H6kOIXoDH1qq+HgM8sCCZz9LWvB3g9CPRdZ2n6MNCnOZRzL8Cbo6vpPu0XL/XJsTYWBRT/RvlqTMTfIEb9OYEMJwABsLUqw8IwsXui0DogAASAwEgIgGqdAJ0GaAIQUCkCRK3YHMLGOrXo7qPs4Nu+Htc95z4J8s+j+N0j+5Qzqf+7IFMZkyrkMRu5jBIaOcffq7p/uGwDl/GQ4nfTxz0/0BfdX5TLeMmkPiL7COTbtNaygx8F+grkeq+GHZzj73Xbz7OMESTkMV8yaffJPhUsWg2HXs0OrmIHV7FomEN3IpXLxRx/r1t+nrf8PO8H+jZwGEI+6ymdctvf67a/V5F8W1R0y1Y65bG/d16Abw2HXsMOzgvweRzgUymvrVC+g+tDiu8NP4/cQB90lqx8r9Q7AV55gb4FNHK2r0ed3FZZz6HfDfC+4edREOQv4DHruYzb/p75QagmbJD7H1P8qlm0SrmrYtNQh9Y8uDGE1cBl5JK9b/p7Zgd4FVD8UEoh7LwAn1x/78KggGpO8JOggAYuo5ZFy/PzeuTjUcehP6OS73i73wvyK2FQ7pC9K9nBOYE+BcHkWjbttp9HLZvWwA6u5wTfI3vXoTu4UvPIaItaQjmNPGYpPfAR2fcx2UfAZ4JYVal3SpUrA6oVVCsQAAJAAAgogwCoVlXuDUDdgMB4JKA4qVVussNGEmIiFpO1jXKl1yiXndhVbI8cvBM8fNtxbYylxfLBc2jkM4up/gdm2W6wNF9vaR5lRVprYbrJmnTC1alaLiax5Nhn3zBmQj3xfPCKEePjFSMGYn4sPp4K9+BX8RAsEyGP+YIRlObssNnafJOV2SYrs42WZhstTRPtrTGBjSfEseAhxKxaQjl4hlhM7BOvKh55YHK8sQOTYMmxG0rMCvxAACeAP5kwQlgZnbaRmCMgDhAAAkBgQhIA1Yp/9YIHCACBUSeACUJcxxI9eGcXG7uLySpcXOE1Gcl+oXi2xFTPgwMz5szaOctu12z7XbPttzvY7nKwzfJwqeG8v/SRfMEhrDKYyRfP5GM9Q6m+4fN5yaSdmuecOMs2cZbtrlm2Ox1sdtpbpzrZ172/sPAwmeCQB8bBBScRI1G4YkmGrzmeycD8IQQI4C8yqFZQrUAACAABIDCGBFDVWv8AQSTYwgSq8ykqLW2OXNkQxhGEsJv4Ax0L+gpAAAioJgFcFBHVDqaaWkI5CoGYkRC7ittLcR2LNRDLEP8ctNXEbLGYjfKhsw1cRoN8LG4jHx1wi44o5r/774F3uDG1jGdCHNiMFUdUfYNWAFfdeEzcM1R8LFzIZwnklRTwmAIeE6stOtO1v55YZfAqYZVUqDkOB/P0TeLlMfE64FZuImS8Ypi5FT8FDxAYOQHskYPVmMawozYhbSbQKCAABIDAxxKQZHJkqq1aG9GRb6Ba3/WzR96ZgJhA4IsQwBUULj6JUgqr0vDGPdziikXDM8TzGdguXHBiabGVb3GphovSgQkVMsdOFYQi3pCByYkhCkqSKC+J0Qb1Y2ZevDJ4HCGP2RLKIeLChCgWjvvxahPFM1GLYpXBRSwWHysFz5wYH68AeIDA8ATwZw+1teZkIxKx6vz8PWhNfkcMRSS9yK3V+BrC0kwGksn82I4UxAcCQAAIAAElEFBh1fq8OXJlYyhHCLbWfpPL8F0HuAoEVIoAURdhFcOFE66dPljhgZkMmgTPedCrnxw48npiReDyjyiSiYHD1ARr6cDImDodmFBBYQ5aVWJuAxHhVwd6BhYHIUBgKAL4S9qyMLQn5zYi6ZHJEKIwVDX/e6pVJhUpqFYpqNZMsBsDASAABFSUgKraWp+/ilzZLB9PONSXJYQDASCgagQwCTRQRGGqScFoiW2NMzAysVHDXyXGBD8QAAJfkEDzwtCue3cQSReoVhXt7SnBEgJFAAEgAATGlIBqqtbe0uctkSuxWXBf8GsYigYCQOBjCRDNhriJT0F8Yqe4lP3YIiA+EAACqkYAVCuIVSAABIAAEBhbAiqqWp8/b1kDqhWmswKB8UeAqFqH6lgPqlpxEYuPORwqOYQDASCgagRAtY5tX21MzReQORAAAkBgXBAA1apq3/1QHyAwfgkMNUKY2CKFOLgZFher+ExLYirwjwUBBdT4LRiLsiDPiU0AVCuoViAABIAAEBhbAqBaJ3ZP4itsHXFUqkr5v557gQtRhSZj4QqqFYuDJ8E92CRY4qlCbnD6+QRAtX4+Q8gBIwCqdWz7auPCDAKVBAJAAAiMnID4HEuaxR3eSd5fHw5UK/Q5JhgBlVKqAyujarQH1nC0QnDZiWeIr8aEh2CeQWMODFRI9WVPVe0+EuszkAwRpoKfmBD3D8xhVELw/MEz8QiMU9UqkZYcQx5uJ7gdyMOd4IAAEAACQODLEpDm7pA8SJDdj0Me7eh3O2Wtz2SIRNXWpheVl785kPR63862pB1j7vbuaAM3YQgo4YGBIoYnsHdHW9J7b27r3h1yt/3Vnu1tSTta927HQ+R+9FT+mqOp0LeecNrvH/v/A8M3ajxcxWC2obS397sh/dj/1f5o24mcW/eit2ms3IT5VwMN2bujMXl7Q0qfE6Tu6nn8SCaTqlp3QqE+7+98I5Mh4k5wQAAIAAEgoHwCUnE7In47rOuQSXsRRIw7FZSs6HeMVCoT9yLiXkTUM9ZO2tsNbuIQGPsH5lMfyG5EhLkxf6Q/tYajUDGpCH2bJL1dkp4ucU+npAf1SHq70AdM1C3u6ZSK5Fd70cB+h4ZjfnFPFyEC9mJ2ISLVdGiLVM2hqOW3AHujEYJf4R3HHhJiIP7YSHvxZ7UbDxwVj1TUQywR/OOdgGInR+U3a5XJZIqqVUHUwikQAAJAAAgoiwAi/6VTOuynsuoyTspB4JhYBFT4uUPkOxmq4OcoM8MfKGK+CIJI+w8sglQqVfAonKLJVZAWXiVi81TAj2Pv80ilCAa4D7M8WCqVI0UIbBGZ/IoMQT1YOIL55Wej2DLFGsL5OCcwis+G0rIC1ao01FAQEAACQAAIjDKBcd5tgOorEhjl5wOy+zwC2O1B5SfhUDjF4ygUNVS4QjQ4xQkQGKO/ERBPMT8eSExCvB1YOKpax+AYWB8IGdcExuAZGfMsQbWOOWIoAAgAASAABMaIwLjuNEDlBxIYo+cEsv1YAsRbg+kiXDJhl/BT3IOF4wUpnOLh4BmKAJH58H48B6JAxf24B482Kp7hqwRXxx2BUXkqlJwJqFYlA4figAAQAAJAYNQIjLuOAlR4eAKj9mRARp9EALs7eFL8FL9r2CX8FPfgFr+BafEQ8AxPAIf5QQ+eD1Gg4n7cg0cbFc8HawURxheBUXkqlJzJ7/pmHbwrFhvyL5+NgAaOyTCDd6WBDwgAASAABIDApxIY3V7Cp9YC0gGBr4UA9sZ9La39cu0c9D/bwJ8GvlwFoeT3hs0Per/gZRn1p6RfteLT09/z9CvYUS8WMgQCQAAIAAEg8NkEhukrfMKlz64OZPC1ExjhU/e1Y4L2qxiBkTy3KlblL1+dkUAbI7v3qDR+hPUfYbRRqdIHMxletcL6bx8EON4ivPerxND3d8yahT39WPbKf5lH+O4pRBszGJAxEAACn0tA4W39zNMR1mYkpYwwK4g2wQiM5NnA44yk7Xhk3DOSVBAHCHwUAfzpGsbzURl+DZGHYYVf+ho4KLONoFqVSVsFyhpL1YqrUPx1VQj5Iu0nVuaT/V+k5lAoEAACQAAIAAEgAASAABAYdQKf3CUe64TDtPR3MmxrwGHEjBSRDe+GSTuml4ZpFlwaisAI78hQySEcCACBL01ghF8YX7qaSip/hDRGMZqSGjagmFFswgizGlAFCPgwgZGw/XAuEAMIKJcAPLefwBugfQK0z0zy/wMmrhTbuEJ8SgAAAABJRU5ErkJggg==;" vertex="1" parent="1">
          <mxGeometry x="230" y="395" width="1200" height="380" as="geometry" />
        </mxCell>
        <mxCell id="CQCiocndccs1FhWH08fA-3" value="酒检检测棒" style="rounded=0;whiteSpace=wrap;html=1;" vertex="1" parent="1">
          <mxGeometry x="30" y="120" width="120" height="30" as="geometry" />
        </mxCell>
        <mxCell id="CQCiocndccs1FhWH08fA-4" value="酒检检测仪器" style="rounded=0;whiteSpace=wrap;html=1;" vertex="1" parent="1">
          <mxGeometry x="30" y="220" width="120" height="30" as="geometry" />
        </mxCell>
        <mxCell id="CQCiocndccs1FhWH08fA-5" value="威尔" style="text;html=1;align=center;verticalAlign=middle;whiteSpace=wrap;rounded=0;" vertex="1" parent="1">
          <mxGeometry x="60" y="300" width="60" height="30" as="geometry" />
        </mxCell>
        <mxCell id="CQCiocndccs1FhWH08fA-6" value="设备，编码，检测值" style="text;html=1;align=center;verticalAlign=middle;whiteSpace=wrap;rounded=0;" vertex="1" parent="1">
          <mxGeometry x="40" y="160" width="110" height="30" as="geometry" />
        </mxCell>
        <mxCell id="CQCiocndccs1FhWH08fA-7" value="经纬度、设备编码，单位，警官，检测值，号牌号码、号牌种类" style="text;html=1;align=center;verticalAlign=middle;whiteSpace=wrap;rounded=0;" vertex="1" parent="1">
          <mxGeometry x="35" y="250" width="110" height="30" as="geometry" />
        </mxCell>
      </root>
    </mxGraphModel>
  </diagram>
</mxfile>
